FantasqueSansMono-BoldItalic.sfdir
StartChar: exclam
Encoding: 33 33 68
Width: 1060
VWidth: 0
Flags: W
HStem: 0 270<327 625> 1321 20G<549.425 868>
VStem: 275 593
LayerCount: 2
Fore
SplineSet
868 1341 m 5
 673 431 l 5
 390 429 l 5
 553 1341 l 5
 868 1341 l 5
327 270 m 5
 677 270 l 5
 625 0 l 5
 275 0 l 5
 327 270 l 5
EndSplineSet
Validated: 1
EndChar
StartChar: quotedbl
Encoding: 34 34 92
Width: 1060
VWidth: -25
Flags: W
HStem: 794 670
LayerCount: 2
Fore
SplineSet
820 1464 m 1
 1076 1425 l 1
 1021 1142 977 995 904 794 c 1
 709 846 l 1
 741 933 781 1059 781 1171 c 0
 781 1194 779 1215 775 1235 c 1
 820 1464 l 1
398 1464 m 1
 654 1425 l 1
 599 1142 555 995 482 794 c 1
 287 846 l 1
 319 933 359 1059 359 1171 c 0
 359 1194 357 1215 353 1235 c 1
 398 1464 l 1
EndSplineSet
Validated: 1
EndChar
StartChar: numbersign
Encoding: 35 35 93
Width: 1060
VWidth: 6
Flags: W
HStem: -19 21G<249.5 289 426.5 448.5> 360 198<32.4172 159 445 529 821 942.969> 778 197<123.79 294 577 658 945 1030.82> 1314 20G<426 458.5 1018 1031.5>
VStem: 444 229<1163.12 1331>
LayerCount: 2
Fore
SplineSet
515 782 m 1
 492 707 468 633 445 558 c 1
 496 558 546 557 597 557 c 1
 617 631 638 704 658 778 c 1
 610 779 563 781 515 782 c 1
289 -19 m 1
 210 -18 131 -16 52 -15 c 1
 81 98 108 191 159 358 c 1
 106 357 61 348 31 339 c 1
 27 400 24 460 20 521 c 1
 80 541 158 550 225 555 c 1
 256 635 270 699 294 778 c 1
 288 778 282 779 276 779 c 1
 210 775 160 770 122 757 c 1
 116 818 110 880 104 941 c 1
 174 966 258 970 343 975 c 1
 401 1159 408 1189 444 1334 c 1
 473 1334 586 1332 624 1332 c 0
 643 1332 659 1332 673 1331 c 1
 642 1210 620 1122 577 978 c 1
 622 977 667 975 712 974 c 1
 763 1137 786 1203 828 1322 c 1
 904 1322 980 1323 1056 1323 c 1
 1007 1202 995 1136 945 978 c 1
 986 978 1026 978 1067 978 c 1
 1054 912 1042 846 1029 780 c 1
 982 781 936 783 889 784 c 1
 866 708 844 633 821 557 c 1
 875 557 929 558 983 558 c 1
 969 493 955 427 941 362 c 1
 880 363 819 364 758 365 c 1
 698 168 674 98 641 -23 c 1
 564 -24 487 -24 410 -25 c 1
 443 87 475 185 529 361 c 1
 484 361 438 360 393 360 c 1
 349 210 289 -19 289 -19 c 1
EndSplineSet
Validated: 1
EndChar
StartChar: dollar
Encoding: 36 36 94
Width: 1060
VWidth: 0
Flags: W
HStem: 64 198<550 654.121> 1063 203<456.044 546>
VStem: 40 243<292.638 448> 169 259<867.637 1035.63> 726 254<336.918 548.5>
LayerCount: 2
Fore
SplineSet
300 703 m 0xe8
 219 741 169 802 169 904 c 0xd8
 169 927 172 952 177 979 c 0
 211 1161 395 1257 589 1266 c 1
 598 1328 608 1389 617 1451 c 1
 699 1446 781 1442 863 1437 c 1
 844 1379 826 1321 807 1263 c 1
 944 1248 1050 1175 1080 1053 c 1
 1000 1023 920 993 840 963 c 1
 840 971 l 0
 840 1025 803 1044 753 1052 c 1
 732 969 712 885 691 802 c 1
 747 782 778 770 824 748 c 1
 905 707 980 633 980 502 c 0
 980 478 977 452 972 424 c 0
 925 174 728 68 501 64 c 1
 488 3 475 -58 462 -119 c 1
 385 -116 308 -113 231 -110 c 1
 250 -49 268 12 287 73 c 1
 105 102 40 220 40 354 c 0
 40 385 44 416 50 448 c 1
 132 448 215 449 297 449 c 1
 292 434 288 420 286 408 c 0
 284 396 283 385 283 375 c 0
 283 325 307 292 345 283 c 1
 376 403 407 524 438 644 c 1
 400 655 344 682 300 703 c 0xe8
546 1063 m 1
 487 1063 443 1020 432 970 c 0
 429 957 428 946 428 935 c 0
 428 895 447 870 494 857 c 1
 511 926 529 994 546 1063 c 1
550 262 m 1
 641 275 700 320 721 427 c 0
 724 443 726 458 726 470 c 0
 726 525 695 547 631 578 c 1
 604 473 577 367 550 262 c 1
EndSplineSet
Validated: 1
EndChar
StartChar: percent
Encoding: 37 37 156
Width: 1060
VWidth: 0
Flags: W
HStem: -14 193<629.126 736.316> 392 193<668.387 784.526> 722 193<340.126 448.791> 1128 193<379.389 495.526> 1356 20G<938 1024>
VStem: 117 219<917.391 1086.93> 406 219<182.981 351.095> 496 229<963.111 1125.07> 785 229<230.977 389.073>
LayerCount: 2
Fore
SplineSet
678 179 m 0xfe80
 710 179 770 253 781 304 c 0
 784 317 785 328 785 338 c 0
 785 374 767 390 732 392 c 0
 730 392 l 0
 698 392 636 322 627 277 c 0
 625 268 625 259 625 251 c 0
 625 210 645 179 678 179 c 0xfe80
389 915 m 0
 421 915 481 989 492 1040 c 0
 495 1053 496 1064 496 1074 c 0xfd80
 496 1110 478 1126 443 1128 c 0
 441 1128 l 0
 409 1128 347 1058 338 1013 c 0
 336 1004 336 995 336 987 c 0
 336 946 356 915 389 915 c 0
-37 82 m 1
 68 223 172 363 277 504 c 1
 407 679 566 788 614 853 c 1
 545 776 449 722 347 722 c 0
 210 722 117 824 117 955 c 0
 117 974 119 992 123 1012 c 0
 155 1175 322 1318 486 1321 c 0
 493 1321 l 0
 633 1321 725 1231 725 1108 c 0xfd80
 725 1091 722 1075 720 1057 c 0
 720 1055 719 1052 717 1040 c 0
 712 1013 697 975 677 939 c 1
 781 1085 886 1230 990 1376 c 1
 1058 1339 1125 1301 1193 1264 c 1
 1088 1122 984 979 879 837 c 1
 785 705 613 591 502 450 c 1
 573 529 676 583 775 585 c 0
 782 585 l 0
 922 585 1014 495 1014 372 c 0
 1014 355 1011 339 1009 321 c 0
 1009 319 1008 316 1008 314 c 0
 990 152 815 -14 636 -14 c 0
 499 -14 406 88 406 219 c 0xfe80
 406 238 408 256 412 276 c 0
 419 311 431 345 449 377 c 1
 355 242 260 107 166 -28 c 1
 98 9 31 45 -37 82 c 1
EndSplineSet
Validated: 1
EndChar
StartChar: ampersand
Encoding: 38 38 168
Width: 1060
VWidth: 0
Flags: W
HStem: -22 203<289.933 554.142> 1146 201<478.831 627.42>
VStem: 14 256<199.876 472.868> 207 240<870.455 1111.19> 631 252<967.676 1145>
LayerCount: 2
Fore
SplineSet
671 94 m 1xd8
 568 12 460 -22 340 -22 c 0
 161 -22 14 46 14 255 c 0xe8
 14 289 18 326 26 367 c 0
 63 559 184 670 309 758 c 1
 245 830 207 917 207 995 c 0
 207 1009 208 1023 211 1037 c 0
 254 1249 433 1347 613 1347 c 0
 761 1347 883 1294 883 1145 c 0
 883 1126 881 1105 877 1082 c 0
 842 890 709 784 583 700 c 1
 636 600 688 500 741 400 c 1
 757 417 769 446 776 483 c 0
 783 518 786 561 786 608 c 0
 786 622 785 637 785 652 c 1
 866 652 948 652 1029 652 c 1
 973 364 851 246 851 246 c 1
 879 198 906 150 934 102 c 25
 870 57 805 13 741 -32 c 25
 718 10 694 52 671 94 c 1xd8
391 573 m 1
 337 530 291 444 277 370 c 0
 273 349 270 327 270 306 c 0
 270 240 296 181 383 181 c 0
 469 181 537 208 576 238 c 1
 514 350 453 461 391 573 c 1
488 867 m 1
 558 915 619 995 629 1056 c 0
 630 1063 631 1071 631 1078 c 0
 631 1114 614 1146 568 1146 c 0
 510 1146 461 1096 452 1053 c 0
 448 1035 447 1018 447 1001 c 0xd8
 447 951 462 907 488 867 c 1
EndSplineSet
Validated: 1
EndChar
StartChar: quotesingle
Encoding: 39 39 70
Width: 1060
VWidth: -25
Flags: W
VStem: 471 390
LayerCount: 2
Fore
SplineSet
582 1464 m 1
 861 1429 l 1
 806 1146 762 970 689 769 c 1
 471 821 l 1
 502 906 547 1044 547 1154 c 0
 547 1183 543 1207 536 1230 c 1
 582 1464 l 1
EndSplineSet
Validated: 1
EndChar
StartChar: parenleft
Encoding: 40 40 98
Width: 1060
VWidth: 66
Flags: W
HStem: -262 250<656.162 768.384> 1250 234<861.152 1061>
VStem: 221 274<159.618 673.031>
LayerCount: 2
Fore
SplineSet
1061 1250 m 1
 1054 1250 l 0
 791 1250 605 1067 519 616 c 0
 503 531 495 455 495 389 c 0
 495 109 631 -11 816 -12 c 1
 799 -95 783 -179 766 -262 c 1
 465 -259 221 -77 221 344 c 0
 221 424 230 514 249 612 c 0
 368 1225 672 1471 1106 1484 c 1
 1091 1406 1076 1328 1061 1250 c 1
EndSplineSet
Validated: 1
EndChar
StartChar: parenright
Encoding: 41 41 99
Width: 1060
VWidth: 66
Flags: W
HStem: -262 250<66.75 240.668> 1250 234<359 497.103>
VStem: 639 272<555.529 1101.61>
LayerCount: 2
Fore
SplineSet
314 1250 m 1
 329 1328 344 1406 359 1484 c 1
 707 1473 911 1309 911 918 c 0
 911 828 900 726 878 612 c 0
 759 0 382 -259 21 -262 c 1
 37 -179 53 -95 69 -12 c 1
 298 -11 523 173 610 616 c 0
 630 717 639 804 639 879 c 0
 639 1139 524 1250 320 1250 c 0
 314 1250 l 1
EndSplineSet
Validated: 1
EndChar
StartChar: asterisk
Encoding: 42 42 191
Width: 1060
VWidth: 0
Flags: W
VStem: 524 294<945.25 1109>
LayerCount: 2
Fore
SplineSet
489 703 m 1
 501 838 512 974 524 1109 c 1
 622 1110 720 1110 818 1111 c 1
 782 975 745 839 709 703 c 1
 815 763 920 823 1026 883 c 1
 1048 800 1070 718 1092 635 c 1
 964 597 836 559 708 521 c 1
 782 431 857 341 931 251 c 1
 846 192 762 134 677 75 c 1
 635 193 592 311 550 429 c 1
 459 310 369 190 278 71 c 1
 221 128 163 186 106 243 c 1
 211 336 317 430 422 523 c 1
 313 554 203 586 94 617 c 1
 141 704 188 790 235 877 c 1
 320 819 404 761 489 703 c 1
EndSplineSet
Validated: 1
EndChar
StartChar: plus
Encoding: 43 43 101
Width: 1060
VWidth: 6
Flags: W
HStem: 0 21G<325 589.5> 391 235<105 401 693 971> 998 20G<730 758>
LayerCount: 2
Fore
SplineSet
105 616 m 1
 154 625 185 626 250 626 c 0
 289 626 l 1
 342 626 396 626 449 626 c 1
 474 756 500 887 525 1017 c 1
 607 1017 689 1018 771 1018 c 1
 745 888 719 757 693 627 c 1
 819 627 872 625 934 625 c 0
 1016 625 l 1
 1001 547 986 469 971 391 c 1
 966 391 962 391 957 391 c 1
 951 391 862 391 653 394 c 1
 628 263 602 131 577 0 c 1
 493 0 409 0 325 0 c 1
 350 130 376 261 401 391 c 1
 312 391 l 0
 179 391 120 390 61 382 c 1
 76 460 90 538 105 616 c 1
EndSplineSet
Validated: 1
EndChar
StartChar: comma
Encoding: 44 44 54
Width: 1060
VWidth: 26
Flags: W
VStem: 317 327<81.3125 309>
LayerCount: 2
Fore
SplineSet
317 309 m 1
 426 310 535 310 644 311 c 1
 625 211 605 111 586 11 c 1
 586 10 586 9 586 8 c 1
 548 -189 428 -358 246 -434 c 1
 225 -374 204 -313 183 -253 c 1
 285 -202 348 -132 375 6 c 1
 337 6 300 5 262 5 c 1
 280 106 299 208 317 309 c 1
EndSplineSet
Validated: 1
EndChar
StartChar: hyphen
Encoding: 45 45 100
Width: 1060
VWidth: 6
Flags: W
HStem: 413 244<134 980.25>
LayerCount: 2
Fore
SplineSet
134 654 m 1
 179 656 230 657 280 657 c 0
 380 657 480 654 548 654 c 0
 667 654 l 0
 749 654 901 653 1008 652 c 1
 1014 652 1020 652 1026 652 c 1
 1010 570 994 489 978 407 c 1
 972 407 966 407 960 407 c 1
 826 410 624 410 499 410 c 0
 456 410 365 413 265 413 c 0
 208 413 149 412 93 409 c 1
 101 450 108 490 116 531 c 1
 122 572 128 613 134 654 c 1
EndSplineSet
Validated: 1
EndChar
StartChar: period
Encoding: 46 46 53
Width: 1060
VWidth: 26
Flags: W
HStem: 0 313<328.122 585.878>
VStem: 269 376
LayerCount: 2
Fore
SplineSet
330 313 m 1
 435 313 540 313 645 313 c 1
 625 209 604 104 584 0 c 1
 479 0 374 0 269 0 c 1
 289 104 310 209 330 313 c 1
EndSplineSet
Validated: 1
EndChar
StartChar: slash
Encoding: 47 47 104
Width: 1060
VWidth: 60
Flags: W
LayerCount: 2
Fore
SplineSet
-13 -38 m 1
 169 239 718 1124 922 1480 c 1
 986 1444 1050 1408 1114 1372 c 1
 908 1020 355 133 180 -149 c 1
 116 -112 51 -75 -13 -38 c 1
EndSplineSet
Validated: 1
EndChar
StartChar: zero
Encoding: 48 48 52
Width: 1060
VWidth: 0
Flags: W
HStem: -17 208<387.943 556.535> 1105 207<557.418 726.539>
LayerCount: 2
Fore
SplineSet
386 581 m 1
 505 711 624 840 743 970 c 1
 731 1070 724 1105 653 1105 c 0
 499 1105 428 814 394 631 c 0
 390 608 386 581 386 581 c 1
731 726 m 1
 610 595 488 463 367 332 c 1
 375 237 393 191 461 191 c 0
 618 191 679 442 723 677 c 0
 728 705 731 726 731 726 c 1
695 1312 m 0
 929 1312 1002 1140 1002 926 c 0
 1002 841 990 750 973 660 c 0
 911 336 770 -17 434 -17 c 0
 185 -17 107 141 107 353 c 0
 107 435 118 524 136 616 c 0
 201 951 338 1312 695 1312 c 0
EndSplineSet
Validated: 1
EndChar
StartChar: one
Encoding: 49 49 105
Width: 1060
VWidth: 0
Flags: W
HStem: -9 21G<432 731.5> 1302 20G<701.5 746>
LayerCount: 2
Fore
SplineSet
707 1322 m 1
 785 1307 862 1292 940 1277 c 1
 857 848 773 420 690 -9 c 1
 604 -9 518 -9 432 -9 c 1
 494 312 555 632 617 953 c 1
 532 868 411 764 267 691 c 1
 233 762 199 834 165 905 c 1
 502 1059 696 1307 707 1322 c 1
EndSplineSet
Validated: 1
EndChar
StartChar: two
Encoding: 50 50 106
Width: 1060
VWidth: 0
Flags: W
HStem: 0 215<383 859.625> 1095 211<522.584 756.671>
VStem: 195 257<862.031 1028.46> 779 252<838.786 1067.71>
LayerCount: 2
Fore
SplineSet
456 864 m 1
 370 850 283 836 197 822 c 1
 196 835 195 851 195 868 c 0
 195 890 195 914 199 934 c 0
 201 943 201 951 203 959 c 0
 245 1149 416 1306 672 1306 c 0
 903 1306 1031 1225 1031 1033 c 0
 1031 1000 1028 964 1020 925 c 0
 981 727 843 623 746 538 c 1
 680 483 394 271 383 215 c 1
 555 215 727 215 899 215 c 1
 885 143 871 72 857 0 c 1
 570 0 284 0 -3 0 c 1
 3 30 7 62 13 95 c 0
 18 121 25 148 35 176 c 0
 71 273 171 374 299 475 c 0
 446 590 739 755 773 926 c 0
 777 945 779 963 779 979 c 0
 779 1058 732 1095 646 1095 c 0
 572 1095 477 1051 457 951 c 0
 454 937 452 922 452 905 c 0
 452 892 453 878 456 864 c 1
EndSplineSet
Validated: 1
EndChar
StartChar: three
Encoding: 51 51 107
Width: 1060
VWidth: 0
Flags: W
HStem: -22 213<296.577 564.935> 621 200<422.562 586.792> 1041 21G<327 362.5> 1122 198<401.088 706.752>
VStem: 671 260<296.683 544.739> 726 260<924.491 1102.34>
LayerCount: 2
Fore
SplineSet
6 333 m 1xf8
 90 333 173 333 257 333 c 1
 257 213 355 191 435 191 c 0
 555 191 647 285 665 379 c 0
 669 401 671 420 671 437 c 0xf8
 671 506 640 538 602 566 c 0
 551 604 466 621 386 621 c 1
 399 688 412 754 425 821 c 1
 430 821 436 821 441 821 c 1
 570 821 702 880 724 1009 c 0
 725 1016 726 1024 726 1031 c 0
 726 1085 681 1122 598 1122 c 0
 490 1122 375 1077 350 1041 c 1
 304 1098 258 1155 212 1212 c 1
 220 1227 349 1320 629 1320 c 1
 633 1320 636 1320 640 1320 c 1
 772 1320 986 1259 986 1076 c 0xf4
 986 1060 984 1044 981 1026 c 0
 958 898 828 757 725 738 c 1
 866 689 931 593 931 465 c 0
 931 437 928 408 922 378 c 0
 873 128 735 -22 387 -22 c 0
 105 -22 6 123 6 333 c 1xf8
EndSplineSet
Validated: 1
EndChar
StartChar: four
Encoding: 52 52 108
Width: 1060
VWidth: 0
Flags: W
HStem: 0 21G<515 784.5> 393 210<376 591 889 976.31> 1288 20G<984.5 1003>
LayerCount: 2
Fore
SplineSet
632 603 m 1
 653 711 674 820 695 928 c 1
 597 799 475 688 376 601 c 1
 461 602 547 602 632 603 c 1
81 558 m 1
 124 604 646 1040 777 1306 c 1
 860 1307 943 1307 1026 1308 c 1
 980 1073 935 838 889 603 c 1
 931 603 974 603 1016 603 c 1
 1002 533 989 463 975 393 c 1
 933 393 890 393 848 393 c 1
 823 262 797 131 772 0 c 1
 686 0 601 0 515 0 c 1
 540 130 566 260 591 390 c 1
 440 389 289 389 138 388 c 1
 119 445 100 501 81 558 c 1
EndSplineSet
Validated: 1
EndChar
StartChar: five
Encoding: 53 53 109
Width: 1060
VWidth: 0
Flags: W
HStem: -2 212<335.823 563.167> 709 191<470.77 635.075> 1089 199<513.065 966.438>
VStem: 681 269<350.325 660.386>
LayerCount: 2
Fore
SplineSet
534 709 m 0
 414 709 341 618 323 598 c 1
 265 625 207 651 149 678 c 1
 208 881 268 1085 327 1288 c 1
 552 1287 778 1287 1003 1286 c 1
 990 1220 977 1155 964 1089 c 1
 818 1089 671 1089 525 1089 c 1
 507 1023 488 956 470 890 c 1
 470 890 512 900 590 900 c 0
 647 900 723 896 785 863 c 1
 867 815 950 743 950 576 c 0
 950 539 945 496 936 448 c 0
 875 130 637 0 397 -2 c 1
 396 -2 396 -2 395 -2 c 1
 207 -2 89 74 40 234 c 1
 123 271 207 307 290 344 c 1
 303 266 354 210 436 210 c 0
 526 210 640 274 674 450 c 0
 679 476 681 501 681 524 c 0
 681 640 619 709 534 709 c 0
EndSplineSet
Validated: 1
EndChar
StartChar: six
Encoding: 54 54 110
Width: 1060
VWidth: 0
Flags: W
HStem: -3 203<365.618 574.35> 601 201<470.828 728.632> 1091 226<780.734 1032>
VStem: 71 260<230.279 503.758> 674 258<306.937 567.875>
LayerCount: 2
Fore
SplineSet
1043 1091 m 1
 759 1091 522 972 404 715 c 1
 404 715 502 802 636 802 c 0
 819 802 932 655 932 467 c 0
 932 160 690 -3 411 -3 c 0
 224 -3 71 152 71 374 c 0
 71 908 468 1317 1032 1317 c 1
 1036 1242 1039 1166 1043 1091 c 1
331 365 m 0
 331 274 365 200 457 200 c 0
 557 200 674 305 674 438 c 0
 674 526 624 601 568 601 c 0
 428 601 331 506 331 365 c 0
EndSplineSet
Validated: 1
EndChar
StartChar: seven
Encoding: 55 55 111
Width: 1060
VWidth: 0
Flags: W
HStem: 0 21G<219 524> 1070 216<425.598 878>
VStem: 219 261<0 159.707>
LayerCount: 2
Fore
SplineSet
327 1292 m 1
 411 1292 518 1286 595 1286 c 0
 746 1286 912 1293 1055 1293 c 1
 1069 1293 1082 1293 1096 1293 c 1
 1119 1239 1142 1184 1165 1130 c 1
 776 662 568 454 480 0 c 1
 393 0 306 0 219 0 c 1
 298 407 511 674 878 1073 c 1
 790 1070 687 1070 596 1070 c 0
 533 1070 508 1070 446 1073 c 1
 444 1072 416 1006 405 969 c 1
 325 990 244 1012 164 1033 c 1
 194 1092 282 1226 327 1292 c 1
EndSplineSet
Validated: 1
EndChar
StartChar: eight
Encoding: 56 56 112
Width: 1060
VWidth: 0
Flags: W
HStem: -9 212<353.004 603.099> 1091 202<505.087 761.757>
VStem: 44 264<248.987 474.166> 224 253<875.098 1061.76> 701 261<299.954 548.437> 768 253<915.345 1080.61>
LayerCount: 2
Fore
SplineSet
469 203 m 0xe8
 538 203 672 250 698 388 c 0
 700 399 701 410 701 422 c 0
 701 496 657 580 553 632 c 1
 409 572 329 469 312 388 c 0
 309 374 308 361 308 349 c 0
 308 241 407 203 469 203 c 0xe8
593 840 m 1
 705 863 756 944 765 990 c 0
 767 1000 768 1009 768 1017 c 0
 768 1087 701 1091 642 1091 c 0
 576 1091 496 1085 479 990 c 0
 478 984 477 977 477 969 c 0xd4
 477 923 504 860 593 840 c 1
681 1293 m 0
 909 1293 1021 1201 1021 1053 c 0xd4
 1021 1032 1019 1009 1014 985 c 0
 993 882 886 762 792 736 c 1
 887 692 962 596 962 458 c 0
 962 433 959 406 954 378 c 0
 910 141 687 -9 428 -9 c 0
 198 -9 44 109 44 301 c 0xe8
 44 326 47 351 52 378 c 0
 86 560 222 684 354 736 c 1
 281 759 224 853 224 945 c 0
 224 959 225 972 228 985 c 0
 268 1172 420 1293 681 1293 c 0
EndSplineSet
Validated: 1
EndChar
StartChar: nine
Encoding: 57 57 113
Width: 1060
VWidth: 0
Flags: W
HStem: -2 207<253.211 544.166> 583 201<465.259 725.33> 1106 196<502.886 750.119>
VStem: 172 259<818.436 1036.83> 781 243<854.781 1074.66>
LayerCount: 2
Fore
SplineSet
627 1106 m 1
 517 1106 449 1026 435 958 c 0
 432 945 431 932 431 920 c 0
 431 835 493 784 574 784 c 0
 670 784 730 826 777 870 c 1
 779 895 781 919 781 941 c 0
 781 1047 748 1106 627 1106 c 1
179 955 m 0
 219 1155 385 1302 657 1302 c 0
 929 1302 1024 1139 1024 903 c 0
 1024 824 1013 737 995 644 c 0
 925 283 801 -2 409 -2 c 0
 166 -2 85 66 -11 171 c 1
 57 222 125 273 193 324 c 1
 241 237 294 205 408 205 c 0
 567 205 687 353 730 581 c 0
 733 597 738 631 738 631 c 1
 707 611 647 583 518 583 c 0
 327 583 172 700 172 885 c 0
 172 907 174 931 179 955 c 0
EndSplineSet
Validated: 1
EndChar
StartChar: less
Encoding: 60 60 102
Width: 1060
VWidth: 4
Flags: W
LayerCount: 2
Fore
SplineSet
865 141 m 1
 804 78 744 14 683 -49 c 1
 666 -13 624 33 583 71 c 1
 503 150 141 377 118 395 c 1
 132 470 146 546 160 621 c 1
 342 750 698 977 846 1054 c 0
 879 1071 903 1085 940 1096 c 1
 970 1027 1000 958 1030 889 c 1
 852 804 576 622 393 499 c 1
 516 398 809 265 865 141 c 1
EndSplineSet
Validated: 1
EndChar
StartChar: equal
Encoding: 61 61 114
Width: 1060
VWidth: 6
Flags: W
HStem: 170 224<55.3438 860.801> 627 222<146.587 946>
LayerCount: 2
Fore
SplineSet
56 394 m 1
 198 402 309 402 423 402 c 0
 601 402 734 394 902 394 c 1
 887 319 873 245 858 170 c 1
 684 170 541 174 359 174 c 0
 309 174 259 176 207 176 c 0
 147 176 83 174 14 170 c 1
 28 245 42 319 56 394 c 1
140 861 m 1
 281 852 392 849 486 849 c 0
 678 849 789 859 987 859 c 1
 973 786 960 712 946 639 c 1
 753 639 640 627 443 627 c 0
 347 627 240 634 97 643 c 1
 103 673 112 723 121 770 c 0
 128 805 135 839 140 861 c 1
EndSplineSet
Validated: 1
EndChar
StartChar: greater
Encoding: 62 62 103
Width: 1060
VWidth: 4
Flags: W
LayerCount: 2
Fore
SplineSet
10 166 m 5
 114 290 460 415 623 516 c 5
 488 639 302 807 158 892 c 5
 206 952 253 1013 301 1073 c 5
 334 1062 351 1048 378 1031 c 4
 497 954 764 727 896 598 c 5
 890 531 883 465 877 398 c 5
 848 380 396 153 286 74 c 5
 231 36 171 -10 140 -46 c 5
 97 25 53 95 10 166 c 5
EndSplineSet
Validated: 1
EndChar
StartChar: question
Encoding: 63 63 119
Width: 1060
VWidth: 0
Flags: W
HStem: 0 270<288.603 593.397> 1013 21G<285 377> 1153 192<441.39 753.871>
VStem: 358 272<431 565.876> 791 255<918.518 1116.95>
LayerCount: 2
Fore
SplineSet
291 270 m 1
 408 270 526 270 643 270 c 1
 626 180 608 90 591 0 c 1
 474 0 356 0 239 0 c 1
 256 90 274 180 291 270 c 1
171 1215 m 1
 345 1342 541 1345 640 1345 c 0
 653 1345 l 0
 878 1345 1046 1246 1046 1070 c 0
 1046 1045 1043 1019 1038 991 c 0
 1006 821 890 755 789 685 c 0
 722 638 656 567 639 479 c 1
 636 463 633 446 630 430 c 1
 539 430 449 431 358 431 c 1
 361 446 363 460 366 475 c 1
 394 621 515 734 596 795 c 0
 692 868 770 907 787 994 c 0
 790 1009 791 1024 791 1037 c 0
 791 1106 717 1153 626 1153 c 0
 576 1153 446 1152 308 1013 c 1
 262 1080 217 1148 171 1215 c 1
EndSplineSet
Validated: 1
EndChar
StartChar: at
Encoding: 64 64 163
Width: 1060
VWidth: 6
Flags: W
HStem: -253 200<358.439 663.403> -25 20G<630 668.5> 162 200<483 701.428> 658 200<617.209 771.84> 1095 205<554.024 796.768>
VStem: 21 226<74.2635 590.905> 343 223<362.16 601.348> 838 225<800.914 1056.57>
LayerCount: 2
Back
SplineSet
691 209 m 4
 742 209 794 312 800 329 c 5
 809 377 l 5
 797 417 767 448 749 448 c 4
 709 448 665 414 649 333 c 6
 647 322 l 5
 643 299 641 280 641 265 c 4
 641 219 659 209 691 209 c 4
858 629 m 5
 878 731 l 5
 879 735 879 738 879 742 c 4
 879 785 832 825 774 825 c 4
 726 825 671 797 632 720 c 5
 479 797 l 5
 579 970 698 1029 794 1029 c 7
 861 1029 922 998 936 975 c 5
 936 975 929 1178 757 1178 c 4
 579 1178 396 905 321 518 c 4
 306 441 299 367 299 297 c 4
 299 18 411 -185 562 -185 c 4
 635 -185 695 -158 731 -137 c 5
 788 -320 l 5
 736 -349 636 -380 520 -380 c 4
 262 -380 83 -181 83 212 c 4
 83 309 94 418 117 538 c 4
 230 1120 513 1385 787 1385 c 4
 1057 1385 1130 1195 1130 981 c 4
 1130 889 1116 793 1099 705 c 5
 1007 233 l 5
 1004 216 1003 200 1003 184 c 4
 1003 120 1023 66 1023 66 c 5
 802 -22 l 5
 791 78 l 5
 791 78 726 -9 560 -9 c 4
 448 -9 410 81 410 190 c 4
 410 228 414 268 422 308 c 4
 440 400 474 488 507 530 c 4
 590 636 671 667 740 670 c 4
 742 670 744 670 746 670 c 4
 788 670 839 643 858 629 c 5
EndSplineSet
Fore
SplineSet
572 496 m 0
 568 474 566 455 566 437 c 0
 566 391 580 362 612 362 c 0
 710 362 745 480 773 530 c 1
 777 553 782 575 786 598 c 1
 745 642 745 658 696 658 c 0
 646 658 594 616 572 496 c 0
779 267 m 1
 708 204 680 162 554 162 c 0
 412 162 343 272 343 405 c 0
 343 431 346 458 351 485 c 0
 392 701 523 858 707 858 c 0
 776 858 798 832 825 798 c 1
 833 839 838 881 838 919 c 0
 838 1017 804 1095 690 1095 c 0
 525 1095 350 922 269 500 c 0
 255 426 247 356 247 292 c 0
 247 89 323 -53 494 -53 c 0
 542 -53 598 -41 662 -5 c 1
 675 -69 687 -132 700 -196 c 1
 612 -238 513 -253 443 -253 c 0
 134 -253 21 -3 21 274 c 0
 21 347 29 422 43 495 c 0
 141 1001 416 1300 728 1300 c 0
 976 1300 1063 1127 1063 949 c 0
 1063 912 1059 874 1052 838 c 1
 1031 728 1009 618 988 508 c 1
 981 472 972 427 972 391 c 0
 972 352 980 313 1003 265 c 1
 936 233 869 201 802 169 c 1
 788 205 785 213 779 267 c 1
EndSplineSet
Validated: 1
EndChar
StartChar: A
Encoding: 65 65 26
Width: 1060
VWidth: 0
Flags: W
HStem: 0 21G<-69 196.5 692 972> 281 223<409.995 673.747> 1305 20G<505.5 849.5>
AnchorPoint: "above_accent" 690 1322 basechar 0
LayerCount: 2
Fore
SplineSet
674 504 m 1
 674 511 l 0
 674 625 636 773 636 905 c 0
 636 937 638 968 644 998 c 1
 605 830 472 625 407 486 c 1
 470 499 590 499 674 504 c 1
601 1325 m 1
 676 1325 750 1325 825 1325 c 1
 874 883 929 448 972 0 c 1
 880 0 788 0 696 0 c 1
 688 94 681 188 673 281 c 1
 520 278 436 282 310 252 c 1
 294 222 278 192 262 162 c 1
 230 101 202 43 191 0 c 1
 104 0 18 0 -69 0 c 1
 -53 61 -14 143 28 223 c 1
 219 590 410 958 601 1325 c 1
EndSplineSet
Validated: 1
EndChar
StartChar: B
Encoding: 66 66 27
Width: 1060
VWidth: 0
Flags: W
HStem: -5 197<275 592.372> 636 198<405 585.078> 1123 202<459.443 644.15>
VStem: 656 263<906.486 1110.72> 724 258<328.732 592.431>
LayerCount: 2
Fore
SplineSet
154 837 m 0xe8
 188 1014 217 1178 233 1308 c 1
 315 1314 460 1325 573 1325 c 0
 591 1325 l 0
 786 1325 919 1254 919 1088 c 0xf0
 919 1065 916 1041 911 1014 c 0
 884 870 822 824 739 783 c 1
 872 744 982 661 982 495 c 0
 982 468 979 439 973 408 c 0
 914 106 723 24 552 3 c 0
 512 -2 470 -5 431 -5 c 0
 357 -5 300 0 215 0 c 0
 177 0 l 1
 112 0 48 0 -17 0 c 1
 21 198 72 413 154 837 c 0xe8
653 1012 m 2
 656 1024 656 1034 656 1043 c 0
 656 1120 586 1123 565 1123 c 0
 561 1123 l 1
 556 1123 550 1123 545 1123 c 1
 506 1123 489 1121 458 1118 c 1
 454 1083 447 1045 439 1004 c 0
 429 950 416 892 405 834 c 1
 443 834 l 0
 516 834 620 846 651 1004 c 1
 652 1007 652 1009 653 1012 c 2
528 638 m 0
 479 638 482 636 409 636 c 1
 394 636 380 636 365 636 c 1
 316 394 291 276 275 198 c 1
 323 195 362 192 400 192 c 0
 430 192 460 194 496 198 c 0
 529 202 684 238 718 420 c 0
 722 442 724 462 724 480 c 0xe8
 724 603 633 638 528 638 c 0
EndSplineSet
Validated: 1
EndChar
StartChar: C
Encoding: 67 67 28
Width: 1060
VWidth: 0
Flags: W
HStem: -3 201<416.318 648.987> 1128 204<592.527 818.265>
VStem: 84 265<271.823 726.457>
AnchorPoint: "above_accent" 761 1322 basechar 0
LayerCount: 2
Fore
SplineSet
710 1128 m 0
 595 1128 435 992 365 628 c 0
 354 570 349 518 349 471 c 0
 349 295 419 198 503 198 c 1
 508 198 512 198 517 198 c 1
 641 198 692 262 765 392 c 1
 838 346 912 301 985 255 c 1
 880 97 689 -3 499 -3 c 1
 498 -3 497 -3 496 -3 c 1
 385 -3 259 22 183 116 c 1
 117 202 84 308 84 439 c 0
 84 499 91 564 105 636 c 0
 155 895 267 1054 334 1132 c 0
 427 1240 581 1332 756 1332 c 0
 896 1332 1057 1269 1114 1107 c 1
 1029 1065 943 1024 858 982 c 1
 832 1106 796 1128 710 1128 c 0
EndSplineSet
Validated: 1
EndChar
StartChar: D
Encoding: 68 68 29
Width: 1060
VWidth: 0
Flags: W
HStem: -10 205<287 550.992> 1127 204<464.25 658.122>
VStem: 757 269<483.754 1009.21>
AnchorPoint: "above_accent" 600 1322 basechar 0
LayerCount: 2
Fore
SplineSet
547 1127 m 1
 537 1127 527 1127 517 1127 c 1
 501 1127 489 1127 471 1124 c 1
 467 1098 462 1068 456 1037 c 0
 444 974 438 953 425 884 c 0
 367 578 307 296 287 198 c 1
 374 195 326 195 386 195 c 0
 389 195 l 0
 429 195 573 197 669 353 c 0
 697 398 722 489 733 544 c 0
 750 630 757 707 757 775 c 0
 757 1006 668 1127 547 1127 c 1
20 128 m 1
 31 183 114 580 176 901 c 1
 181 926 186 952 191 977 c 1
 216 1106 236 1229 244 1317 c 1
 327 1325 373 1331 472 1331 c 0
 767 1331 875 1260 970 1066 c 1
 1007 986 1026 885 1026 776 c 0
 1026 713 1020 646 1007 580 c 0
 942 249 728 19 483 -3 c 0
 427 -8 376 -10 321 -10 c 0
 237 -10 105 -3 -9 -3 c 1
 -2 31 -2 30 20 128 c 1
EndSplineSet
Validated: 1
EndChar
StartChar: E
Encoding: 69 69 30
Width: 1060
VWidth: 0
Flags: W
HStem: 0 204<323 868.946> 646 203<450 751.438> 1118 205<493.966 1033.45>
AnchorPoint: "above_accent" 696 1322 basechar 0
LayerCount: 2
Fore
SplineSet
283 1319 m 1
 340 1323 410 1323 488 1323 c 0
 586 1323 l 1
 623 1323 659 1323 696 1323 c 1
 845 1323 981 1320 1055 1320 c 1
 1060 1320 1066 1320 1071 1320 c 1
 1058 1253 1044 1185 1031 1118 c 1
 855 1118 678 1118 502 1118 c 1
 485 1028 467 939 450 849 c 1
 563 849 675 849 788 849 c 1
 775 781 762 714 749 646 c 1
 636 646 524 646 411 646 c 1
 409 636 407 625 405 615 c 1
 365 408 338 283 323 204 c 1
 462 205 600 205 739 206 c 1
 795 206 869 233 869 233 c 1
 880 167 892 100 903 34 c 1
 852 21 807 0 709 0 c 1
 482 0 254 0 27 0 c 1
 112 440 198 879 283 1319 c 1
EndSplineSet
Validated: 1
EndChar
StartChar: F
Encoding: 70 70 31
Width: 1060
VWidth: 0
Flags: W
HStem: 0 21G<263 316> 642 216<468 787.395> 1115 209<519 1051.92>
LayerCount: 2
Fore
SplineSet
307 0 m 1
 219 1 130 2 42 3 c 1
 127 443 213 884 298 1324 c 1
 520 1324 742 1324 964 1324 c 1
 1066 1324 1108 1307 1139 1290 c 1
 1110 1222 1082 1155 1053 1087 c 1
 1030 1101 1011 1114 913 1115 c 1
 890 1115 866 1115 843 1115 c 1
 739 1115 702 1115 519 1114 c 1
 502 1028 485 942 468 856 c 1
 588 856 546 858 668 858 c 0
 758 858 821 843 858 825 c 1
 835 757 812 688 789 620 c 1
 755 637 706 642 661 642 c 0
 576 642 l 0
 546 642 491 642 426 640 c 1
 402 517 325 95 307 0 c 1
EndSplineSet
Validated: 1
EndChar
StartChar: G
Encoding: 71 71 32
Width: 1060
VWidth: 0
Flags: W
HStem: -8 206<372.09 617.957> 567 207<506.497 763> 1121 207<557.669 820.978>
VStem: 49 259<268.34 731.835>
AnchorPoint: "cedilla_accent" 414 0 basechar 0
AnchorPoint: "above_accent" 736 1322 basechar 0
LayerCount: 2
Fore
SplineSet
1064 758 m 1
 1053 701 1042 643 1031 586 c 1
 944 142 804 50 617 3 c 1
 570 -7 505 -8 463 -8 c 0
 170 -8 49 183 49 442 c 0
 49 505 57 572 70 641 c 0
 116 883 208 1080 364 1210 c 1
 481 1300 601 1328 716 1328 c 1
 723 1328 729 1328 736 1328 c 1
 949 1323 1080 1237 1123 1071 c 1
 1038 1032 952 994 867 955 c 1
 854 1073 815 1121 683 1121 c 0
 515 1121 384 919 328 630 c 0
 315 562 308 501 308 447 c 0
 308 291 365 198 493 198 c 0
 665 198 725 374 763 568 c 1
 742 568 720 567 699 567 c 0
 628 567 599 564 502 530 c 1
 488 597 475 664 461 731 c 1
 564 768 669 774 770 774 c 0
 873 774 989 764 1064 758 c 1
EndSplineSet
Validated: 1
EndChar
StartChar: H
Encoding: 72 72 33
Width: 1060
VWidth: 0
Flags: W
HStem: 0 21G<-15 261 600 897.5> 599 215<398.475 716> 1302 15G<456 481.5 839 1111>
AnchorPoint: "above_accent" 664 1322 basechar 0
LayerCount: 2
Fore
SplineSet
499 1322 m 1
 464 1143 429 964 394 785 c 1
 490 806 551 814 671 814 c 1
 700 814 729 814 758 814 c 1
 812 1094 823 1152 855 1317 c 1
 940 1317 1026 1317 1111 1317 c 1
 1026 878 940 439 855 0 c 1
 770 0 685 0 600 0 c 1
 639 200 677 399 716 599 c 1
 684 599 l 0
 538 599 475 596 352 570 c 1
 284 220 279 185 243 0 c 1
 157 0 71 0 -15 0 c 1
 71 440 156 880 242 1320 c 1
 328 1321 413 1321 499 1322 c 1
EndSplineSet
Validated: 1
EndChar
StartChar: I
Encoding: 73 73 50
Width: 1060
VWidth: 0
Flags: W
HStem: 4 214<100 341.29 590 775.962> 1112 212<312.878 509 756.837 995.969>
AnchorPoint: "above_accent" 657 1322 basechar 0
LayerCount: 2
Fore
SplineSet
314 1324 m 1
 471 1328 572 1329 668 1329 c 0
 773 1329 873 1328 1036 1326 c 1
 1022 1256 1008 1185 994 1115 c 1
 871 1115 860 1120 765 1120 c 1
 707 820 648 519 590 219 c 1
 636 219 621 220 672 220 c 0
 717 220 764 219 815 216 c 1
 801 144 788 71 774 -1 c 1
 690 4 628 5 565 5 c 0
 518 5 469 4 410 4 c 0
 336 4 213 -3 58 -3 c 1
 72 69 86 141 100 213 c 1
 186 217 224 218 281 218 c 1
 298 218 316 218 333 218 c 1
 392 518 450 819 509 1119 c 1
 443 1118 386 1118 279 1112 c 1
 291 1183 302 1253 314 1324 c 1
EndSplineSet
Validated: 1
EndChar
StartChar: J
Encoding: 74 74 51
Width: 1060
VWidth: 0
Flags: W
HStem: -8 212<305.416 453.257> 1108 216<378.284 696>
VStem: 21 264<218.527 432.885>
AnchorPoint: "above_accent" 680 1322 basechar 0
LayerCount: 2
Fore
SplineSet
337 -8 m 0
 109 -8 21 145 21 323 c 0
 21 360 25 397 32 435 c 1
 119 435 205 434 292 434 c 1
 287 403 285 376 285 351 c 0
 285 253 320 204 373 204 c 0
 571 204 661 775 696 1106 c 1
 647 1106 535 1108 498 1108 c 1
 393 1105 405 1096 377 1090 c 1
 363 1161 350 1231 336 1302 c 1
 367 1309 375 1321 494 1324 c 1
 639 1324 832 1323 988 1323 c 1
 859 459 763 -8 337 -8 c 0
EndSplineSet
Validated: 1
EndChar
StartChar: K
Encoding: 75 75 34
Width: 1060
VWidth: 0
Flags: W
HStem: -11 6G<8 280.5 746 797> 1315 20G<224.5 526 976 1025>
AnchorPoint: "cedilla_accent" 470 0 basechar 0
AnchorPoint: "above_accent" 688 1322 basechar 0
LayerCount: 2
Fore
SplineSet
638 742 m 1
 735 623 968 192 992 54 c 1
 914 25 836 -3 758 -32 c 1
 734 79 570 445 465 574 c 1
 465 574 397 512 353 440 c 1
 324 292 295 143 266 -5 c 1
 180 -5 94 -5 8 -5 c 1
 95 442 181 888 268 1335 c 1
 354 1335 440 1335 526 1335 c 1
 496 1180 466 1026 436 871 c 1
 567 1016 954 1339 998 1376 c 1
 1052 1317 1106 1258 1160 1199 c 1
 952 1064 712 816 638 742 c 1
EndSplineSet
Validated: 1
EndChar
StartChar: L
Encoding: 76 76 35
Width: 1060
VWidth: 0
Flags: W
HStem: -3 210<376 919.823> 1305 20G<297 594>
AnchorPoint: "cedilla_accent" 489 0 basechar 0
AnchorPoint: "above_accent" 450 1322 basechar 0
LayerCount: 2
Fore
SplineSet
81 -3 m 1
 167 440 254 882 340 1325 c 1
 425 1325 509 1325 594 1325 c 1
 521 952 449 580 376 207 c 1
 519 207 661 207 804 207 c 1
 864 210 875 213 922 228 c 1
 933 162 945 97 956 31 c 1
 906 15 840 -3 765 -3 c 1
 537 -3 309 -3 81 -3 c 1
EndSplineSet
Validated: 1
EndChar
StartChar: M
Encoding: 77 77 36
Width: 1060
VWidth: 32
Flags: W
HStem: 0 21G<-13 256.5 626 873> 1303 20G<201 475 858.5 1128>
LayerCount: 2
Fore
SplineSet
244 1323 m 1
 312 1323 380 1323 448 1323 c 1
 502 1209 563 1020 589 834 c 1
 678 1016 805 1190 912 1323 c 1
 984 1323 1056 1323 1128 1323 c 1
 1051 925 873 0 873 0 c 1
 791 0 708 0 626 0 c 1
 664 199 702 397 740 596 c 1
 760 700 824 898 824 898 c 1
 737 775 630 588 612 551 c 1
 562 550 512 550 462 549 c 1
 462 549 412 817 380 898 c 1
 380 898 375 709 353 596 c 1
 314 397 276 199 237 0 c 1
 154 0 70 0 -13 0 c 1
 73 441 158 882 244 1323 c 1
EndSplineSet
Validated: 1
EndChar
StartChar: N
Encoding: 78 78 37
Width: 1060
VWidth: 0
Flags: W
HStem: 0 21G<-1 260 596 870> 1305 20G<215 293 862.5 924.5>
VStem: 616 249<0 224.453>
AnchorPoint: "cedilla_accent" 426 0 basechar 0
AnchorPoint: "above_accent" 660 1322 basechar 0
LayerCount: 2
Fore
SplineSet
616 0 m 1
 576 259 499 626 408 845 c 1
 391 753 373 662 356 570 c 1
 299 271 275 152 245 -3 c 1
 163 -3 81 -3 -1 -3 c 1
 85 440 172 882 258 1325 c 1
 328 1323 397 1320 467 1318 c 1
 556 1130 699 656 720 407 c 1
 735 530 741 657 765 778 c 0
 802 968 841 1155 884 1329 c 1
 965 1329 1047 1328 1128 1328 c 1
 1100 1213 1068 1061 1036 895 c 0
 991 664 944 405 899 170 c 0
 888 112 875 54 865 0 c 1
 782 0 699 0 616 0 c 1
EndSplineSet
Validated: 1
EndChar
StartChar: O
Encoding: 79 79 38
Width: 1060
VWidth: 0
Flags: W
HStem: -16 203<360.794 563.376> 1147 203<572.95 756.613>
VStem: 51 263<233.832 671.361> 800 258<593.11 1102.42>
AnchorPoint: "above_accent" 703 1322 basechar 0
LayerCount: 2
Fore
SplineSet
709 1350 m 1
 843 1350 1058 1299 1058 917 c 0
 1058 841 1049 752 1030 647 c 1
 1029 643 1029 640 1028 636 c 1
 996 469 933 312 867 217 c 0
 764 70 597 -16 432 -16 c 0
 310 -16 169 25 108 127 c 0
 68 193 51 274 51 367 c 0
 51 432 59 503 74 579 c 0
 143 931 233 1090 322 1187 c 0
 406 1279 552 1347 709 1350 c 1
471 187 m 0
 608 187 731 463 767 640 c 1
 768 646 770 651 771 657 c 1
 785 726 800 825 800 915 c 0
 800 1038 771 1147 669 1147 c 0
 530 1147 392 869 337 592 c 0
 324 527 314 458 314 396 c 0
 314 280 350 187 471 187 c 0
EndSplineSet
Validated: 1
EndChar
StartChar: P
Encoding: 80 80 39
Width: 1060
VWidth: 0
Flags: W
HStem: 0 21G<29 294.5> 439 208<405 679.196> 1117 211<489.156 795.426>
VStem: 824 268<797.824 1091.5>
LayerCount: 2
Fore
SplineSet
816 909 m 0
 822 937 824 962 824 983 c 0
 824 1114 728 1117 657 1117 c 0
 648 1117 l 1
 587 1117 542 1113 497 1112 c 1
 492 1088 488 1065 483 1041 c 1
 447 854 405 649 405 649 c 1
 441 648 476 647 509 647 c 0
 625 647 769 677 816 909 c 0
279 0 m 1
 196 0 112 0 29 0 c 1
 115 440 200 880 286 1320 c 1
 404 1320 443 1328 576 1328 c 0
 801 1328 969 1315 1057 1174 c 0
 1082 1134 1092 1084 1092 1030 c 0
 1092 996 1088 960 1081 924 c 0
 1018 600 862 439 518 439 c 0
 470 439 419 440 365 442 c 1
 313 174 310 159 279 0 c 1
EndSplineSet
Validated: 1
EndChar
StartChar: Q
Encoding: 81 81 40
Width: 1060
VWidth: 0
Flags: W
HStem: -183 216<723.495 866.312> -3 201<361.668 515.554> 319 217<388.871 526.938> 1115 216<523.468 734.339>
VStem: 75 246<319.609 729.938> 788 240<608.176 1062.41>
LayerCount: 2
Fore
SplineSet
779 -183 m 0xbc
 664 -183 518 -122 517 8 c 1
 486 0 465 -3 425 -3 c 0x7c
 309 -3 210 40 147 123 c 0
 98 189 75 286 75 404 c 0
 75 476 83 556 100 642 c 0
 141 853 208 1048 327 1173 c 0
 444 1295 550 1331 673 1331 c 0
 840 1331 943 1265 994 1121 c 0
 1019 1051 1028 981 1028 915 c 0
 1028 832 1014 756 1002 693 c 0
 960 473 871 216 718 116 c 1
 718 100 l 0
 718 41 735 34 809 33 c 1
 813 33 816 33 820 33 c 1
 857 33 882 38 907 44 c 1
 893 -30 879 -103 865 -177 c 1
 842 -182 824 -183 779 -183 c 0xbc
516 536 m 0
 631 536 676 477 694 404 c 1
 714 444 729 539 761 683 c 0
 763 691 763 698 765 706 c 0
 778 765 788 828 788 891 c 0
 788 928 784 965 774 1001 c 0
 754 1070 706 1115 634 1115 c 0
 505 1115 407 965 356 706 c 0
 352 686 347 663 343 640 c 0
 336 601 321 526 321 470 c 0
 321 454 322 440 325 428 c 1
 377 495 444 536 516 536 c 0
532 211 m 1
 532 211 533 214 533 215 c 0
 533 221 535 228 535 235 c 0
 535 271 518 319 460 319 c 0
 428 319 385 308 351 270 c 1
 356 218 415 198 453 198 c 0
 470 198 l 0
 489 198 513 202 532 211 c 1
EndSplineSet
Validated: 1
EndChar
StartChar: R
Encoding: 82 82 41
Width: 1060
VWidth: 0
Flags: W
HStem: 0 21G<15 276> 1124 205<468.453 748.793>
VStem: 813 269<812.323 1068.19>
AnchorPoint: "cedilla_accent" 454 0 basechar 0
AnchorPoint: "above_accent" 626 1322 basechar 0
LayerCount: 2
Fore
SplineSet
708 548 m 1
 762 424 853 273 896 207 c 1
 911 191 952 155 992 144 c 1
 941 81 889 19 838 -44 c 1
 782 -35 732 15 706 58 c 1
 630 167 515 434 478 530 c 1
 443 533 407 540 366 558 c 1
 330 372 294 186 258 0 c 1
 177 0 96 0 15 0 c 1
 89 379 162 757 236 1136 c 1
 249 1204 257 1252 265 1314 c 1
 308 1318 425 1329 486 1329 c 0
 736 1329 954 1321 1046 1168 c 0
 1070 1128 1082 1073 1082 1015 c 0
 1082 986 1079 957 1073 928 c 0
 1028 704 890 578 708 548 c 1
807 906 m 0
 811 927 813 945 813 962 c 0
 813 1087 710 1124 539 1124 c 0
 513 1124 505 1124 476 1123 c 1
 453 1005 430 886 407 768 c 1
 466 741 522 726 565 726 c 0
 573 726 l 1
 743 726 787 804 807 906 c 0
EndSplineSet
Validated: 1
EndChar
StartChar: S
Encoding: 83 83 42
Width: 1060
VWidth: 0
Flags: W
HStem: -9 209<334.844 620.656> 1118 210<489.142 842.193>
VStem: 23 269<240.962 420> 164 273<895.299 1064.55> 720 266<292.465 530.142>
AnchorPoint: "cedilla_accent" 396 0 basechar 0
AnchorPoint: "above_accent" 671 1322 basechar 0
LayerCount: 2
Fore
SplineSet
292 702 m 1xe8
 211 743 164 837 164 937 c 0
 164 960 167 983 172 1006 c 0
 220 1225 398 1328 653 1328 c 0
 662 1328 l 0
 902 1328 1045 1282 1123 1192 c 1
 1063 1128 1003 1064 943 1000 c 1
 862 1102 697 1118 627 1118 c 1
 577 1118 454 1082 441 1014 c 1
 438 1000 437 987 437 976 c 0xd8
 437 909 481 889 527 870 c 0
 641 822 710 813 830 752 c 1
 912 708 986 627 986 486 c 0
 986 458 983 429 977 396 c 0
 921 96 684 -9 444 -9 c 1
 438 -9 431 -9 425 -9 c 1
 130 -1 23 137 23 317 c 0
 23 351 27 386 34 422 c 1
 123 421 211 421 300 420 c 1
 295 394 292 370 292 349 c 0
 292 252 346 200 471 200 c 0
 550 200 687 236 716 382 c 0
 719 397 720 411 720 424 c 0
 720 506 667 552 605 582 c 0
 499 633 413 641 292 702 c 1xe8
EndSplineSet
Validated: 1
EndChar
StartChar: T
Encoding: 84 84 43
Width: 1060
VWidth: 0
Flags: W
HStem: 0 21G<280 576> 1118 207<218.551 497 750.247 1049.96 1050 1075.19>
AnchorPoint: "cedilla_accent" 394 0 basechar 0
AnchorPoint: "above_accent" 653 1322 basechar 0
LayerCount: 2
Fore
SplineSet
280 0 m 1
 352 373 425 745 497 1118 c 1
 299 1118 257 1117 181 1117 c 1
 194 1186 208 1255 221 1324 c 1
 343 1324 798 1325 986 1325 c 0
 1059 1325 1126 1316 1149 1309 c 1
 1116 1241 1083 1174 1050 1106 c 1
 1050 1106 1000 1118 940 1118 c 1
 879 1118 818 1118 757 1118 c 1
 685 745 612 373 540 0 c 1
 453 0 367 0 280 0 c 1
EndSplineSet
Validated: 1
EndChar
StartChar: U
Encoding: 85 85 44
Width: 1060
VWidth: 0
Flags: W
HStem: -10 210<365.969 579.128> 1329 1G<234.5 511 877 929.5>
VStem: 71 264<232.409 658.991> 888 248<1182.47 1323.27>
AnchorPoint: "above_accent" 673 1322 basechar 0
LayerCount: 2
Fore
SplineSet
888 1350 m 1
 971 1341 1053 1331 1136 1322 c 1
 1119 1272 1112 1237 1103 1195 c 0
 1101 1186 1100 1176 1098 1166 c 0
 1069 1018 1047 888 1025 775 c 1
 1021 755 1017 736 1013 716 c 1
 967 479 919 253 781 121 c 0
 680 24 545 -5 415 -10 c 1
 160 -10 71 106 71 315 c 0
 71 358 75 405 82 456 c 0
 92 533 114 657 141 795 c 0
 175 970 216 1168 253 1329 c 1
 339 1329 425 1329 511 1329 c 1
 474 1161 426 932 389 743 c 0
 379 693 370 645 362 602 c 0
 350 538 340 485 338 448 c 0
 337 423 335 395 335 366 c 0
 335 285 351 203 454 200 c 1
 656 209 703 431 758 718 c 0
 782 844 806 993 840 1166 c 0
 854 1238 866 1287 888 1350 c 1
EndSplineSet
Validated: 1
EndChar
StartChar: V
Encoding: 86 86 45
Width: 1060
VWidth: 0
Flags: W
HStem: 0 21G<293 623> 1335 20G<386 453.5 905 1015.5>
VStem: 175 253<1006.33 1270.21>
LayerCount: 2
Fore
SplineSet
293 0 m 1
 294 15 295 34 295 56 c 0
 295 322 221 1056 175 1266 c 1
 259 1296 344 1325 428 1355 c 1
 479 1098 488 707 513 331 c 1
 649 651 830 1095 980 1348 c 1
 1051 1322 1121 1295 1192 1269 c 1
 1048 1033 652 204 594 0 c 1
 494 0 393 0 293 0 c 1
EndSplineSet
Validated: 1
EndChar
StartChar: W
Encoding: 87 87 46
Width: 1060
VWidth: 0
Flags: W
HStem: 0 21G<79 323.5 547 827> 1299 20G<393.5 428 953 1026>
VStem: 192 242<952.303 1291.4>
AnchorPoint: "above_accent" 698 1322 basechar 0
LayerCount: 2
Back
SplineSet
332 0 m 5
 201 0 l 5
 158 170 52 1035 6 1286 c 5
 160 1318 l 5
 280 675 246 608 290 298 c 5
 360 528 429 886 435 957 c 5
 480 957 568 957 602 969 c 5
 638 778 686 485 744 300 c 5
 777 585 741 624 868 1315 c 5
 1023 1281 l 5
 971 1030 868 178 835 0 c 5
 699 0 l 5
 699 0 553 429 521 613 c 5
 474 388 340 22 332 0 c 5
EndSplineSet
Fore
SplineSet
320 0 m 1
 240 0 159 0 79 0 c 1
 79 22 l 0
 79 237 188 1043 192 1290 c 1
 273 1300 353 1309 434 1319 c 1
 422 1126 405 1050 396 986 c 0
 360 740 293 412 284 316 c 1
 284 316 520 916 540 988 c 1
 561 988 592 985 625 985 c 0
 664 985 707 989 739 1004 c 1
 726 786 726 319 726 319 c 1
 770 458 817 726 878 962 c 0
 895 1027 916 1132 990 1321 c 1
 1062 1308 1135 1296 1207 1283 c 1
 1105 1027 861 182 793 0 c 1
 711 0 629 0 547 0 c 1
 547 0 554 397 559 585 c 1
 467 355 327 12 320 0 c 1
EndSplineSet
Validated: 1
EndChar
StartChar: X
Encoding: 88 88 47
Width: 1060
VWidth: 0
Flags: W
HStem: -31 21G<708.5 801.5> 1347 29G<352 436.5 922 1013>
LayerCount: 2
Fore
SplineSet
985 1367 m 1
 1041 1328 1098 1290 1154 1251 c 1
 1002 1053 850 855 698 657 c 1
 816 385 844 233 959 93 c 1
 896 52 833 10 770 -31 c 1
 647 119 643 221 539 468 c 1
 408 294 276 120 145 -54 c 1
 83 -10 22 34 -40 78 c 1
 120 283 280 488 440 693 c 1
 360 901 290 1082 181 1241 c 1
 249 1286 318 1331 386 1376 c 1
 487 1227 537 1054 606 879 c 1
 732 1042 859 1204 985 1367 c 1
EndSplineSet
Validated: 1
EndChar
StartChar: Y
Encoding: 89 89 48
Width: 1060
VWidth: 0
Flags: W
HStem: 1342 20G<358 406.5 900 978.5>
AnchorPoint: "above_accent" 696 1322 basechar 0
LayerCount: 2
Fore
SplineSet
279 18 m 1
 379 215 466 395 566 592 c 1
 509 705 207 1114 177 1222 c 1
 249 1269 322 1315 394 1362 c 1
 419 1283 630 962 690 822 c 1
 774 1007 858 1191 942 1376 c 1
 1015 1344 1088 1312 1161 1280 c 1
 955 853 716 361 510 -66 c 1
 447 -45 354 -18 279 18 c 1
EndSplineSet
Validated: 1
EndChar
StartChar: Z
Encoding: 90 90 49
Width: 1060
VWidth: 0
Flags: W
HStem: 0 216<354 895.795> 1119 209<270 821>
AnchorPoint: "above_accent" 698 1322 basechar 0
LayerCount: 2
Fore
SplineSet
48 0 m 1
 33 49 19 99 4 148 c 1
 276 472 549 795 821 1119 c 1
 607 1119 345 1114 231 1114 c 1
 244 1184 257 1254 270 1324 c 1
 390 1324 813 1328 1001 1328 c 0
 1076 1328 1120 1315 1138 1312 c 1
 1138 1310 1138 1308 1137 1305 c 0
 1127 1267 1127 1159 1118 1126 c 0
 1117 1123 1116 1120 1116 1118 c 1
 862 818 608 517 354 217 c 1
 475 217 596 216 717 216 c 1
 802 216 830 221 899 242 c 1
 909 170 918 99 928 27 c 1
 880 11 809 0 734 0 c 0
 55 0 l 1
 53 0 50 0 48 0 c 1
EndSplineSet
Validated: 1
EndChar
StartChar: bracketleft
Encoding: 91 91 96
Width: 1060
VWidth: 66
Flags: W
HStem: -259 207<496 763.074> 1265 208<744.94 1045>
LayerCount: 2
Fore
SplineSet
1057 1483 m 1
 1053 1414 1049 1346 1045 1277 c 1
 962 1269 887 1269 753 1265 c 1
 667 825 582 385 496 -55 c 1
 574 -52 658 -52 673 -52 c 1
 676 -52 680 -52 683 -52 c 1
 733 -52 785 -57 795 -60 c 1
 784 -129 772 -199 761 -268 c 1
 737 -265 698 -259 627 -259 c 0
 568 -259 287 -261 194 -261 c 1
 229 -83 247 0 282 180 c 0
 299 270 322 391 356 570 c 0
 390 745 422 921 447 1052 c 1
 474 1192 502 1333 529 1473 c 1
 622 1473 901 1477 952 1477 c 1
 1025 1480 1034 1481 1057 1483 c 1
EndSplineSet
Validated: 1
EndChar
StartChar: backslash
Encoding: 92 92 115
Width: 1060
VWidth: 60
Flags: W
VStem: 256 582
LayerCount: 2
Fore
SplineSet
838 -64 m 1
 759 -88 679 -111 600 -135 c 1
 535 147 326 1034 256 1386 c 1
 335 1409 415 1431 494 1454 c 1
 560 1098 764 213 838 -64 c 1
EndSplineSet
Validated: 1
EndChar
StartChar: bracketright
Encoding: 93 93 97
Width: 1060
VWidth: 66
Flags: W
HStem: -259 207<73.2962 375> 1277 206<407.699 633>
LayerCount: 2
Fore
SplineSet
412 1483 m 1
 435 1481 444 1480 515 1477 c 1
 566 1477 844 1473 937 1473 c 1
 910 1333 882 1192 855 1052 c 1
 830 921 795 745 760 570 c 0
 725 391 699 270 682 180 c 0
 647 0 633 -83 598 -261 c 1
 505 -261 225 -259 166 -259 c 0
 95 -259 54 -265 28 -268 c 1
 43 -199 59 -129 74 -60 c 1
 86 -57 140 -52 190 -52 c 1
 193 -52 197 -52 200 -52 c 1
 215 -52 299 -52 375 -55 c 1
 461 385 547 825 633 1265 c 1
 501 1269 423 1269 344 1277 c 1
 367 1346 389 1414 412 1483 c 1
EndSplineSet
Validated: 1
EndChar
StartChar: asciicircum
Encoding: 94 94 116
Width: 1060
VWidth: -10
Flags: W
HStem: 424 677
LayerCount: 2
Fore
SplineSet
659 1101 m 1
 794 930 929 759 1064 588 c 1
 1003 533 941 479 880 424 c 1
 787 541 695 657 602 774 c 1
 466 659 329 543 193 428 c 1
 154 479 114 531 75 582 c 1
 270 755 464 928 659 1101 c 1
EndSplineSet
Validated: 1
EndChar
StartChar: underscore
Encoding: 95 95 117
Width: 1060
VWidth: 41
Flags: W
HStem: -334 213<-53 854.614>
LayerCount: 2
Fore
SplineSet
-53 -121 m 1
 262 -121 578 -121 893 -121 c 1
 879 -192 866 -263 852 -334 c 1
 535 -334 219 -334 -98 -334 c 1
 -83 -263 -68 -192 -53 -121 c 1
EndSplineSet
Validated: 1
EndChar
StartChar: grave
Encoding: 96 96 118
Width: 1060
VWidth: -25
Flags: W
HStem: 894 603
VStem: 360 679
LayerCount: 2
Fore
SplineSet
566 1497 m 1
 618 1383 952 1148 1039 1112 c 1
 896 894 l 1
 714 990 494 1137 360 1322 c 1
 566 1497 l 1
EndSplineSet
Validated: 1
EndChar
StartChar: a
Encoding: 97 97 0
Width: 1060
VWidth: 6
Flags: W
HStem: -31 21G<777.5 824.5> -11 200<255.5 514.68> 819 209<467.306 686.696>
VStem: 69 249<196.7 585.735> 700 186<79.3457 275>
AnchorPoint: "above_accent" 675 1107 basechar 0
LayerCount: 2
Back
SplineSet
379.618 317 m 0
 360.569 219 423.738 189 487.738 189 c 0
 597.738 189 699.564 291 728.45 347 c 1
 737.586 394 l 1
 709.75 436 648.358 470 584.358 470 c 0
 518.358 470 401 427 379.618 317 c 0
966.424 316 m 2
 948.541 224 957.434 172 1005.69 127 c 1
 863.724 -22 l 1
 819.499 18 787.637 29 759.633 101 c 1
 668.471 23 579.861 -11 397.861 -11 c 0
 226.861 -11 88.3252 120 123.703 302 c 0
 141.197 392 188.108 479 258.966 540 c 0
 372.82 637 481.234 670 623.234 670 c 0
 687.234 670 749.152 649 782.099 623 c 1
 814.366 789 704.392 820 644.392 820 c 0
 529.392 820 459 811 364.509 749 c 1
 225 913 l 1
 425 1037 514.24 1023.27 692.823 1028 c 1
 917.823 1028 1078.58 893 1032.32 655 c 0
 966.424 316 l 2
EndSplineSet
Fore
SplineSet
343 513 m 0x78
 325 423 318 358 318 311 c 0
 318 190 367 189 413 189 c 0
 523 189 641 375 670 431 c 1
 689 530 709 630 728 729 c 1
 700 771 641 819 577 819 c 0
 511 819 396 779 343 513 c 0x78
891 316 m 2
 888 299 886 283 886 267 c 0
 886 196 917 138 956 101 c 1
 903 57 851 13 798 -31 c 1xb8
 757 6 700 72 700 165 c 0
 700 172 700 178 701 185 c 1
 620 49 505 -11 323 -11 c 0
 188 -11 69 51 69 302 c 0
 69 368 78 448 96 543 c 0
 172 937 430 1028 576 1028 c 1
 657 1028 740 997 778 941 c 1
 785 969 791 997 798 1025 c 1
 1028 1013 l 0
 982 781 937 548 891 316 c 2
EndSplineSet
Validated: 1
EndChar
StartChar: b
Encoding: 98 98 1
Width: 1060
VWidth: -2
Flags: W
HStem: -7 180<418.839 598.206> 813 200<554.835 816.5> 1392 20G<501.5 540.5>
VStem: 294 249<1117.1 1403> 730 251<392.173 804.654>
LayerCount: 2
Back
SplineSet
780.914 478 m 0
 832.036 741 773.031 813 681.031 813 c 0
 609.031 813 533.453 738 489.762 683 c 1
 424.839 349 l 1
 456.012 247 512.628 173 573.628 173 c 0
 681.628 173 743.981 288 780.914 478 c 0
1032.22 459 m 0
 972.546 152 823.64 -7 572.64 -7 c 0
 448.64 -7 378.775 40 351.077 93 c 1
 342.913 51 286.473 -13 286.473 -13 c 1
 94.3604 7 l 1
 117.189 73 143.101 160 159.234 243 c 0
 160.789 251 162.345 259 163.899 267 c 0
 212.3 516 281.472 877 335.898 1157 c 0
 354.17 1251 362.498 1335 368.716 1403 c 1
 617.465 1412 l 1
 612.275 1339 598.615 1243 580.926 1152 c 0
 563.432 1062 546.741 1007 513.773 930 c 1
 556.217 958 640.907 1013 754.907 1013 c 0
 1026.91 1013 1104.53 831 1032.22 459 c 0
EndSplineSet
Fore
SplineSet
706 478 m 0
 723 563 730 629 730 678 c 0
 730 780 699 813 663 813 c 0
 525 813 444 690 393 570 c 1
 379 496 364 423 350 349 c 1
 381 247 438 173 499 173 c 0
 607 173 669 288 706 478 c 0
957 459 m 0
 897 152 749 -7 498 -7 c 0
 374 -7 304 40 276 93 c 1
 268 51 211 -13 211 -13 c 1
 147 -6 83 0 19 7 c 1
 42 73 66 161 84 243 c 0
 86 251 87 259 89 267 c 0
 144 514 207 877 261 1157 c 0
 279 1251 288 1335 294 1403 c 1
 377 1406 460 1409 543 1412 c 1
 538 1339 509 1169 491 1078 c 0
 474 988 432 903 399 826 c 1
 447 883 534 1013 744 1013 c 0
 889 1013 981 903 981 679 c 0
 981 615 973 542 957 459 c 0
EndSplineSet
Validated: 1
EndChar
StartChar: c
Encoding: 99 99 2
Width: 1060
VWidth: 4
Flags: W
HStem: -7 210<392.133 646.91> 807 211<495.435 797.893>
VStem: 77 264<251.475 618.581>
AnchorPoint: "above_accent" 676 1107 basechar 0
LayerCount: 2
Back
SplineSet
429.633 528 m 0
 367.625 209 534.459 203 581.459 203 c 2
 593.459 203 l 2
 693.459 203 760.288 269 824.033 350 c 1
 1023.99 216 l 1
 926.829 66 780.64 -7 562.64 -7 c 0
 458.64 -7 337.194 1 255.189 73 c 1
 144.822 174 134.757 328 173.438 527 c 0
 239.527 867 446.879 1018 761.879 1018 c 0
 856.879 1018 950.186 999 1005.02 957 c 0
 1057.25 917 1091.78 858 1103.67 806 c 1
 863.844 704 l 1
 861.23 742 842.865 807 702.865 807 c 0
 555.865 807 457.43 671 429.633 528 c 0
EndSplineSet
Fore
SplineSet
355 528 m 0
 345 479 341 437 341 402 c 0
 341 208 466 203 506 203 c 1
 510 203 514 203 518 203 c 1
 618 203 685 269 749 350 c 1
 816 305 882 261 949 216 c 1
 852 66 706 -7 488 -7 c 0
 384 -7 262 1 180 73 c 1
 107 140 77 230 77 342 c 0
 77 398 85 460 98 527 c 0
 164 867 372 1018 687 1018 c 0
 869 1018 985 960 1069 876 c 1
 1012 809 954 743 897 676 c 1
 877 720 768 807 628 807 c 0
 481 807 384 671 355 528 c 0
EndSplineSet
Validated: 1
EndChar
StartChar: d
Encoding: 100 100 3
Width: 1060
VWidth: -2
Flags: W
HStem: -7 180<312.151 482.234> 816 200<473.988 661.091> 1392 20G<852.5 905>
VStem: 44 252<181.698 559.236> 632 226<7.46552 174> 864 246<1242.2 1403>
LayerCount: 2
Back
SplineSet
440.914 478 m 4
 403.981 288 421.628 173 529.628 173 c 4
 590.628 173 675.012 247 745.839 349 c 5
 810.762 683 l 5
 788.453 738 742.031 813 670.031 813 c 4
 578.031 813 492.036 741 440.914 478 c 4
182.221 459 m 4
 256.279 840 411.907 1013 674.907 1013 c 4
 788.907 1013 851.217 958 882.773 930 c 5
 879.741 1007 884.432 1062 901.926 1152 c 4
 919.615 1243 943.275 1339 966.465 1412 c 5
 1212.72 1403 l 5
 1192.5 1335 1168.17 1251 1149.9 1157 c 4
 1095.47 877 1023.3 516 974.899 267 c 4
 973.345 259 971.789 251 970.234 243 c 4
 954.101 160 947.189 73 944.36 7 c 5
 744.473 -13 l 5
 744.473 -13 711.913 51 720.077 93 c 5
 671.775 40 583.64 -7 459.64 -7 c 4
 208.64 -7 122.546 152 182.221 459 c 4
EndSplineSet
Fore
SplineSet
318 478 m 0
 303 401 296 337 296 287 c 0
 296 214 333 173 363 173 c 1
 453 173 579 260 667 470 c 1
 681 541 695 612 709 683 c 1
 687 738 655 816 568 816 c 0
 514 816 369 741 318 478 c 0
59 459 m 0
 133 840 310 1016 573 1016 c 0
 687 1016 749 958 781 930 c 1
 780 944 780 957 780 970 c 0
 780 1028 786 1078 800 1152 c 0
 818 1243 841 1339 864 1412 c 1
 946 1409 1028 1406 1110 1403 c 1
 1090 1335 1066 1251 1048 1157 c 0
 994 877 928 514 873 267 c 0
 871 259 870 251 868 243 c 0
 860 209 858 172 858 136 c 0
 858 85 865 37 879 6 c 1
 807 1 736 -5 664 -10 c 1
 650 5 632 95 632 148 c 0
 632 158 633 167 634 174 c 1
 572 49 452 -7 328 -7 c 0
 178 -7 44 103 44 315 c 0
 44 359 49 407 59 459 c 0
EndSplineSet
Validated: 1
EndChar
StartChar: e
Encoding: 101 101 4
Width: 1060
VWidth: 32
Flags: W
HStem: -10 206<384.238 715.575> 818 203<490.842 711.12>
VStem: 88 255<237.586 336.479> 738 253<630.154 791.478>
AnchorPoint: "above_accent" 653 1107 basechar 0
LayerCount: 2
Back
SplineSet
453.795 606 m 1
 570.682 626 665.46 630 798.46 630 c 1
 818.924 761 758.003 818 670.003 818 c 0
 568.003 818 482.343 722 453.795 606 c 1
707.462 1021 m 0
 1026.46 1021 1095.03 813 1029.72 477 c 1
 1025.83 457 1020.36 434 1020.36 434 c 1
 734.584 430 518.862 416 412.975 396 c 1
 407.398 285 478.099 196 570.099 196 c 1
 676.099 196 731.097 232 813.48 306 c 1
 961.157 150 l 1
 838.387 38 763.057 -10 524.057 -10 c 1
 238.057 -10 117.459 203 178.3 516 c 0
 233.893 802 424.462 1021 707.462 1021 c 0
EndSplineSet
Fore
SplineSet
363 542 m 1
 497 558 658 600 687 624 c 0
 711 644 738 678 738 711 c 0
 738 762 703 818 595 818 c 0
 497 818 396 714 363 542 c 1
632 1021 m 0
 913 1021 991 852 991 717 c 0
 991 682 984 639 975 615 c 0
 913 450 740 379 343 332 c 1
 343 268 400 196 495 196 c 0
 601 196 715 223 813 295 c 1
 847 235 881 175 915 115 c 1
 745 25 688 -10 449 -10 c 1
 211 -10 88 137 88 366 c 0
 88 413 93 463 103 516 c 0
 158 802 349 1021 632 1021 c 0
EndSplineSet
Validated: 1
EndChar
StartChar: f
Encoding: 102 102 5
Width: 1060
VWidth: -2
Flags: W
HStem: 0 21G<167 450> 807 205<218.676 324 621 904.063> 1217 201<676.639 1055.8>
LayerCount: 2
Back
SplineSet
877.561 1217 m 0
 745.561 1217 720.177 1143 708.514 1083 c 0
 703.266 1056 695.713 1012 695.713 1012 c 1
 763.713 1012 806.713 1012 879.713 1012 c 1
 984.713 1012 1023.38 1000 1051.63 991 c 1
 969.338 794 l 1
 949.698 801 929.865 807 873.865 807 c 2
 654.865 807 l 1
 499 0 l 1
 242 0 l 1
 398.865 807 l 1
 255.865 807 l 1
 295.713 1012 l 1
 438.713 1012 l 1
 441.823 1028 445.127 1045 448.82 1064 c 0
 474.09 1194 583.631 1418 899.631 1418 c 0
 1095.63 1418 1216.47 1376 1264.34 1221 c 1
 1033.48 1124 l 1
 1023.42 1206 967.561 1217 877.561 1217 c 0
EndSplineSet
Fore
SplineSet
1041 1154 m 1
 969 1211 859 1217 803 1217 c 0
 671 1217 646 1143 634 1083 c 0
 629 1056 621 1012 621 1012 c 1
 793 1012 l 1
 898 1012 937 1000 965 991 c 1
 945 925 925 860 905 794 c 1
 885 801 866 807 810 807 c 1
 733 807 657 807 580 807 c 1
 528 538 476 269 424 0 c 1
 338 0 253 0 167 0 c 1
 219 269 272 538 324 807 c 1
 282 807 240 807 198 807 c 1
 205 875 213 944 220 1012 c 1
 268 1012 316 1012 364 1012 c 1
 367 1028 370 1045 374 1064 c 0
 400 1194 509 1418 825 1418 c 0
 911 1418 1059 1397 1151 1353 c 1
 1114 1287 1078 1220 1041 1154 c 1
EndSplineSet
Validated: 1
EndChar
StartChar: g
Encoding: 103 103 6
Width: 1060
VWidth: 14
Flags: W
HStem: -402 217<154.286 475.241> -8 219<293.111 449.577> 827 207<440.487 695.291>
VStem: 46 233<218.288 614.43>
AnchorPoint: "above_accent" 673 1107 basechar 0
LayerCount: 2
Back
SplineSet
505.234 -184 m 2
 567.234 -184 705.037 -149 724.087 -51 c 0
 732.057 -10 716.471 23 602.471 23 c 0
 335.276 22 l 1
 306.445 -8 300.225 -40 291.672 -84 c 0
 279.62 -146 346.234 -184 415.234 -184 c 2
 505.234 -184 l 2
786.12 726 m 0
 802.837 812 729.78 822 643.78 822 c 0
 555.78 822 480.949 792 466.371 717 c 0
 448.877 627 511.434 599 601.434 599 c 0
 719.434 599 771.542 651 786.12 726 c 0
1029.2 819 m 1
 1029.2 819 1045.92 797 1030.18 716 c 0
 995.966 540 864.558 399 584.558 399 c 2
 581.558 399 l 2
 506.558 399 449.918 406 437.085 412 c 1
 413.809 390 397.561 363 391.729 333 c 0
 384.926 298 393.541 224 499.541 224 c 0
 678.541 224 l 0
 831.541 224 1018.6 178 979.529 -23 c 0
 936.183 -246 693.358 -384 520.358 -384 c 3
 459.358 -384 447.358 -384 365.358 -384 c 0
 161.358 -384 23.0469 -293 64.8379 -78 c 0
 84.4707 23 131.883 92 194.019 139 c 1
 153.822 174 129.956 257 146.673 343 c 0
 166.305 444 214.635 492 259.604 533 c 1
 230.324 583 200.516 620 214.9 694 c 0
 260.579 929 440.435 1026 694.435 1026 c 0
 794.435 1026 887.713 1012 954.577 965 c 1
 1012.52 1011 1070.43 1026 1186.43 1026 c 1
 1146.78 822 l 1
 1135.17 824 1116.75 827 1106.75 827 c 0
 1072.75 827 1054.36 825 1029.2 819 c 1
EndSplineSet
Fore
SplineSet
279 346 m 0
 279 234 314 211 359 211 c 0
 457 211 718 504 748 601 c 1
 754 639 761 676 767 714 c 1
 737 752 667 827 563 827 c 0
 413 827 279 653 279 346 c 0
1075 1013 m 1
 1032 794 989 575 946 356 c 1
 870 -29 730 -402 334 -402 c 0
 219 -402 78 -360 -95 -257 c 1
 -62 -190 -29 -122 4 -55 c 1
 149 -156 262 -185 351 -185 c 0
 563 -185 644 110 682 233 c 1
 624 149 513 -8 301 -8 c 0
 146 -8 46 140 46 343 c 0
 46 732 271 1034 584 1034 c 0
 710 1034 777 981 825 948 c 1
 829 967 839 1003 845 1025 c 1
 922 1021 998 1017 1075 1013 c 1
EndSplineSet
Validated: 1
EndChar
StartChar: h
Encoding: 104 104 8
Width: 1060
VWidth: -2
Flags: W
HStem: -11 11G<13 271.5 718 772.5> 796 217<583.716 735.453> 1391 20G<478.5 517.5>
VStem: 270 250<1121.6 1402> 651 258<72.8385 384.731> 741 251<411.625 794.784>
AnchorPoint: "above_accent" 386 1400 basechar 0
LayerCount: 2
Back
SplineSet
1052.02 566 m 1
 984.375 218 l 0
 968.436 136 975.772 76 993.775 40 c 1
 752.225 -40 l 1
 735.445 -8 708.829 66 730.211 176 c 0
 791.44 491 l 1
 851.504 800 758.031 813 666.031 813 c 0
 589.031 813 509.258 737 465.567 682 c 1
 333 0 l 1
 88 0 l 1
 312.704 1156 l 0
 330.976 1250 338.304 1334 344.521 1402 c 1
 594.271 1411 l 1
 589.081 1338 575.42 1242 557.731 1151 c 0
 540.237 1061 523.547 1006 490.579 929 c 1
 533.021 957 619.907 1013 738.907 1013 c 0
 988.907 1013 1114.61 888 1052.02 566 c 1
EndSplineSet
Fore
SplineSet
977 566 m 1xf4
 957 463 937 359 917 256 c 0
 912 230 909 208 909 190 c 0
 909 152 921 128 950 97 c 1
 879 54 808 11 737 -32 c 1
 699 -5 651 48 651 131 c 0xf8
 651 145 652 160 655 176 c 0
 675 281 696 386 716 491 c 1
 734 586 741 651 741 696 c 0
 741 794 708 796 683 796 c 0
 680 796 l 0
 575 796 392 571 339 418 c 1
 312 279 285 139 258 0 c 1
 176 0 95 0 13 0 c 1
 88 385 164 770 238 1156 c 0
 256 1250 264 1334 270 1402 c 1
 353 1405 437 1408 520 1411 c 1
 515 1338 479 1133 461 1042 c 0
 444 952 380 843 347 766 c 1
 389 794 518 1013 740 1013 c 0
 872 1013 992 926 992 711 c 0
 992 668 988 620 977 566 c 1xf4
EndSplineSet
Validated: 1
EndChar
StartChar: i
Encoding: 105 105 9
Width: 1060
VWidth: 0
Flags: W
HStem: -18 200<494 844.134> 1019 20G<453.5 522.5> 1181 225<527 775>
VStem: 321 272<123 385.182>
LayerCount: 2
Back
SplineSet
329 1406 m 5
 620 1406 l 5
 620 1181 l 5
 329 1181 l 5
 329 1406 l 5
EndSplineSet
Refer: 177 305 N 1 0 0 1 0 0 2
Fore
SplineSet
527 1406 m 1
 818 1406 l 1
 775 1181 l 1
 484 1181 l 1
 527 1406 l 1
EndSplineSet
Refer: 177 305 N 1 0 0 1 0 0 2
Validated: 1
EndChar
StartChar: j
Encoding: 106 106 10
Width: 1060
VWidth: 0
Flags: W
HStem: -389 201<240.358 456.515> -28 20G<125 186> 834 179<443.258 651.491> 1181 225<744 992>
VStem: 660 254<536.101 824.726>
LayerCount: 2
Back
SplineSet
546 1406 m 1
 837 1406 l 1
 837 1181 l 1
 546 1181 l 1
 546 1406 l 1
EndSplineSet
Refer: 332 567 N 1 0 0 1 0 0 2
Fore
SplineSet
744 1406 m 1
 1035 1406 l 1
 992 1181 l 1
 701 1181 l 1
 744 1406 l 1
EndSplineSet
Refer: 332 567 N 1 0 0 1 0 0 2
Validated: 1
EndChar
StartChar: k
Encoding: 107 107 11
Width: 1060
VWidth: -2
Flags: W
HStem: 0 21G<59 330 752 826.5> 813 204<571.989 752.293> 1407 20G<515 558.5>
VStem: 308 258<1105.37 1385.1> 757 253<625.47 880.135>
AnchorPoint: "cedilla_accent" 474 0 basechar 0
AnchorPoint: "above_accent" 432 1400 basechar 0
LayerCount: 2
Back
SplineSet
694.045 597 m 0
 784.045 597 806.708 657 820.897 730 c 0
 827.896 766 819.031 813 762.031 813 c 0
 689.031 813 516.15 685 516.15 685 c 1
 504.682 626 l 1
 520.099 623 655.045 597 694.045 597 c 0
383 0 m 1
 134 0 l 1
 372.699 1228 l 2
 384.557 1289 384.858 1342 379.828 1383 c 1
 632.381 1427 l 1
 636.91 1404 647.163 1359 634.334 1293 c 2
 590.987 1070 l 1
 579.713 1012 556.467 949 527.165 896 c 1
 527.165 896 667.685 1017 810.685 1017 c 0
 1010.68 1017 1114.58 929 1076.67 734 c 0
 1052.77 611 1009.44 527 852.026 458 c 1
 948.028 422 962.645 348 974.04 242 c 0
 978.487 198 1021.29 161 1049.63 137 c 1
 825.752 -27 l 1
 705.471 23 692.075 129 680.567 255 c 0
 667.586 394 481.363 398 462.363 398 c 0
 460.363 398 l 1
 383 0 l 1
EndSplineSet
Fore
SplineSet
456 429 m 1
 468 447 558 597 568 608 c 1
 595 599 618 594 639 594 c 0
 702 594 739 637 756 726 c 0
 757 731 757 736 757 741 c 0
 757 775 737 813 687 813 c 0
 614 813 441 685 441 685 c 1
 397 457 352 228 308 0 c 1
 225 -0 142 0 59 0 c 1
 139 409 218 819 298 1228 c 1
 305 1265 308 1299 308 1329 c 0
 308 1349 307 1367 305 1383 c 1
 389 1398 473 1412 557 1427 c 1
 560 1412 566 1388 566 1354 c 0
 566 1336 564 1316 560 1293 c 1
 545 1219 531 1144 516 1070 c 1
 505 1012 481 949 452 896 c 1
 452 896 593 1017 736 1017 c 0
 909 1017 1010 951 1010 808 c 0
 1010 785 1007 761 1002 734 c 0
 968 552 884 452 752 434 c 1
 851 278 908 222 1010 136 c 1
 937 81 863 25 790 -30 c 1
 714 42 577 233 456 429 c 1
EndSplineSet
Validated: 1
Substitution2: "'ss01' Style Set 1 - No loop k-1" k.noloop
EndChar
StartChar: l
Encoding: 108 108 12
Width: 1060
VWidth: -2
Flags: W
HStem: -18 215<491.285 818.08> 1422 20G<359 434.5>
VStem: 186 265<236.501 559.992>
AnchorPoint: "cedilla_accent" 517 0 basechar 0
AnchorPoint: "above_accent" 494 1400 basechar 0
LayerCount: 2
Back
SplineSet
632.964 1430 m 2
 886.964 1430 l 1
 833.898 1157 664.26 274 664.26 274 c 1
 651.82 210 662.377 182 754.377 182 c 0
 847.377 182 913.792 215 985.065 273 c 1
 1045.13 83 l 1
 945.333 12 788.501 -18 664.501 -18 c 0
 579.501 -18 491.223 -4 451.888 20 c 0
 376.023 67 383.574 147 395.042 206 c 1
 439.167 433 485.013 674 529.137 901 c 0
 551.296 1015 572.872 1126 594.088 1230 c 1
 584.088 1230 570.088 1230 554.088 1230 c 0
 497.088 1230 411.699 1228 333.395 1211 c 1
 340.549 1397 l 1
 439.992 1425 552.964 1430 632.964 1430 c 2
EndSplineSet
Fore
SplineSet
648 1422 m 9
 585 1093 522 764 459 435 c 1
 454 405 451 378 451 354 c 0
 451 247 505 197 624 197 c 0
 717 197 820 232 899 284 c 1
 923 217 946 150 970 83 c 1
 870 12 722 -18 598 -18 c 0
 338 -18 186 113 186 288 c 0
 186 317 189 347 195 379 c 1
 261 733 326 1088 392 1442 c 25
 477 1435 563 1429 648 1422 c 9
EndSplineSet
Validated: 1
EndChar
StartChar: m
Encoding: 109 109 13
Width: 1060
VWidth: 4
Flags: W
HStem: -11 11G<-55 188.5 495.5 553 841 892> 813 207<407.866 547.998 800 810.994> 1024 20G<294.5 334.5>
VStem: 698 226<143.597 418.375> 811 224<561.67 906.669>
LayerCount: 2
Back
SplineSet
945.78 -32 m 5
 877.501 -18 740.276 22 780.318 228 c 6
 780.707 230 l 5
 883.535 759 l 21
 889.698 801 886.031 813 856.031 813 c 5
 834.031 813 751.514 656 726.628 600 c 5
 608 0 l 5
 383.194 1 l 1
 530.924 761 l 1
 538.115 798 539.031 813 513.031 813 c 1
 489.031 813 404.982 715 362.378 609 c 5
 244 0 l 5
 20 0 l 1
 173.893 802 l 2
 191.971 895 184.579 929 177.104 978 c 1
 407.933 1044 l 1
 416.713 1012 408.272 948 408.08 911 c 1
 444.467 949 521.268 1020 610.268 1020 c 0
 720.268 1020 742.247 917 737.445 846 c 1
 795.385 928 875.268 1020 966.268 1020 c 6
 974.268 1020 l 6
 1098.27 1020 1127.25 881 1099.65 739 c 6
 999.93 226 l 6
 990.017 175 1033.38 146 1071.27 130 c 5
 945.78 -32 l 5
EndSplineSet
Fore
SplineSet
871 -32 m 1xf0
 811 -20 698 12 698 159 c 0xf0
 698 180 700 203 705 228 c 1
 705 229 706 229 706 230 c 1
 740 406 775 583 809 759 c 17
 811 769 811 778 811 785 c 0
 811 806 803 813 781 813 c 1
 759 813 677 656 652 600 c 1
 612 400 573 200 533 0 c 1
 458 0 383 1 308 1 c 1
 357 254 407 508 456 761 c 1
 459 774 460 785 460 793 c 0
 460 807 455 813 438 813 c 1
 414 813 330 715 287 609 c 1
 248 406 208 203 169 0 c 1
 94 0 20 0 -55 0 c 1
 -4 267 48 535 99 802 c 1
 107 844 110 874 110 899 c 0
 110 929 106 951 102 978 c 1
 179 1000 256 1022 333 1044 c 1
 336 1033 337 1020 337 1004 c 0
 337 973 333 936 333 911 c 1
 369 949 446 1020 535 1020 c 0
 636 1020 663 934 663 865 c 0
 663 859 662 852 662 846 c 1
 720 928 800 1020 891 1020 c 1
 894 1020 896 1020 899 1020 c 1
 995 1020 1035 937 1035 833 c 0xe8
 1035 803 1031 771 1025 739 c 1
 992 568 958 397 925 226 c 1
 924 221 924 216 924 211 c 0
 924 169 962 144 996 130 c 1
 954 76 913 22 871 -32 c 1xf0
EndSplineSet
Validated: 1
EndChar
StartChar: n
Encoding: 110 110 15
Width: 1060
VWidth: 6
Flags: W
HStem: 0 21G<25 292.5> 819 207<613.407 868> 1032 20G<389 429.5>
VStem: 192 239<822.06 1017.4> 650 265<115.569 423.505> 756 268<601.9 914.5>
AnchorPoint: "cedilla_accent" 452 0 basechar 0
AnchorPoint: "above_accent" 655 1107 basechar 0
LayerCount: 2
Back
SplineSet
518.19 927 m 5
 583.909 977 727.435 1026 837.435 1026 c 4
 1001.43 1026 1124.61 960 1092.73 796 c 6
 992.038 278 l 6
 979.209 212 1024.93 190 1075.1 160 c 5
 920.225 -40 l 5
 831.057 -10 699.44 64 730.152 222 c 6
 822.872 699 l 6
 837.256 773 831.197 819 764.197 819 c 4
 701.197 819 587.811 781 488.427 707 c 5
 351 0 l 5
 100 0 l 5
 237.232 706 l 6
 271.832 884 268.886 910 263.158 1004 c 5
 504.488 1052 l 5
 509.823 1028 520.715 976 518.19 927 c 5
EndSplineSet
Fore
SplineSet
423 821 m 1xf4
 522 935 604 1026 806 1026 c 0
 930 1026 1024 976 1024 853 c 0xf4
 1024 836 1022 816 1018 796 c 1
 984 623 951 451 917 278 c 1
 915 270 915 264 915 257 c 0
 915 207 956 187 1000 160 c 1
 948 93 897 27 845 -40 c 1
 765 -13 650 49 650 176 c 0xf8
 650 190 652 206 655 222 c 1
 686 381 717 540 748 699 c 1
 753 724 756 746 756 764 c 0
 756 799 745 819 716 819 c 0
 610 819 449 622 375 504 c 1
 342 336 309 168 276 0 c 1
 192 0 109 0 25 0 c 1
 71 235 116 471 162 706 c 1
 185 824 192 876 192 924 c 0
 192 949 190 972 188 1004 c 1
 268 1020 349 1036 429 1052 c 1
 430 1047 431 1034 431 1017 c 0
 431 961 425 859 423 821 c 1xf4
EndSplineSet
Validated: 1
EndChar
StartChar: o
Encoding: 111 111 14
Width: 1060
VWidth: 6
Flags: W
HStem: -6 203<374.176 589.924> 830 202<479.876 701.14>
VStem: 72 260<238.301 581.159> 729 258<424.209 804.393>
AnchorPoint: "above_accent" 654 1107 basechar 0
LayerCount: 2
Back
SplineSet
673.012 247 m 5
 730.12 299 763.335 403 788.021 530 c 4
 789.188 536 789.966 540 791.132 546 c 4
 819.649 703 809.336 830 681.336 830 c 4
 530.336 830 458.122 690 417.691 482 c 4
 385.424 316 425.293 197 546.293 197 c 5
 601.487 198 630.015 211 673.012 247 c 5
505.834 -6 m 5
 195.834 -6 107.766 184 162.192 464 c 4
 234.308 835 413.601 1032 705.601 1032 c 4
 902.601 1032 999.188 963 1043.53 831 c 4
 1069.17 752 1065.21 639 1046.55 543 c 4
 991.15 258 843.834 -6 507.834 -6 c 6
 505.834 -6 l 5
EndSplineSet
Fore
SplineSet
598 247 m 1
 655 299 690 403 713 530 c 0
 714 536 715 540 716 546 c 0
 724 591 729 633 729 671 c 0
 729 765 698 830 606 830 c 0
 455 830 383 690 343 482 c 0
 336 445 332 410 332 379 c 0
 332 269 377 197 471 197 c 1
 526 198 555 211 598 247 c 1
431 -6 m 1
 177 -6 72 121 72 321 c 0
 72 365 77 413 87 464 c 0
 159 835 339 1032 631 1032 c 0
 828 1032 925 963 969 831 c 0
 982 792 987 745 987 695 c 0
 987 644 982 592 972 543 c 0
 915 258 769 -6 433 -6 c 1
 432 -6 432 -6 431 -6 c 1
EndSplineSet
Validated: 1
EndChar
StartChar: p
Encoding: 112 112 7
Width: 1060
VWidth: -2
Flags: W
HStem: -8 201<373.967 590.666> 811 202<568.744 839>
VStem: -48 249<-398 -118.344> 191 234<834.691 1000.97> 732 258<447.605 808.288>
LayerCount: 2
Back
SplineSet
784.216 531 m 0xd0
 821.731 724 801.643 811 713.643 811 c 0
 584.643 811 527.619 744 465.514 656 c 1
 400.452 311 l 1
 427.178 253 469.516 193 544.516 193 c 0
 659.516 193 732.316 264 784.216 531 c 0xd0
237.647 739 m 1
 242.701 765 l 2
 258.835 848 262.968 931 265.603 996 c 1
 498.656 1022 l 1xb0
 502.991 998 502.605 960 499.024 921 c 1
 567.076 983 656.519 1011 768.519 1011 c 0
 1043.52 1011 1096.2 819 1044.1 551 c 0
 978.792 215 862.445 -8 500.445 -8 c 0
 400.445 -8 360.637 29 337.663 60 c 1
 333.888 20 333.695 -17 328.143 -61 c 1
 310.454 -152 l 2
 292.183 -246 282.854 -330 276.637 -398 c 1
 27.2764 -405 l 1
 32.4658 -332 45.9316 -237 63.6201 -146 c 2
 237.647 739 l 1
EndSplineSet
Fore
SplineSet
709 531 m 0xc8
 724 609 732 669 732 714 c 0
 732 780 715 811 677 811 c 0
 548 811 410 604 357 484 c 1
 346 426 336 369 325 311 c 1
 352 253 395 193 470 193 c 0
 585 193 657 264 709 531 c 0xc8
163 739 m 1
 165 748 166 756 168 765 c 1
 184 848 188 931 191 996 c 1
 269 1005 346 1013 424 1022 c 1
 424 1020 425 1015 425 1011 c 0
 425 972 411 868 407 833 c 1
 455 916 584 1013 752 1013 c 0
 926 1013 990 906 990 740 c 0
 990 683 982 619 969 551 c 0
 904 215 787 -8 425 -8 c 0xd8
 325 -8 286 29 263 60 c 1
 259 20 259 -17 253 -61 c 1
 247 -91 241 -122 235 -152 c 1
 217 -246 207 -330 201 -398 c 1
 118 -400 35 -403 -48 -405 c 1xe8
 -43 -332 -29 -237 -11 -146 c 1
 47 149 105 444 163 739 c 1
EndSplineSet
Validated: 1
EndChar
StartChar: q
Encoding: 113 113 16
Width: 1060
VWidth: -2
Flags: W
HStem: -10 201<344.43 493.922> 811 200<448.71 667.976> 1002 20G<826 870>
VStem: 77 254<195.161 613.072> 572 248<-351.391 84.8592>
LayerCount: 2
Back
SplineSet
431.216 531 m 0xd0
 379.316 264 424.516 193 539.516 193 c 0
 614.516 193 681.178 253 730.452 311 c 1
 798.514 656 l 1
 770.619 744 740.643 811 611.643 811 c 0
 523.643 811 468.731 724 431.216 531 c 0xd0
1059.65 739 m 1
 888.62 -146 l 2
 882.983 -175 l 0
 866.461 -260 848.412 -358 856.608 -393 c 1
 614.777 -423 l 1
 605.885 -371 622.183 -246 640.454 -152 c 2
 658.143 -61 l 1
 669.695 -17 682.888 20 694.663 60 c 1
 659.637 29 605.445 -8 505.445 -8 c 0
 143.445 -8 113.792 215 179.104 551 c 0
 231.197 819 359.519 1011 634.519 1011 c 0xd0
 746.519 1011 825.076 983 869.024 921 c 1
 880.605 960 893.991 998 907.656 1022 c 1xb0
 1130.6 996 l 1
 1107.97 931 1080.83 848 1064.7 765 c 2
 1059.65 739 l 1
EndSplineSet
Fore
SplineSet
356 531 m 0xd8
 338 441 331 373 331 322 c 0
 331 223 359 191 390 191 c 0
 495 191 625 350 695 516 c 1
 705 563 714 609 724 656 c 1
 696 744 666 811 537 811 c 0
 449 811 394 724 356 531 c 0xd8
985 739 m 1
 934 475 883 210 832 -54 c 1
 824 -96 820 -131 820 -160 c 0
 820 -235 843 -273 859 -311 c 0
 863 -320 867 -327 870 -332 c 1
 799 -372 729 -413 658 -453 c 1
 611 -384 572 -300 572 -179 c 0
 572 -139 576 -94 586 -45 c 1
 598 -1 615 88 627 128 c 1
 592 97 475 -10 356 -10 c 0
 152 -10 77 110 77 307 c 0
 77 379 87 461 104 551 c 0
 155 819 285 1011 560 1011 c 0xd8
 672 1011 750 983 794 921 c 1
 806 960 819 998 833 1022 c 1xb8
 907 1013 982 1005 1056 996 c 1
 1033 931 1006 848 990 765 c 1
 988 756 987 748 985 739 c 1
EndSplineSet
Validated: 1
EndChar
StartChar: r
Encoding: 114 114 17
Width: 1060
VWidth: 4
Flags: W
HStem: -18 21G<138 399.5> 808 212<753.068 937.5> 1024 20G<351.5 407.5>
VStem: 841 250<689.229 878.5>
AnchorPoint: "cedilla_accent" 263 0 basechar 0
AnchorPoint: "above_accent" 675 1107 basechar 0
LayerCount: 2
Back
SplineSet
571.944 864 m 5
 665.994 962 781.268 1020 942.268 1020 c 4
 1109.27 1020 1194.44 918 1157.51 728 c 4
 1151.68 698 l 5
 899.289 696 l 5
 902.427 707 906.537 723 909.842 740 c 4
 917.033 777 915.003 818 859.003 818 c 5
 803.003 818 708.813 745 576.853 560 c 5
 464.501 -18 l 5
 212.501 -18 l 5
 352.844 704 l 6
 363.924 761 324.088 803 272.778 858 c 5
 456.933 1044 l 5
 508.408 995 557.966 967 571.944 864 c 5
EndSplineSet
Fore
SplineSet
514 750 m 1
 592 870 706 1020 867 1020 c 0
 1008 1020 1091 947 1091 810 c 0
 1091 785 1091 748 1085 719 c 0
 1083 709 1081 699 1079 689 c 1
 995 688 910 688 826 687 c 1
 829 700 841 738 841 768 c 0
 841 790 835 808 814 808 c 0
 758 808 537 520 447 276 c 1
 428 178 409 80 390 -18 c 1
 306 -18 222 -18 138 -18 c 1
 185 223 231 463 278 704 c 1
 279 710 280 717 280 723 c 0
 280 771 243 809 198 858 c 1
 259 920 321 982 382 1044 c 1
 433 995 514 952 514 750 c 1
EndSplineSet
Validated: 1
EndChar
StartChar: s
Encoding: 115 115 18
Width: 1060
VWidth: 6
Flags: W
HStem: -20 202<345.641 616.059> 829 200<479.05 892.499>
VStem: 75 256<199.357 330> 213 254<701.61 814.437> 661 256<227.481 410.738>
AnchorPoint: "cedilla_accent" 390 0 basechar 0
AnchorPoint: "above_accent" 670 1107 basechar 0
LayerCount: 2
Back
SplineSet
385.715 549 m 4
 311.49 589 272.234 670 293.811 781 c 4
 329.966 967 532.018 1029 707.018 1029 c 4
 846.018 1029 996.102 1014 1083.58 893 c 5
 874.897 730 l 5
 832.172 788 767.142 829 671.142 829 c 4
 589.142 829 552.865 807 545.284 768 c 4
 539.647 739 541.76 719 566.261 701 c 5
 802.045 597 1039.24 562 984.038 278 c 4
 952.548 116 791.442 28 679 0 c 5
 620.473 -13 559.112 -20 502.112 -20 c 4
 246.112 -20 116.354 115 158.146 330 c 5
 411.146 330 l 5
 390.152 222 430.377 182 539.377 182 c 4
 598.377 182 715.265 202 732.37 290 c 4
 743.839 349 729.253 382 686.668 415 c 5
 626.221 459 469.968 504 385.715 549 c 4
EndSplineSet
Fore
SplineSet
311 549 m 0xe8
 251 582 213 641 213 722 c 0
 213 740 215 760 219 781 c 0
 255 967 457 1029 632 1029 c 0
 771 1029 888 1013 1026 947 c 1
 987 884 947 820 908 757 c 1
 828 809 692 829 596 829 c 0
 514 829 478 807 470 768 c 0
 468 759 467 752 467 745 c 0xd8
 467 728 473 714 491 701 c 1
 704 607 917 569 917 355 c 0
 917 331 914 306 909 278 c 0
 879 116 716 28 604 0 c 1
 545 -13 484 -20 427 -20 c 0
 203 -20 75 84 75 254 c 0
 75 278 78 303 83 330 c 1
 167 330 252 330 336 330 c 1
 332 312 331 296 331 281 c 0
 331 210 374 182 464 182 c 0
 523 182 642 202 657 290 c 0
 659 303 661 315 661 326 c 0
 661 364 645 389 612 415 c 1
 552 459 395 504 311 549 c 0xe8
EndSplineSet
Validated: 1
EndChar
StartChar: t
Encoding: 116 116 19
Width: 1060
VWidth: 0
Flags: W
HStem: -6 202<467.117 740.203> 805 204<521 948>
VStem: 177 254<229.428 472.672>
AnchorPoint: "cedilla_accent" 469 0 basechar 0
AnchorPoint: "above_accent" 669 1275 basechar 0
LayerCount: 2
Back
SplineSet
514.75 436 m 1
 506.975 396 l 2
 480.928 262 510.598 214 591.876 200 c 0
 609.487 198 643.099 196 656.099 196 c 0
 721.099 196 753.82 210 781.541 224 c 0
 838.983 252 863.202 320 874.089 340 c 1
 1062.65 240 l 1
 1047.21 212 971.438 100 846.998 36 c 0
 782.389 2 703.834 -6 618.834 -6 c 0
 434.834 -6 291.11 16 248.878 164 c 0
 227.874 236 238.646 312 255.363 398 c 2
 263.527 440 l 1
 283.021 530 306.598 641 343.477 805 c 1
 329.477 805 l 2
 301.477 805 272.698 801 245.144 793 c 1
 267.797 997 l 1
 293.353 1005 339.13 1009 372.13 1009 c 2
 387.13 1009 l 1
 400.736 1079 421.369 1180 434.976 1250 c 1
 684.809 1244 l 1
 671.98 1178 652.125 1081 637.907 1013 c 1
 746.907 1013 1058.13 1009 1066.13 1009 c 1
 1023.48 805 l 1
 886.477 805 728.865 807 595.865 807 c 1
 557.598 641 538.188 536 514.75 436 c 1
EndSplineSet
Fore
SplineSet
443 1244 m 1025
977 145 m 0
 912 111 751 -6 544 -6 c 0
 272 -6 177 147 177 327 c 0
 177 365 181 405 189 444 c 1
 192 458 195 472 198 486 c 1
 217 576 231 641 268 805 c 1
 263 805 259 805 254 805 c 1
 226 805 198 801 170 793 c 1
 178 861 185 929 193 997 c 1
 219 1005 264 1009 297 1009 c 1
 302 1009 307 1009 312 1009 c 1
 326 1079 346 1180 360 1250 c 1
 443 1248 527 1246 610 1244 c 1
 597 1178 577 1081 563 1013 c 1
 672 1013 983 1009 991 1009 c 1
 977 941 962 873 948 805 c 1
 811 805 654 807 521 807 c 1
 483 641 472 582 449 482 c 1
 446 469 444 455 441 442 c 1
 434 407 431 376 431 349 c 0
 431 243 482 196 581 196 c 0
 739 196 819 300 847 335 c 1
 850 335 977 145 977 145 c 0
EndSplineSet
Validated: 1
EndChar
StartChar: u
Encoding: 117 117 20
Width: 1060
VWidth: 6
Flags: W
HStem: -17 21G<786 844.5> 2 213<316.264 455.141> 1000 13G<392 435 779 1040>
VStem: 46 267<215.184 439.6> 177 258<702.308 991.764>
AnchorPoint: "above_accent" 623 1107 basechar 0
LayerCount: 2
Back
SplineSet
889.695 -17 m 5xa0
 831.333 12 798.274 58 786.993 108 c 5
 697.025 31 576.972 5 426.389 2 c 5
 417.389 2 l 6
 265.389 2 89.3018 53 123.513 229 c 4
 139.452 311 159.308 408 177.968 504 c 4
 219.954 720 258.746 935 250.825 992 c 5
 510.268 1020 l 5
 514.385 928 457.068 664 387.926 298 c 5
 386.902 231 401.042 206 486.042 206 c 5x60
 639.403 213 723.564 291 748.251 418 c 5
 863.907 1013 l 5
 1114.91 1013 l 5
 977.48 306 l 5
 969.373 254 1021.35 187 1068.27 166 c 5
 889.695 -17 l 5xa0
EndSplineSet
Fore
SplineSet
815 -17 m 1xb0
 757 12 712 51 680 233 c 1
 602 123 502 5 351 2 c 1
 348 2 345 2 342 2 c 1
 206 2 46 20 46 187 c 0x70
 46 206 48 228 53 251 c 0
 70 333 84 408 103 504 c 0
 141 701 177 897 177 973 c 0
 177 980 177 987 176 992 c 1
 262 1001 349 1011 435 1020 c 1
 435 1010 l 0x68
 435 910 380 652 313 298 c 1
 313 295 l 0
 313 230 320 215 365 215 c 1x70
 489 215 703 570 728 697 c 1
 748 802 769 908 789 1013 c 1
 873 1013 956 1013 1040 1013 c 1
 994 777 948 542 902 306 c 1
 901 302 901 299 901 295 c 0
 901 245 949 186 993 166 c 1
 934 105 874 44 815 -17 c 1xb0
EndSplineSet
Validated: 1
EndChar
StartChar: v
Encoding: 118 118 21
Width: 1060
VWidth: 6
Flags: W
HStem: -8 21G<269.5 369> 993 20G<806.5 1060>
VStem: 809 251<792.355 1013>
LayerCount: 2
Back
SplineSet
425.153 1076 m 1
 540.144 793 568.745 508 586.789 251 c 1
 738.586 394 801.378 609 847.614 816 c 0
 852.308 835 857.167 860 862.026 885 c 0
 870.968 931 879.299 979 883.907 1013 c 1
 1134.91 1013 l 1
 1134.8 997 1115.05 880 1103.78 822 c 0
 1042.16 505 881.209 212 670.829 66 c 0
 588.749 9 548.445 -8 340.445 -8 c 1
 390.595 250 278.312 763 187.884 946 c 1
 425.153 1076 l 1
EndSplineSet
Fore
SplineSet
350 1076 m 1
 465 793 494 508 512 251 c 1
 664 394 723 610 773 816 c 0
 778 835 782 860 787 885 c 0
 796 931 804 979 809 1013 c 1
 893 1013 976 1013 1060 1013 c 1
 1060 997 1040 880 1029 822 c 0
 968 505 806 212 596 66 c 0
 514 9 473 -8 265 -8 c 1
 274 36 277 88 277 144 c 0
 277 416 188 794 113 946 c 1
 192 989 271 1033 350 1076 c 1
EndSplineSet
Validated: 1
EndChar
StartChar: w
Encoding: 119 119 22
Width: 1060
VWidth: 4
Flags: W
HStem: -24 18G<184.5 307.5 617.5 740.5> 993 20G<871 1118>
VStem: 150 257<516.794 991.022> 882 238<645.413 1013>
AnchorPoint: "above_accent" 696 1107 basechar 0
LayerCount: 2
Back
SplineSet
208.271 984 m 1
 471.266 1056 l 1
 500.835 848 462.291 660 429.857 488 c 0
 427.72 477 425.775 467 423.832 457 c 0
 405.561 363 364.846 241 347.625 209 c 1
 468.403 213 523.12 299 554.998 463 c 0
 627.308 835 l 1
 788.502 836 l 1
 788.502 836 778.34 758 746.268 593 c 0
 727.607 497 701.115 371 665.598 214 c 1
 667.598 214 668.598 214 670.598 214 c 0
 807.598 214 851.279 413 890.155 613 c 0
 893.266 629 896.375 645 899.485 661 c 0
 910.371 717 919.867 771 929.197 819 c 0
 943.193 891 953.907 1013 953.907 1013 c 1
 1199.91 1013 l 1
 1195.69 981 1191.61 960 1183.05 916 c 0
 1177.22 886 1171.39 856 1166.14 829 c 0
 1136.4 676 1094.97 468 1017.23 279 c 0
 949.354 115 799 0 580 0 c 2
 546 0 l 1
 546 0 540.829 66 551.74 153 c 1
 503.745 81 389.667 -12 192.667 -12 c 2
 186.667 -12 l 1
 140.861 -11 135.834 -6 123 0 c 1
 128.939 82 227.272 521 225.308 835 c 0
 224.804 889 223.301 943 208.271 984 c 1
EndSplineSet
Fore
SplineSet
133 984 m 1
 221 1008 308 1032 396 1056 c 1
 404 1003 407 952 407 902 c 0
 407 754 389 609 355 488 c 0
 328 393 267 256 247 219 c 1
 368 306 459 439 482 504 c 0
 515 597 531 701 537 836 c 1
 591 836 680 836 734 836 c 1
 734 836 708 670 676 505 c 0
 657 410 637 320 622 207 c 1
 684 236 774 438 825 604 c 0
 873 760 882 842 882 903 c 0
 882 945 876 983 871 1013 c 1
 953 1013 1035 1013 1117 1013 c 1
 1119 989 1120 965 1120 941 c 0
 1120 817 1100 696 1048 541 c 0
 979 335 832 120 649 -27 c 1
 586 -11 523 5 460 21 c 1
 460 21 463 141 474 228 c 1
 425 154 398 126 217 -24 c 1
 152 -2 87 19 22 41 c 1
 101 210 150 476 150 704 c 0
 150 860 142 952 133 984 c 1
EndSplineSet
Validated: 1
EndChar
StartChar: x
Encoding: 120 120 23
Width: 1060
VWidth: 4
Flags: W
HStem: -6 227<829.862 911> 1013 12G<328.5 398 833.5 1096>
LayerCount: 2
Back
SplineSet
1097.08 839 m 0
 1039.98 751 862.685 590 755.968 504 c 1
 815.946 401 911.762 256 931.234 243 c 0
 934.651 240 939.735 225 973.735 225 c 0
 991.735 225 1010.32 228 1026.9 231 c 1
 980.389 2 l 1
 961.806 -1 937.223 -4 919.223 -4 c 0
 877.223 -4 821.166 6 786.609 34 c 1
 723.745 81 643.403 213 580.34 331 c 1
 175.836 -42 l 1
 37.1309 119 l 1
 477.717 513 l 1
 227.72 904 l 1
 437.127 1045 l 1
 654.818 673 l 1
 728.036 741 783.033 777 876.942 900 c 0
 903.746 935 925.797 997 933.102 1014 c 1
 1170.91 1013 l 1
 1155.38 964 1131.58 893 1097.08 839 c 0
EndSplineSet
Fore
SplineSet
1022 839 m 0
 966 751 788 590 681 504 c 1
 754 379 843 221 880 221 c 0
 898 221 894 224 911 227 c 1
 914 151 916 76 919 0 c 1
 900 -3 876 -6 858 -6 c 0
 816 -6 756 14 721 42 c 1
 658 89 578 221 515 339 c 1
 377 212 239 85 101 -42 c 1
 52 16 3 75 -46 133 c 1
 104 268 253 402 403 537 c 1
 322 663 242 788 161 914 c 1
 228 958 295 1001 362 1045 c 1
 434 926 507 808 579 689 c 1
 652 757 687 776 781 899 c 0
 808 934 830 996 837 1013 c 1
 923 1013 1010 1013 1096 1013 c 1
 1080 964 1056 893 1022 839 c 0
EndSplineSet
Validated: 1
EndChar
StartChar: y
Encoding: 121 121 24
Width: 1060
VWidth: 14
Flags: W
HStem: -376 202<126.917 325.973> -52 20G<22 57> 751 262<153 289.078>
VStem: 838 256<822.65 1013>
AnchorPoint: "above_accent" 662 1107 basechar 0
LayerCount: 2
Back
SplineSet
318.178 -174 m 0
 407.178 -174 504.335 -24 542.606 70 c 1
 425.909 550 362.979 751 246.979 751 c 3
 226.979 751 212.979 751 202.785 750 c 1
 252.519 1011 l 1
 252.519 1011 294.907 1013 328.907 1013 c 3
 520.907 1013 618.202 747 715.283 341 c 1
 831.464 558 860.783 786 912.907 1013 c 1
 1168.91 1013 l 1
 1157.24 953 1145.19 891 1133.08 839 c 0
 1055.3 516 853.464 131 612.178 -174 c 0
 475.55 -347 385.913 -376 238.913 -376 c 1
 24.9131 -376 12.3721 -173 42 0 c 1
 292 0 l 1
 279.478 -85 270.178 -174 318.178 -174 c 0
EndSplineSet
Fore
SplineSet
54 -32 m 1
 60 -39 133 -174 207 -174 c 0
 292 -174 351 -136 451 37 c 1
 375 681 308 751 192 751 c 3
 172 751 157 751 147 750 c 1
 149 838 151 925 153 1013 c 1
 254 1013 l 3
 446 1013 559 791 609 236 c 1
 757 600 796 742 838 1013 c 1
 923 1013 1009 1013 1094 1013 c 1
 1094 973 1074 890 1058 839 c 0
 951 488 858 279 633 -54 c 0
 453 -320 349 -376 203 -376 c 1
 23 -376 -47 -291 -138 -200 c 1
 -74 -144 -10 -88 54 -32 c 1
EndSplineSet
Validated: 1
EndChar
StartChar: z
Encoding: 122 122 25
Width: 1060
VWidth: 6
Flags: W
HStem: -14 208<472.29 773.652> 55 187<394 548.252> 803 214<242.511 702> 1018 20G<988 1030.5>
AnchorPoint: "above_accent" 672 1107 basechar 0
LayerCount: 2
Back
SplineSet
251.42 815 m 1
 321.685 1017 l 1
 366.713 1012 477.519 1011 601.519 1011 c 0
 787.519 1011 1004.1 1014 1074.49 1016 c 1
 1114.56 826 l 1
 1075.14 793 528.642 384 440.293 197 c 1
 841.459 203 l 2
 843.459 203 845.459 203 847.459 203 c 0
 901.459 203 947.933 190 1003.24 171 c 1
 921.724 -22 l 1
 879.251 -9 865 0 800 0 c 2
 71 0 l 1
 74.8877 20 l 2
 89.0771 93 103.797 143 129.738 189 c 0
 250.335 403 524.792 642 756.671 806 c 1
 688.477 805 655.088 803 554.088 803 c 0
 429.088 803 306.671 806 251.42 815 c 1
EndSplineSet
Fore
SplineSet
176 815 m 1x70
 200 882 223 950 247 1017 c 1
 292 1012 754 1011 878 1011 c 0
 938 1011 964 1013 1012 1038 c 1
 1049 985 1087 933 1124 880 c 1
 1085 847 562 389 394 242 c 1x70
 488 242 596 194 704 194 c 1
 773 194 791 277 791 293 c 9
 869 279 946 266 1024 252 c 1
 1002 146 988 -14 728 -14 c 1xb0
 569 -14 442 55 320 55 c 0
 265 55 210 42 155 4 c 1
 135 -11 116 -27 96 -42 c 1
 82 -32 -75 80 -75 80 c 0
 90 272 494 620 702 806 c 1
 634 805 580 803 479 803 c 0
 354 803 231 806 176 815 c 1x70
EndSplineSet
Validated: 1
EndChar
StartChar: braceleft
Encoding: 123 123 160
Width: 1060
VWidth: 66
Flags: W
HStem: -282 218<644.391 762.989> 1266 218<883.328 1066.43>
VStem: 364 266<-60 95.8264> 502 261<214.443 403.806> 601 249<952.751 1230.62> 623 246<830.085 1145.35>
LayerCount: 2
Fore
SplineSet
555 600 m 1xc8
 644 577 763 506 763 381 c 0xd0
 763 364 761 347 758 330 c 0
 739 229 672 132 638 54 c 0
 634 46 633 38 632 31 c 0
 631 25 630 20 630 15 c 0
 630 -39 693 -59 807 -64 c 1
 791 -137 776 -209 760 -282 c 1
 628 -276 467 -274 396 -166 c 0
 374 -132 364 -96 364 -60 c 0xe0
 364 -45 366 -29 369 -14 c 0
 383 59 426 133 462 198 c 1
 482 234 494 264 499 290 c 0
 501 301 502 311 502 320 c 0xd0
 502 427 371 447 263 479 c 1
 270 517 277 554 284 592 c 1
 293 636 301 679 310 723 c 1
 441 758 595 778 619 911 c 0
 621 923 623 937 623 952 c 0xc4
 623 968 621 985 618 1004 c 1
 611 1050 601 1100 601 1152 c 0
 601 1173 603 1195 607 1216 c 0
 617 1268 643 1320 693 1368 c 0
 807 1476 968 1478 1102 1484 c 1
 1089 1411 1077 1339 1064 1266 c 1
 936 1261 863 1238 852 1170 c 0
 851 1162 850 1153 850 1144 c 0xc8
 850 1083 869 1014 869 940 c 0xc4
 869 918 868 895 863 872 c 0
 860 857 856 842 850 826 c 0
 803 698 653 623 555 600 c 1xc8
EndSplineSet
Validated: 1
EndChar
StartChar: bar
Encoding: 124 124 161
Width: 1060
VWidth: 66
Flags: W
VStem: 240 594
LayerCount: 2
Fore
SplineSet
312 152 m 0
 384 517 489 1111 545 1399 c 1
 551 1430 557 1461 563 1492 c 1
 653 1492 744 1492 834 1492 c 1
 825 1444 815 1395 806 1347 c 1
 752 1070 665 558 600 224 c 1
 590 174 580 124 570 74 c 1
 548 -41 537 -97 512 -198 c 1
 421 -198 331 -197 240 -197 c 1
 256 -135 265 -92 276 -37 c 0
 285 10 295 66 312 152 c 0
EndSplineSet
Validated: 1
EndChar
StartChar: braceright
Encoding: 125 125 162
Width: 1060
VWidth: 66
Flags: W
HStem: -282 218<56.5625 239.196> 1266 218<360.188 479.26>
VStem: 254 246<7.29583 369.293> 272 249<-28.4185 245.296> 362 260<797.347 983.059> 494 265<1103.65 1266>
LayerCount: 2
Fore
SplineSet
569 600 m 1xe0
 480 623 362 696 362 820 c 0
 362 826 l 0xc8
 362 842 364 857 367 872 c 0
 387 974 455 1068 486 1148 c 0
 489 1156 491 1163 492 1170 c 0
 493 1176 494 1182 494 1187 c 0
 494 1242 432 1261 318 1266 c 1
 333 1339 348 1411 363 1484 c 1
 496 1478 657 1476 729 1368 c 0
 751 1335 759 1301 759 1266 c 0xc4
 759 1249 757 1233 754 1216 c 0
 741 1143 698 1069 662 1004 c 1
 642 968 630 937 625 911 c 0
 623 900 622 890 622 881 c 0xc8
 622 774 754 755 862 723 c 1
 853 679 845 636 836 592 c 1
 828 554 821 517 813 479 c 1
 682 444 531 424 504 291 c 0
 501 277 500 262 500 246 c 0xe0
 500 231 501 215 504 198 c 1
 511 152 521 102 521 50 c 0
 521 29 519 7 515 -14 c 0
 505 -66 480 -118 430 -166 c 0
 316 -274 154 -276 20 -282 c 1
 33 -209 46 -137 59 -64 c 1
 187 -58 259 -36 270 32 c 0
 271 39 271 46 272 54 c 0
 272 61 l 0xd0
 272 121 254 189 254 262 c 0
 254 284 255 307 260 330 c 0
 263 345 267 361 273 376 c 0
 322 503 471 577 569 600 c 1xe0
EndSplineSet
Validated: 1
EndChar
StartChar: tilde
Encoding: 126 126 120
Width: 1060
VWidth: -12
Flags: W
HStem: 375 210<686.037 837.441> 596 211<279.57 437.784>
LayerCount: 2
Fore
SplineSet
414 807 m 0
 644 807 659 585 749 585 c 0
 835 585 874 675 893 743 c 1
 959 725 1025 707 1091 689 c 1
 1071 584 975 375 698 375 c 1
 474 375 478 596 366 596 c 0
 310 596 246 531 205 441 c 1
 151 478 98 514 44 551 c 1
 103 681 212 807 414 807 c 0
EndSplineSet
Validated: 1
EndChar
StartChar: cent
Encoding: 162 162 155
Width: 1060
VWidth: 6
Flags: W
HStem: -9 281<387.056 535> 742 291<495.385 711.133>
VStem: 137 217<305.279 617.383>
LayerCount: 2
Fore
SplineSet
364 525 m 0
 357 489 354 458 354 432 c 0
 354 275 461 272 494 272 c 1
 497 272 501 272 504 272 c 1
 587 272 641 323 693 386 c 1
 749 351 805 317 861 282 c 1
 794 183 697 126 559 111 c 1
 551 71 543 31 535 -9 c 1
 457 -9 379 -9 301 -9 c 1
 310 35 318 78 327 122 c 1
 290 131 253 146 224 170 c 0
 161 223 137 296 137 385 c 0
 137 428 142 474 152 524 c 0
 193 731 305 847 476 889 c 1
 485 937 495 985 504 1033 c 1
 582 1033 660 1033 738 1033 c 1
 729 989 721 946 712 902 c 1
 762 895 807 881 838 859 c 0
 882 828 911 782 921 741 c 1
 855 715 789 688 723 662 c 1
 721 692 704 742 588 742 c 0
 466 742 386 637 364 525 c 0
EndSplineSet
Validated: 1
EndChar
StartChar: sterling
Encoding: 163 163 154
Width: 1060
VWidth: 0
Flags: W
HStem: -16 204<572.553 755.947> -13 171<98 270.28> 666 200<205.781 365 606 916> 1149 202<638.921 810.281>
VStem: 19 177<158.009 271.749> 366 237<382.927 661 866 1115.09> 755 226<194.164 266>
LayerCount: 2
Fore
SplineSet
273 193 m 1x7e
 246 223 234 250 224 272 c 1
 217 267 199 239 197 218 c 0
 197 216 196 214 196 212 c 0
 193 170 199 158 208 158 c 0
 230 158 253 173 273 193 c 1x7e
916 670 m 1
 840 661 757 661 659 661 c 1
 640 661 622 661 603 661 c 1
 603 568 600 495 579 385 c 0
 569 333 554 278 542 254 c 1
 602 210 636 188 684 188 c 0
 710 188 750 198 755 224 c 0
 756 229 762 262 763 267 c 1
 839 267 915 266 991 266 c 1
 988 248 984 231 981 213 c 1
 951 77 832 -16 691 -16 c 0xbe
 573 -16 519 9 424 79 c 1
 345 -6 231 -13 144 -13 c 0
 52 -13 19 42 19 119 c 0
 19 141 22 166 27 191 c 0
 54 327 154 456 250 456 c 0
 309 456 316 427 337 382 c 1
 343 402 344 407 348 429 c 0
 365 517 366 555 366 621 c 0
 366 664 l 1
 314 666 230 666 185 666 c 1
 179 666 174 666 168 666 c 1
 181 733 194 799 207 866 c 1
 260 866 312 866 365 866 c 1
 366 937 363 977 376 1043 c 0
 416 1248 577 1351 766 1351 c 0
 929 1351 1034 1256 1040 1129 c 1
 966 1111 892 1093 818 1075 c 1
 814 1137 770 1149 726 1149 c 0
 720 1149 l 0
 666 1149 630 1116 617 1051 c 0
 607 997 608 927 606 861 c 1
 638 862 669 863 701 864 c 1
 758 864 l 0
 832 864 898 865 955 871 c 1
 942 804 929 737 916 670 c 1
EndSplineSet
Validated: 1
EndChar
StartChar: currency
Encoding: 164 164 153
Width: 1060
VWidth: 6
Flags: W
HStem: -20 13G<93.5 152 709 770> 127 150<396.865 592.217> 745 150<475.13 689.587> 1002 20G<290 348.5>
VStem: 146 224<325.844 598.949> 709 223<408.052 687.99>
LayerCount: 2
Fore
SplineSet
605 314 m 1
 653 352 677 431 698 524 c 0
 699 528 699 531 700 535 c 0
 707 565 709 593 709 619 c 0
 709 693 681 745 598 745 c 0
 467 745 408 642 377 488 c 0
 372 464 370 442 370 421 c 0
 370 335 410 277 494 277 c 0
 495 277 495 277 496 277 c 0
 544 278 568 287 605 314 c 1
225 677 m 1
 184 729 142 780 101 832 c 1
 177 895 252 959 328 1022 c 1
 369 972 409 921 450 871 c 1
 498 887 554 895 614 895 c 0
 686 895 742 886 787 869 c 1
 843 916 898 962 954 1009 c 1
 1005 945 1057 882 1108 818 c 1
 1049 768 989 719 930 669 c 1
 931 655 932 640 932 625 c 0
 932 594 929 563 923 533 c 0
 908 454 881 378 838 313 c 1
 878 263 919 212 959 162 c 1
 883 99 808 35 732 -28 c 1
 686 28 640 85 594 141 c 1
 556 132 515 127 468 127 c 1
 467 127 467 127 466 127 c 1
 408 127 358 133 316 145 c 1
 250 90 185 35 119 -20 c 1
 68 44 17 107 -34 171 c 1
 27 222 89 274 150 325 c 1
 147 343 146 362 146 383 c 0
 146 412 149 443 155 475 c 0
 170 553 194 620 225 677 c 1
EndSplineSet
Validated: 1
EndChar
StartChar: yen
Encoding: 165 165 150
Width: 1060
VWidth: 0
Flags: W
HStem: -6 21G<292 546.5> 323 218<114.344 359 655 921.636> 638 218<164.638 316 868 980> 1343 20G<382 435.5 928.5 989.5>
LayerCount: 2
Fore
SplineSet
292 -6 m 1
 301 42 311 90 320 138 c 1
 328 177 343 247 359 323 c 1
 267 323 l 0
 207 323 144 322 74 318 c 1
 88 392 101 467 115 541 c 1
 225 547 318 549 407 549 c 1
 412 573 416 595 419 613 c 1
 418 616 415 620 413 624 c 1
 333 626 244 631 131 638 c 1
 137 668 146 718 155 765 c 0
 162 800 169 834 174 856 c 1
 225 853 272 851 316 849 c 1
 256 994 195 1158 177 1222 c 1
 259 1269 341 1316 423 1363 c 1
 448 1284 542 992 602 852 c 1
 728 994 901 1287 956 1376 c 1
 1023 1331 1091 1285 1158 1240 c 1
 1119 1184 988 1008 868 853 c 1
 914 854 964 854 1021 854 c 1
 1007 781 994 708 980 635 c 1
 867 635 782 631 690 628 c 1
 681 618 673 609 667 602 c 1
 664 584 658 565 655 547 c 1
 758 545 852 541 962 541 c 1
 948 466 933 392 919 317 c 1
 809 317 710 320 607 321 c 1
 588 233 574 157 568 128 c 1
 559 83 551 39 542 -6 c 1
 459 -6 375 -6 292 -6 c 1
EndSplineSet
Validated: 1
EndChar
StartChar: brokenbar
Encoding: 166 166 164
Width: 1060
VWidth: 66
Flags: W
VStem: 240 594
LayerCount: 2
Fore
SplineSet
429 779 m 1
 473 1018 516 1250 545 1399 c 1
 551 1430 557 1461 563 1492 c 1
 653 1492 744 1492 834 1492 c 1
 825 1444 815 1395 806 1347 c 1
 778 1202 740 993 701 779 c 1
 610 779 520 779 429 779 c 1
659 539 m 1
 638 426 618 318 600 224 c 1
 590 174 580 124 570 74 c 1
 548 -41 537 -97 512 -198 c 1
 421 -198 331 -197 240 -197 c 1
 256 -135 265 -92 276 -37 c 0
 285 10 295 66 312 152 c 0
 334 264 359 399 385 539 c 1
 476 539 568 539 659 539 c 1
EndSplineSet
Validated: 1
EndChar
StartChar: section
Encoding: 167 167 159
Width: 1060
VWidth: 4
Flags: W
HStem: -285 200<304.17 486.031> 1051 21G<751 973> 1168 200<560.984 742.613>
VStem: 69 223<-70.2459 32> 87 250<568.719 712.711> 263 252<901.007 1121.22> 533 250<-38.2227 179.979> 710 251<366.99 514.876> 754 223<1051 1153.74>
LayerCount: 2
Fore
SplineSet
645 354 m 1xe9
 697 382 704 396 710 429 c 1
 710 435 l 0
 710 454 705 474 686 495 c 0
 590 603 473 679 403 729 c 1
 351 701 343 687 337 654 c 1
 337 648 l 0
 337 629 342 609 361 588 c 0
 456 482 540 428 637 361 c 1
 640 359 642 356 645 354 c 1xe9
281 883 m 1
 281 883 263 904 263 965 c 0
 263 987 266 1015 272 1048 c 0
 311 1256 531 1362 685 1368 c 0
 703 1368 l 0
 878 1368 977 1267 977 1117 c 0
 977 1096 975 1074 971 1051 c 1
 898 1051 824 1051 751 1051 c 1
 753 1061 754 1071 754 1080 c 0xe480
 754 1141 709 1168 652 1168 c 1
 620 1168 548 1149 523 1054 c 0
 522 1051 522 1047 521 1043 c 0
 518 1027 515 1009 515 990 c 0
 515 958 524 925 556 901 c 0
 677 811 793 725 881 627 c 0
 938 563 961 526 961 472 c 0xe5
 961 453 958 433 953 408 c 0
 930 291 865 238 776 180 c 1
 776 180 783 151 783 108 c 0
 783 87 781 61 776 35 c 0
 736 -173 516 -279 362 -285 c 0
 344 -285 l 0
 168 -285 69 -183 69 -33 c 0
 69 -12 71 9 75 32 c 1
 148 32 222 32 295 32 c 1
 293 22 292 12 292 3 c 0
 292 -58 337 -85 394 -85 c 1
 426 -85 500 -66 525 29 c 0
 526 32 526 36 527 40 c 0
 530 55 533 74 533 92 c 0xf2
 533 124 524 157 491 182 c 0
 370 273 255 358 167 456 c 0
 109 520 87 557 87 612 c 0
 87 630 89 651 94 675 c 0
 122 816 281 883 281 883 c 1
EndSplineSet
Validated: 1
EndChar
StartChar: dieresis
Encoding: 168 168 173
Width: 1060
VWidth: -28
Flags: W
HStem: 1184 240<423 655 843 1078>
AnchorPoint: "above_accent" 691 1073 mark 0
LayerCount: 2
Fore
SplineSet
843 1424 m 1
 1124 1421 l 1
 1078 1183 l 1
 796 1184 l 1
 843 1424 l 1
423 1424 m 1
 702 1424 l 1
 655 1184 l 1
 376 1184 l 1
 423 1424 l 1
EndSplineSet
Validated: 1
EndChar
StartChar: copyright
Encoding: 169 169 165
Width: 1060
VWidth: 6
Flags: W
HStem: 39 177<357.456 679.172> 298 165<520.438 638.181> 719 164<555.301 726.539> 971 175<485.344 812.636>
VStem: 45 177<353.897 701.938> 318 198<464.244 682.584> 939 175<488.766 840.865>
LayerCount: 2
Fore
SplineSet
229 594 m 0
 224 567 222 541 222 516 c 0
 222 344 339 216 510 216 c 0
 706 216 890 384 931 594 c 0
 936 622 939 649 939 675 c 0
 939 845 827 971 657 971 c 0
 461 971 270 804 229 594 c 0
56 592 m 0
 121 925 353 1146 687 1146 c 0
 940 1146 1114 956 1114 704 c 0
 1114 668 1110 630 1103 592 c 0
 1039 261 817 39 472 39 c 0
 219 39 45 228 45 480 c 0
 45 516 49 554 56 592 c 0
616 719 m 0
 570 719 535 659 520 583 c 0
 517 570 516 556 516 543 c 0
 516 502 529 463 566 463 c 1
 598 463 621 472 646 520 c 1
 802 436 l 1
 709 313 594 298 531 298 c 0
 426 298 318 355 318 505 c 0
 318 528 321 552 326 579 c 0
 361 759 491 883 650 883 c 0
 722 883 824 844 849 752 c 1
 668 664 l 1
 659 703 652 719 616 719 c 0
EndSplineSet
Validated: 1
EndChar
StartChar: ordfeminine
Encoding: 170 170 193
Width: 1060
VWidth: 6
Flags: W
HStem: 508 167<198 922> 754 190<395 643.111> 1336 212<566.204 787.215>
VStem: 243 220<953.043 1225.04>
LayerCount: 2
Back
SplineSet
460.213867188 994 m 4
 452.049804688 952 486.21875 922 526.21875 922 c 4
 620.21875 922 704.689453125 945 766.377929688 1036 c 5
 740.541992188 1078 681.846679688 1095 605.846679688 1095 c 4
 517.846679688 1095 472.848632812 1059 460.213867188 994 c 4
357 1462.90625 m 5
 466.581054688 1524.83007812 591.466796875 1537 706.762695312 1537 c 5
 925.762695312 1537 1029.78125 1413.99023438 990.431640625 1200.90039062 c 4
 964.208984375 1066 l 4
 956.111328125 1024.33691406 949.354492188 969 963.912109375 941 c 4
 973.305664062 922.931640625 989.080078125 911 1016.359375 897 c 5
 886.0078125 746 l 5
 843.838867188 776 806.560546875 790 786.75 863 c 5
 703.005859375 782 604.5625 754 454.5625 754 c 4
 312.5625 754 218.612304688 852 244.659179688 986 c 4
 288.783203125 1213 429.586914062 1248 613.586914062 1248 c 4
 707.586914062 1248 762.533203125 1222 795.068359375 1183.59960938 c 5
 799.904296875 1280.5 772.774414062 1357 673.774414062 1357 c 4
 564.774414062 1357 503.858398438 1342 428.528320312 1294 c 5
 357 1462.90625 l 5
EndSplineSet
Fore
SplineSet
481 1158 m 0
 467 1090 463 1062 463 1036 c 0
 463 985 495 944 535 944 c 0
 588 944 646 970 760 1102 c 1
 799 1281 l 1
 750 1327 720 1336 672 1336 c 0
 614 1336 507 1280 481 1158 c 0
963 1011 m 2
 960 998 958 986 958 974 c 0
 958 942 980 912 1016 897 c 1
 884 746 l 1
 817 768 775 808 759 888 c 1
 670 799 584 754 454 754 c 0
 336 754 243 831 243 1000 c 0
 243 1050 253 1109 267 1181 c 0
 315 1428 506 1548 686 1548 c 1
 750 1548 806 1530 855 1484 c 1
 861 1505 865 1521 871 1542 c 1
 1082 1534 l 0
 963 1011 l 2
198 675 m 1
 954 675 l 1
 922 508 l 1
 166 508 l 1
 198 675 l 1
EndSplineSet
Validated: 1
EndChar
StartChar: guillemotleft
Encoding: 171 171 157
Width: 1060
VWidth: 6
Flags: W
VStem: 249 235<101.922 204.688> 651 235<90.9283 198.129>
LayerCount: 2
Fore
SplineSet
463 566 m 1
 632 696 801 857 851 997 c 1
 922 973 994 949 1065 925 c 1
 988 736 828 613 682 504 c 1
 787 386 874 267 886 95 c 1
 808 66 729 38 651 9 c 1
 642 158 572 310 441 451 c 1
 448 489 456 528 463 566 c 1
61 576 m 1
 230 706 399 867 449 1007 c 1
 520 983 592 960 663 936 c 1
 586 747 426 624 280 515 c 1
 385 397 472 278 484 106 c 1
 406 77 327 48 249 19 c 1
 240 168 170 320 39 461 c 1
 46 499 54 538 61 576 c 1
EndSplineSet
Validated: 1
EndChar
StartChar: logicalnot
Encoding: 172 172 194
Width: 1060
VWidth: 6
Flags: W
HStem: 410 244<134 731>
LayerCount: 2
Fore
SplineSet
134 654 m 1
 179 656 230 657 280 657 c 0
 380 657 480 654 548 654 c 0
 667 654 l 0
 749 654 901 653 1008 652 c 1
 1014 652 1020 652 1026 652 c 1
 1016 600 1005 548 995 496 c 1
 996 496 996 496 997 496 c 1
 977 391 956 285 936 180 c 1
 853 180 769 180 686 180 c 1
 701 257 716 333 731 410 c 1
 499 410 l 0
 456 410 365 413 265 413 c 0
 208 413 149 412 93 409 c 1
 101 450 108 490 116 531 c 1
 122 572 128 613 134 654 c 1
EndSplineSet
Validated: 1
EndChar
StartChar: registered
Encoding: 174 174 166
Width: 1060
VWidth: 6
Flags: W
HStem: 39 177<355.246 694.103> 750 148<564.955 701.941> 971 175<458.507 811.519>
VStem: 46 176<352.089 707.853> 703 158<638.822 745.714> 940 172<497.947 838.922>
LayerCount: 2
Fore
SplineSet
56 592 m 0
 145 1017 405 1146 661 1146 c 0
 917 1146 1112 951 1112 694 c 0
 1112 661 1110 627 1103 592 c 0
 1021 168 765 39 505 39 c 0
 220 39 46 260 46 495 c 0
 46 527 49 560 56 592 c 0
685 515 m 1
 712 464 762 412 807 384 c 1
 639 266 l 1
 586 301 531 426 531 494 c 1
 522 494 l 1
 482 283 l 1
 322 283 l 1
 371 241 435 216 510 216 c 0
 706 216 877 349 931 594 c 0
 937 623 940 652 940 679 c 0
 940 846 825 971 657 971 c 0
 461 971 283 873 229 594 c 0
 224 567 222 541 222 516 c 0
 222 426 254 349 309 295 c 1
 395 736 l 2
 405 790 411 827 418 876 c 1
 501 889 575 898 637 898 c 0
 768 898 861 859 861 741 c 0
 861 724 859 706 855 686 c 0
 839 605 767 540 685 515 c 1
702 698 m 0
 703 701 703 704 703 707 c 0
 703 733 678 750 610 750 c 0
 594 750 579 747 567 742 c 1
 549 645 l 1
 561 638 582 630 613 630 c 0
 683 630 697 670 702 698 c 0
EndSplineSet
Validated: 1
EndChar
StartChar: macron
Encoding: 175 175 176
Width: 1060
VWidth: -34
Flags: W
HStem: 1463 194<482.574 948.216>
VStem: 447 538
LayerCount: 2
Fore
SplineSet
985 1657 m 1
 972 1592 960 1528 947 1463 c 1
 941 1463 936 1463 930 1463 c 0
 872 1461 773 1456 699 1456 c 0
 625 1456 533 1457 465 1459 c 0
 459 1459 453 1460 447 1460 c 1
 460 1526 472 1591 485 1657 c 1
 491 1656 498 1655 504 1655 c 0
 569 1653 683 1652 775 1652 c 0
 836 1652 923 1657 968 1657 c 0
 985 1657 l 1
EndSplineSet
Validated: 1
EndChar
StartChar: degree
Encoding: 176 176 175
Width: 1060
VWidth: -8
Flags: W
HStem: 788 192<527.407 693.469> 1186 193<548.031 717.281>
VStem: 319 197<991.822 1151.84> 726 196<1013.44 1174.19>
LayerCount: 2
Fore
SplineSet
678 1379 m 0
 822 1379 922 1276 922 1140 c 0
 922 916 736 788 563 788 c 0
 419 788 319 890 319 1026 c 0
 319 1246 505 1379 678 1379 c 0
516 1063 m 0
 516 1016 551 980 601 980 c 0
 662 980 726 1033 726 1103 c 0
 726 1150 691 1186 641 1186 c 0
 580 1186 516 1133 516 1063 c 0
EndSplineSet
Validated: 1
EndChar
StartChar: plusminus
Encoding: 177 177 145
Width: 1060
VWidth: -6
Flags: W
HStem: 164 245<61 400.875 644 918.5> 629 235<139 435 727 1005.7>
LayerCount: 2
Fore
SplineSet
139 854 m 1
 189 863 219 864 284 864 c 0
 323 864 l 1
 376 864 430 864 483 864 c 1
 506 983 529 1102 552 1221 c 1
 634 1221 717 1222 799 1222 c 1
 775 1103 751 984 727 865 c 1
 853 865 907 863 969 863 c 0
 1051 863 l 1
 1036 785 1020 707 1005 629 c 1
 1000 629 996 629 991 629 c 1
 985 629 896 629 687 632 c 1
 673 558 658 485 644 411 c 1
 737 411 866 410 947 409 c 1
 953 409 959 409 965 409 c 1
 949 327 933 246 917 164 c 1
 911 164 905 164 899 164 c 1
 765 167 524 167 399 167 c 0
 332 167 174 166 20 158 c 1
 28 199 35 239 43 280 c 1
 49 321 55 362 61 403 c 1
 175 409 297 411 393 411 c 1
 407 484 421 556 435 629 c 1
 346 629 l 0
 213 629 155 628 96 620 c 1
 110 698 125 776 139 854 c 1
EndSplineSet
Validated: 1
EndChar
StartChar: uni00B2
Encoding: 178 178 196
Width: 1060
VWidth: 65
Flags: W
HStem: 769 169<580 908> 1359 168<630.036 796.941>
VStem: 801 218<1233.61 1353.19>
LayerCount: 2
Fore
SplineSet
385 1321 m 1
 438 1470 610 1527 759 1527 c 0
 892 1527 1019 1480 1019 1346 c 0
 1019 1156 899 1107 699 1013 c 0
 619 975 592 968 580 938 c 1
 942 943 l 1
 908 769 l 1
 285 769 l 1
 290 801 296 831 302 864 c 0
 311 909 320 942 356 986 c 0
 421 1065 801 1200 801 1297 c 0
 801 1327 774 1359 729 1359 c 0
 645 1359 624 1313 605 1271 c 1
 385 1321 l 1
EndSplineSet
Validated: 1
EndChar
StartChar: uni00B3
Encoding: 179 179 197
Width: 1060
VWidth: 65
Flags: W
HStem: 754 153<487.974 710.762> 993 20G<414.45 460> 1097 131<618.041 736.473> 1308 21G<529.919 560.5> 1364 166<557.006 771.516>
VStem: 743 210<939.553 1081.22> 776 217<1238.5 1420.17>
LayerCount: 2
Fore
SplineSet
437 1013 m 1xfc
 483 949 514 907 607 907 c 0
 690 907 743 963 743 1031 c 0xfc
 743 1074 689 1097 589 1097 c 1
 618 1231 l 1
 618 1231 675 1228 688 1228 c 0
 743 1228 776 1262 776 1320 c 0
 776 1351 750 1364 707 1364 c 0
 641 1364 579 1339 542 1308 c 1
 452 1457 l 1
 513 1499 611 1530 731 1530 c 2
 742 1530 l 2
 904 1530 993 1478 993 1360 c 0xfa
 993 1270 946 1211 863 1178 c 1
 917 1154 953 1099 953 1050 c 0
 953 852 782 754 585 754 c 0
 439 754 337 770 269 864 c 1
 437 1013 l 1xfc
EndSplineSet
Validated: 1
EndChar
StartChar: acute
Encoding: 180 180 174
Width: 1060
VWidth: -43
Flags: W
HStem: 1267 442
VStem: 404 585
LayerCount: 2
Fore
SplineSet
404 1441 m 1
 556 1489 752 1601 888 1709 c 1
 922 1652 955 1594 989 1537 c 1
 856 1425 612 1314 460 1267 c 1
 441 1325 423 1383 404 1441 c 1
EndSplineSet
Validated: 1
EndChar
StartChar: mu
Encoding: 181 181 169
Width: 1060
VWidth: 6
Flags: W
HStem: -17 21G<774 832.5> 2 204<298.094 541.375> 1000 20G<373 415>
VStem: 163 252<702.308 991.764>
LayerCount: 2
Fore
SplineSet
241 8 m 1x70
 213 -127 186 -263 158 -398 c 25
 75 -397 -9 -396 -92 -395 c 1
 -50 -187 -6 21 35 229 c 0
 51 311 70 408 89 504 c 0
 127 701 163 897 163 973 c 0
 163 980 163 987 162 992 c 1
 246 1001 331 1011 415 1020 c 1
 415 1010 l 0
 415 910 360 652 293 298 c 1
 293 292 l 0
 293 230 309 206 391 206 c 1x70
 589 206 645 370 655 418 c 1
 693 612 731 806 769 1000 c 1
 855 1000 940 1000 1026 1000 c 1
 981 769 935 537 890 306 c 1
 889 302 889 299 889 295 c 0
 889 245 937 186 981 166 c 1
 922 105 862 44 803 -17 c 1xb0
 745 12 711 58 700 108 c 1
 610 31 488 5 337 2 c 1
 334 2 331 2 328 2 c 1
 299 2 270 4 241 8 c 1x70
EndSplineSet
Validated: 1
EndChar
StartChar: paragraph
Encoding: 182 182 170
Width: 1060
VWidth: 0
Flags: W
HStem: -10 21G<648 651> 1112 216<720.979 838>
LayerCount: 2
Fore
SplineSet
824 1041 m 1
 829 1065 833 1088 838 1112 c 1
 749 1112 l 0
 721 1112 l 1
 663 816 609 520 551 224 c 0
 533 132 469 -2 423 -41 c 1
 361 -7 299 27 237 61 c 1
 267 103 304 141 320 221 c 1
 334 294 349 367 363 440 c 1
 223 450 125 568 125 772 c 0
 125 818 130 869 141 924 c 0
 159 1016 195 1108 262 1174 c 0
 404 1315 578 1328 803 1328 c 0
 936 1328 973 1320 1091 1320 c 1
 1005 877 918 434 832 -9 c 1
 760 -9 687 -10 615 -10 c 1
 681 332 739 604 824 1041 c 1
EndSplineSet
Validated: 1
EndChar
StartChar: cedilla
Encoding: 184 184 198
Width: 1060
VWidth: 12
Flags: W
HStem: -398 172<294.374 517.235> -119 176<382.75 521.985>
VStem: 521 224<-218.538 -122.055>
LayerCount: 2
Fore
SplineSet
608 56 m 1
 605 48 592 -16 591 -19 c 1
 676 -23 745 -68 745 -157 c 0
 745 -169 744 -182 741 -195 c 0
 714 -324 588 -398 430 -398 c 0
 364 -398 275 -380 226 -344 c 1
 256 -295 285 -245 315 -196 c 1
 345 -214 386 -226 437 -226 c 0
 473 -226 511 -214 521 -176 c 1
 521 -175 521 -175 521 -174 c 1
 522 -171 522 -167 522 -164 c 0
 522 -139 502 -119 460 -119 c 0
 412 -119 379 -121 349 -131 c 1
 361 -68 373 -6 385 57 c 1
 459 57 534 56 608 56 c 1
EndSplineSet
Validated: 1
EndChar
StartChar: uni00B9
Encoding: 185 185 199
Width: 1060
VWidth: 65
Flags: W
HStem: 1098 200<398.635 499.708>
VStem: 368 599
LayerCount: 2
Fore
SplineSet
737 1527 m 1
 967 1511 l 1
 823 769 l 1
 607 769 l 1
 708 1280 l 1
 621 1201 534 1140 401 1098 c 1
 368 1298 l 1
 518 1336 636 1393 737 1527 c 1
EndSplineSet
Validated: 1
EndChar
StartChar: ordmasculine
Encoding: 186 186 200
Width: 1060
VWidth: 6
Flags: W
HStem: 508 167<198 922> 758 181<517.547 728.461> 1345 181<584.821 811.507>
VStem: 286 210<956.725 1244.69> 836 205<1057.71 1322.88>
LayerCount: 2
Fore
SplineSet
198 675 m 1
 954 675 l 1
 922 508 l 1
 166 508 l 1
 198 675 l 1
828 1150 m 0
 833 1174 836 1196 836 1217 c 0
 836 1292 802 1345 706 1345 c 0
 607 1345 532 1286 506 1152 c 0
 499 1118 496 1089 496 1063 c 0
 496 981 531 939 611 939 c 1
 708 939 803 1021 828 1150 c 0
573 758 m 1
 379 758 286 869 286 1039 c 0
 286 1073 290 1110 297 1148 c 0
 350 1418 520 1526 707 1526 c 0
 921 1526 1041 1403 1041 1233 c 0
 1041 1208 1038 1183 1033 1156 c 0
 973 847 784 758 573 758 c 1
EndSplineSet
Validated: 1
EndChar
StartChar: onequarter
Encoding: 188 188 201
Width: 1060
VWidth: 0
Flags: W
HStem: -165 165<404 535 772 865> 519 168<138 998> 1098 200<398.635 499.708>
VStem: 368 599
LayerCount: 2
Fore
SplineSet
138 687 m 1
 1031 687 l 1
 998 519 l 1
 105 519 l 1
 138 687 l 1
EndSplineSet
Refer: 782 8324 N 1 0 0 1 0 0 2
Refer: 199 185 N 1 0 0 1 0 0 2
Validated: 1
EndChar
StartChar: onehalf
Encoding: 189 189 202
Width: 1060
VWidth: 0
Flags: W
HStem: -311 169<470 798> 279 168<520.036 686.941> 519 168<138 998> 1098 200<398.635 499.708>
VStem: 368 599 691 218<153.611 273.191>
LayerCount: 2
Fore
SplineSet
138 687 m 1xf0
 1031 687 l 1
 998 519 l 1
 105 519 l 1
 138 687 l 1xf0
EndSplineSet
Refer: 780 8322 N 1 0 0 1 0 0 2
Refer: 199 185 N 1 0 0 1 0 0 2
Validated: 1
EndChar
StartChar: threequarters
Encoding: 190 190 203
Width: 1060
VWidth: 0
Flags: W
HStem: -165 165<404 535 772 865> 519 168<138 998> 754 153<487.974 710.762> 993 20G<414.45 460> 1097 131<618.041 736.473> 1308 21G<529.919 560.5> 1364 166<557.006 771.516>
VStem: 743 210<939.553 1081.22> 776 217<1238.5 1420.17>
LayerCount: 2
Fore
SplineSet
138 687 m 1xfe
 1031 687 l 1
 998 519 l 1
 105 519 l 1
 138 687 l 1xfe
EndSplineSet
Refer: 782 8324 N 1 0 0 1 0 0 2
Refer: 197 179 N 1 0 0 1 0 0 2
Validated: 1
EndChar
StartChar: AE
Encoding: 198 198 82
Width: 1060
VWidth: 0
Flags: W
HStem: -5 208<658 918.969> 280 209<326.037 437> 642 208<719 912.835> 1114 208<743.378 1102.83>
AnchorPoint: "above_accent" 738 1322 basechar 0
LayerCount: 2
Fore
SplineSet
939 32 m 1
 887 7 820 -5 745 -5 c 1
 631 -5 517 -5 403 -5 c 1
 422 150 420 125 437 277 c 1
 419 279 405 280 391 280 c 0
 363 280 300 278 264 270 c 1
 211 133 212 137 159 0 c 1
 84 15 9 30 -66 45 c 1
 104 431 276 894 454 1323 c 1
 502 1322 551 1321 599 1320 c 1
 642 1322 696 1322 756 1322 c 0
 881 1322 l 1
 968 1322 1054 1322 1141 1322 c 1
 1128 1253 1114 1185 1101 1116 c 1
 1095 1116 1090 1116 1084 1116 c 1
 1001 1116 1013 1114 890 1114 c 1
 843 1114 795 1114 748 1114 c 1
 738 1025 729 935 719 846 c 1
 770 847 760 850 845 850 c 1
 880 850 916 850 951 850 c 1
 938 781 924 711 911 642 c 1
 876 642 840 642 805 642 c 1
 723 642 740 639 695 638 c 1
 683 493 670 348 658 203 c 1
 710 203 763 203 815 203 c 1
 876 203 919 228 919 228 c 1
 926 163 932 97 939 32 c 1
462 489 m 1
 475 611 504 875 517 997 c 1
 470 873 371 609 324 485 c 1
 354 488 411 489 462 489 c 1
EndSplineSet
Validated: 1
EndChar
StartChar: Ccedilla
Encoding: 199 199 83
Width: 1060
VWidth: 6
Flags: W
HStem: -442 172<298.787 521.238> 1128 204<592.527 818.265>
VStem: 84 265<271.823 726.457> 525 223<-263.692 -166.42>
LayerCount: 2
Fore
SplineSet
710 1128 m 0
 595 1128 435 992 365 628 c 0
 354 570 349 518 349 471 c 0
 349 295 419 198 503 198 c 1
 508 198 512 198 517 198 c 1
 641 198 692 262 765 392 c 1
 838 346 912 301 985 255 c 1
 901 128 762 38 612 8 c 1
 608 -7 598 -61 597 -64 c 1
 681 -68 748 -113 748 -201 c 0
 748 -213 747 -226 744 -240 c 0
 718 -370 592 -442 434 -442 c 0
 368 -442 280 -424 231 -388 c 1
 260 -339 290 -290 319 -241 c 1
 349 -259 392 -270 443 -270 c 0
 479 -270 515 -259 525 -221 c 1
 525 -220 525 -220 525 -219 c 1
 526 -216 526 -212 526 -209 c 0
 526 -184 506 -163 464 -163 c 0
 416 -163 383 -166 353 -176 c 1
 365 -115 376 -55 388 6 c 1
 310 20 235 52 183 116 c 1
 117 202 84 308 84 439 c 0
 84 499 91 564 105 636 c 0
 155 895 267 1054 334 1132 c 0
 427 1240 581 1332 756 1332 c 0
 896 1332 1057 1269 1114 1107 c 1
 1029 1065 943 1024 858 982 c 1
 832 1106 796 1128 710 1128 c 0
EndSplineSet
Validated: 1
EndChar
StartChar: Eth
Encoding: 208 208 152
Width: 1060
VWidth: 0
Flags: W
HStem: -10 205<287 551.539> 732 210<111.386 143 436 653.438> 1127 204<464.25 671.305>
VStem: 762 264<478.963 1030.94>
LayerCount: 2
Fore
SplineSet
547 1127 m 1
 537 1127 527 1127 517 1127 c 1
 501 1127 489 1127 471 1124 c 1
 467 1098 462 1068 456 1037 c 0
 448 996 442 973 436 942 c 1
 521 942 605 942 690 942 c 1
 677 872 664 803 651 733 c 1
 566 733 480 732 395 732 c 1
 347 488 304 280 287 198 c 1
 374 195 326 195 386 195 c 0
 389 195 l 0
 429 195 573 197 669 353 c 0
 697 398 722 489 733 544 c 0
 753 645 762 734 762 810 c 0
 762 1018 689 1127 547 1127 c 1
184 942 m 1
 186 954 189 965 191 977 c 1
 216 1106 236 1229 244 1317 c 1
 327 1325 373 1331 472 1331 c 0
 743 1331 883 1249 970 1066 c 1
 1007 986 1026 885 1026 776 c 0
 1026 713 1020 646 1007 580 c 0
 994 511 972 442 946 376 c 0
 851 135 666 14 483 -3 c 0
 427 -8 376 -10 321 -10 c 0
 237 -10 105 -3 -9 -3 c 1
 -2 31 -2 30 20 128 c 1
 29 174 88 454 143 732 c 1
 120 732 96 732 73 732 c 1
 87 802 100 872 114 942 c 1
 137 942 161 942 184 942 c 1
EndSplineSet
Validated: 1
EndChar
StartChar: multiply
Encoding: 215 215 128
Width: 1060
VWidth: 6
Flags: W
LayerCount: 2
Fore
SplineSet
317 999 m 1
 390 940 491 780 559 693 c 1
 681 792 803 891 925 990 c 1
 971 932 1017 873 1063 815 c 1
 941 716 818 618 696 519 c 1
 812 369 840 323 942 191 c 1
 875 136 809 82 742 27 c 1
 633 177 687 104 500 353 c 1
 380 248 259 143 139 38 c 1
 93 98 46 159 0 219 c 1
 119 323 238 427 357 531 c 1
 246 674 164 793 117 835 c 1
 184 890 250 944 317 999 c 1
EndSplineSet
Validated: 1
EndChar
StartChar: Oslash
Encoding: 216 216 127
Width: 1060
VWidth: 0
Flags: W
HStem: -16 203<356.479 578.506> 1147 203<553.057 758.395> 1408 20G<1020 1061.5>
AnchorPoint: "above_accent" 707 1322 basechar 0
LayerCount: 2
Fore
SplineSet
1029 1128 m 1
 1048 1072 1058 1004 1058 918 c 0
 1058 842 1050 752 1030 647 c 1
 1029 643 1029 640 1028 636 c 1
 996 469 933 312 867 217 c 0
 764 70 597 -16 432 -16 c 0
 357 -16 275 -1 208 35 c 1
 170 -15 133 -65 95 -115 c 1
 49 -80 2 -46 -44 -11 c 1
 0 47 44 106 88 164 c 1
 62 222 50 289 50 365 c 0
 50 431 59 503 74 579 c 0
 143 931 233 1090 322 1187 c 0
 406 1279 552 1347 709 1350 c 1
 774 1350 859 1338 928 1282 c 1
 964 1331 1002 1379 1038 1428 c 1
 1085 1394 1131 1361 1178 1327 c 1
 1128 1261 1079 1194 1029 1128 c 1
355 232 m 1
 382 196 415 187 471 187 c 0
 550 187 611 249 657 326 c 1
 695 385 747 541 767 640 c 1
 768 646 770 651 771 657 c 1
 780 705 789 761 795 817 c 1
 648 622 502 427 355 232 c 1
774 1076 m 1
 750 1129 714 1147 669 1147 c 0
 604 1147 561 1122 507 1051 c 0
 444 968 385 835 337 592 c 0
 330 557 323 514 319 471 c 1
 472 673 623 875 774 1076 c 1
EndSplineSet
Validated: 1
EndChar
StartChar: Thorn
Encoding: 222 222 204
Width: 1060
VWidth: 0
Flags: W
HStem: -10 21G<235.5 292.5> 439 208<405 705.608> 988 211<514 761.891> 1308 20G<487 535>
VStem: 803 271<736.043 949.972>
LayerCount: 2
Fore
SplineSet
800 829 m 0
 802 840 803 850 803 860 c 0
 803 956 706 988 632 988 c 0
 623 988 l 1
 562 988 517 984 472 983 c 1
 467 959 463 936 458 912 c 1
 422 725 405 649 405 649 c 1
 441 648 476 647 509 647 c 0
 625 647 770 669 800 829 c 0
277 -10 m 1
 194 -10 110 -9 27 -9 c 1
 113 434 200 877 286 1320 c 1
 392 1320 435 1327 539 1328 c 1
 531 1285 522 1242 514 1199 c 1
 551 1199 l 0
 776 1199 944 1186 1032 1045 c 0
 1060 1000 1074 966 1074 919 c 0
 1074 897 1071 873 1065 844 c 0
 1024 637 862 439 518 439 c 0
 470 439 419 440 365 442 c 1
 313 174 308 149 277 -10 c 1
EndSplineSet
Validated: 1
EndChar
StartChar: germandbls
Encoding: 223 223 167
Width: 1060
VWidth: 0
Flags: W
HStem: -37 21G<23.5 61.5> -2 201<475.5 676.611> 634 206<461.551 618.68> 1122 206<469.601 657.841>
VStem: 343 214<119 319.735> 676 251<902.477 1101.27> 735 248<265.381 553.75>
LayerCount: 2
Fore
SplineSet
187 1003 m 0xfc
 217 1159 366 1328 573 1328 c 0
 781 1328 927 1262 927 1085 c 0xfc
 927 1062 924 1036 919 1009 c 1
 895 886 836 815 746 779 c 1
 864 758 983 687 983 495 c 0
 983 461 979 423 971 381 c 0
 912 76 769 -2 549 -2 c 0
 402 -2 343 57 343 181 c 0
 343 215 348 254 356 298 c 0
 362 322 l 1
 430 321 497 321 565 320 c 1
 561 298 557 277 557 258 c 0
 557 224 569 199 610 199 c 0
 664 199 702 247 730 395 c 0
 733 411 735 427 735 443 c 0xfa
 735 539 671 634 424 634 c 1
 437 703 451 771 464 840 c 1
 629 840 652 906 674 1003 c 0
 676 1011 676 1019 676 1026 c 0
 676 1094 609 1122 556 1122 c 1
 489 1122 450 1073 437 1007 c 0
 407 851 370 637 333 450 c 0
 325 410 319 370 311 331 c 0
 295 251 278 176 247 117 c 0
 204 35 92 -9 31 -37 c 1
 16 46 2 128 -13 211 c 1
 9 221 30 235 43 261 c 0
 56 287 63 323 78 398 c 0
 81 413 84 429 88 448 c 0
 126 635 153 829 187 1003 c 0xfc
EndSplineSet
Validated: 1
EndChar
StartChar: ae
Encoding: 230 230 65
Width: 1060
VWidth: 6
Flags: W
HStem: 0 208<630.549 769.447> 4 158<206.461 352.636> 508 153<295.145 433.774> 808 210<300.707 470.438 730.502 846.472>
VStem: -1 236<162.281 427.849> 850 194<648.73 805.783>
AnchorPoint: "above_accent" 642 1107 basechar 0
LayerCount: 2
Fore
SplineSet
693 616 m 1x3c
 692 609 690 602 689 595 c 1
 820 632 850 682 850 736 c 0
 850 783 830 808 784 808 c 0
 744 808 721 777 693 616 c 1x3c
244 322 m 0
 238 290 235 263 235 241 c 0
 235 188 251 162 278 162 c 0x7c
 368 162 391 299 407 327 c 1
 416 376 426 425 435 474 c 1
 397 499 392 508 338 508 c 0
 305 508 263 423 244 322 c 0
647 0 m 0xbc
 489 0 466 75 449 97 c 1
 412 63 341 4 238 4 c 0x7c
 175 4 113 19 66 57 c 0
 17 97 -1 156 -1 222 c 0
 -1 250 2 280 8 309 c 0
 41 476 140 661 344 661 c 0
 421 661 430 645 465 629 c 1
 472 663 477 696 477 723 c 0
 477 774 458 808 389 808 c 1
 386 808 383 808 380 808 c 1
 327 808 305 788 259 702 c 1
 198 729 138 757 77 784 c 1
 183 970 305 1018 423 1018 c 0
 479 1018 524 1015 576 968 c 1
 592 952 607 928 615 909 c 1
 637 935 712 1018 814 1018 c 1
 954 1018 1044 930 1044 750 c 0
 1044 573 942 456 646 375 c 1
 624 274 l 1
 632 232 638 208 677 208 c 0
 752 208 772 244 787 290 c 1
 846 266 904 242 963 218 c 1
 963 218 872 0 647 0 c 0xbc
EndSplineSet
Validated: 1
EndChar
StartChar: ccedilla
Encoding: 231 231 81
Width: 1060
VWidth: 12
Flags: W
HStem: -436 172<218.374 441.235> -6 209<516.569 646.569> 807 211<495.435 797.893>
VStem: 77 264<251.475 618.581> 445 224<-256.538 -160.055>
LayerCount: 2
Fore
SplineSet
355 528 m 0
 345 479 341 437 341 402 c 0
 341 208 466 203 506 203 c 0
 510 203 514 203 518 203 c 0
 618 203 685 269 749 350 c 1
 816 305 882 261 949 216 c 1
 858 75 723 2 526 -6 c 1
 521 -28 516 -55 515 -57 c 1
 600 -61 669 -106 669 -195 c 0
 669 -207 668 -220 665 -233 c 0
 638 -362 512 -436 354 -436 c 0
 288 -436 199 -418 150 -382 c 1
 180 -333 209 -283 239 -234 c 1
 269 -252 310 -264 361 -264 c 0
 397 -264 435 -252 445 -214 c 0
 445 -213 445 -213 445 -212 c 0
 446 -209 446 -205 446 -202 c 0
 446 -177 426 -157 384 -157 c 0
 336 -157 303 -159 273 -169 c 1
 284 -109 296 -50 307 10 c 1
 260 22 216 41 180 73 c 0
 107 140 77 230 77 342 c 0
 77 398 85 460 98 527 c 0
 164 867 372 1018 687 1018 c 0
 869 1018 985 960 1069 876 c 1
 1012 809 954 743 897 676 c 1
 877 720 768 807 628 807 c 0
 481 807 384 671 355 528 c 0
EndSplineSet
Validated: 1
EndChar
StartChar: eth
Encoding: 240 240 205
Width: 1060
VWidth: 6
Flags: W
HStem: 1 210<355.598 590.437> 1012 21G<312.5 359> 1424 20G<621 672 998.5 1054>
VStem: 62 254<249.134 613.141> 759 254<417.793 782.674>
LayerCount: 2
Fore
SplineSet
686 825 m 1
 440 825 355 651 327 504 c 0
 320 467 316 429 316 394 c 0
 316 294 350 211 450 211 c 0
 620 211 708 333 748 540 c 0
 755 576 759 608 759 636 c 0
 759 705 736 757 686 825 c 1
482 1258 m 1
 467 1292 421 1323 420 1331 c 1
 500 1369 581 1406 661 1444 c 1
 683 1404 716 1363 737 1328 c 1
 842 1359 946 1391 1051 1422 c 1
 1057 1355 1064 1287 1070 1220 c 1
 984 1207 899 1194 813 1181 c 1
 925 1005 1013 863 1013 672 c 0
 1013 630 1009 586 1000 539 c 0
 935 201 731 1 409 1 c 1
 408 1 408 1 407 1 c 1
 179 2 62 158 62 374 c 0
 62 416 66 459 75 504 c 0
 113 695 247 994 620 1018 c 1
 614 1029 592 1071 569 1101 c 1
 471 1072 402 1041 316 1012 c 1
 309 1079 303 1147 296 1214 c 1
 296 1214 417 1236 482 1258 c 1
EndSplineSet
Validated: 1
EndChar
StartChar: divide
Encoding: 247 247 146
Width: 1060
VWidth: 6
Flags: W
HStem: 2 282<333.462 598.538> 413 244<118 964.25> 758 280<480.462 745.538>
LayerCount: 2
Fore
SplineSet
483 1038 m 1
 588 1038 693 1038 798 1038 c 1
 780 945 761 851 743 758 c 1
 638 758 533 758 428 758 c 1
 446 851 465 945 483 1038 c 1
336 284 m 1
 441 284 546 284 651 284 c 1
 633 190 614 96 596 2 c 1
 491 2 386 2 281 2 c 1
 299 96 318 190 336 284 c 1
118 654 m 1
 163 656 214 657 264 657 c 0
 364 657 464 654 532 654 c 0
 651 654 l 0
 733 654 885 653 992 652 c 1
 998 652 1004 652 1010 652 c 1
 994 570 978 489 962 407 c 1
 956 407 950 407 944 407 c 1
 810 410 608 410 483 410 c 0
 440 410 349 413 249 413 c 0
 192 413 133 412 77 409 c 1
 85 450 92 490 100 531 c 1
 106 572 112 613 118 654 c 1
EndSplineSet
Validated: 1
EndChar
StartChar: oslash
Encoding: 248 248 140
Width: 1060
VWidth: 6
Flags: W
HStem: -6 203<369.79 590.092> 830 202<480.447 685.741>
AnchorPoint: "above_accent" 643 1107 basechar 0
LayerCount: 2
Fore
SplineSet
598 247 m 1
 655 299 690 403 713 530 c 0
 714 536 715 540 716 546 c 0
 719 560 721 573 723 586 c 1
 601 477 480 368 358 259 c 1
 380 220 418 197 471 197 c 0
 526 198 555 211 598 247 c 1
980 1067 m 1
 1021 1020 1062 974 1103 927 c 1
 1060 889 1017 850 974 812 c 1
 983 777 987 736 987 693 c 0
 987 643 981 591 972 543 c 0
 918 258 769 -6 433 -6 c 1
 432 -6 432 -6 431 -6 c 1
 306 -6 218 25 160 80 c 1
 130 53 101 27 71 0 c 1
 31 44 -9 89 -49 133 c 1
 -7 171 35 210 77 248 c 1
 73 271 72 295 72 321 c 0
 72 365 77 413 87 464 c 0
 159 835 339 1032 631 1032 c 0
 740 1032 817 1011 873 970 c 1
 909 1002 944 1035 980 1067 c 1
688 802 m 1
 668 820 642 830 606 830 c 0
 457 830 384 693 344 490 c 1
 459 594 573 698 688 802 c 1
EndSplineSet
Validated: 1
EndChar
StartChar: thorn
Encoding: 254 254 206
Width: 1060
VWidth: -2
Flags: W
HStem: -8 201<383.967 600.593> 811 200<500.127 718.401> 1291 20G<451 491>
VStem: -38 249<-398 -118.344> 257 237<999.859 1286.26> 737 260<442.384 798.521>
LayerCount: 2
Fore
SplineSet
173 739 m 1
 193 844 214 949 234 1054 c 1
 250 1137 254 1220 257 1285 c 1
 335 1294 412 1302 490 1311 c 1
 492 1297 494 1279 494 1259 c 0
 494 1244 493 1228 490 1211 c 0
 473 1114 453 1018 434 921 c 1
 502 983 592 1011 704 1011 c 0
 918 1011 997 895 997 717 c 0
 997 666 991 610 979 551 c 0
 912 215 797 -8 435 -8 c 0
 335 -8 296 29 273 60 c 1
 269 20 269 -17 263 -61 c 1
 257 -91 251 -122 245 -152 c 1
 227 -246 217 -330 211 -398 c 1
 128 -400 45 -403 -38 -405 c 1
 -33 -332 -19 -237 -1 -146 c 1
 57 149 115 444 173 739 c 1
719 531 m 0
 731 593 737 643 737 684 c 0
 737 771 709 811 649 811 c 0
 520 811 463 744 401 656 c 1
 379 541 357 426 335 311 c 1
 362 253 405 193 480 193 c 0
 595 193 667 264 719 531 c 0
EndSplineSet
Validated: 1
EndChar
StartChar: Aogonek
Encoding: 260 260 209
Width: 1060
VWidth: 32
Flags: W
HStem: -501 196<533.644 769.515> 0 21G<-69 196.5> 281 223<409.995 673> 1305 20G<505.5 845.5>
VStem: 277 256<-381 -180.712> 686 273<82.375 281 504 531.049>
LayerCount: 2
Fore
SplineSet
953 0 m 1
 694 -100 561 -145 534 -248 c 0
 533 -251 533 -253 533 -256 c 0
 533 -293 583 -305 643 -305 c 0
 701 -305 747 -276 781 -254 c 1
 813 -301 845 -348 877 -395 c 1
 824 -443 695 -501 595 -501 c 0
 430 -501 277 -455 277 -307 c 0
 277 -292 279 -275 282 -257 c 0
 318 -58 567 -12 685 82 c 1
 686 90 686 98 686 106 c 0
 686 127 684 147 682 167 c 1
 679 205 676 243 673 281 c 1
 520 278 436 282 310 252 c 1
 294 222 278 192 262 162 c 1
 230 101 202 43 191 0 c 1
 104 0 18 0 -69 0 c 1
 -53 61 -14 143 28 223 c 1
 219 590 410 958 601 1325 c 1
 676 1325 750 1325 825 1325 c 1
 866 965 907 604 948 244 c 1
 953 194 959 144 959 93 c 0
 959 62 957 32 951 2 c 1
 952 1 952 1 953 0 c 1
674 504 m 1
 674 511 l 0
 674 625 636 773 636 905 c 0
 636 937 638 968 644 998 c 1
 605 830 472 625 407 486 c 1
 470 499 590 499 674 504 c 1
EndSplineSet
Validated: 1
EndChar
StartChar: aogonek
Encoding: 261 261 210
Width: 1060
VWidth: 6
Flags: W
HStem: -502 196<471.917 703.812> -11 200<255.5 509.277> 819 209<467.306 686.696>
VStem: 69 249<196.7 585.735> 212 256<-382 -205.967>
LayerCount: 2
Fore
SplineSet
343 513 m 0xf0
 325 423 318 358 318 311 c 0
 318 190 367 189 413 189 c 0
 523 189 641 375 670 431 c 1
 689 530 709 630 728 729 c 1
 700 771 641 819 577 819 c 0
 511 819 396 779 343 513 c 0xf0
891 316 m 0
 886 289 883 267 883 249 c 0
 883 202 900 184 926 184 c 1
 981 46 l 1
 485 -201 468 -230 468 -257 c 0
 468 -294 518 -306 578 -306 c 0
 636 -306 681 -277 715 -255 c 1
 747 -302 780 -349 812 -396 c 1
 759 -444 629 -502 529 -502 c 0
 364 -502 212 -456 212 -308 c 0xe8
 212 -184 335 -112 728 96 c 1
 714 108 700 138 700 165 c 0
 700 172 700 178 701 185 c 1
 586 53 459 -11 323 -11 c 0
 188 -11 69 51 69 302 c 0
 69 368 78 448 96 543 c 0
 172 937 430 1028 576 1028 c 0
 657 1028 740 997 778 941 c 1
 785 969 791 997 798 1025 c 1
 1028 1013 l 1
 982 781 936 548 891 316 c 0
EndSplineSet
Validated: 1
EndChar
StartChar: dcroat
Encoding: 273 273 213
Width: 1060
VWidth: -2
Flags: W
HStem: -7 180<373.737 551.89> 813 200<491.411 684.294> 1093 194<571.574 816 1104 1109.43> 1392 20G<885 932>
VStem: 89 259<195.099 564.303>
LayerCount: 2
Fore
SplineSet
366 478 m 0
 355 420 348 369 348 326 c 0
 348 229 380 173 455 173 c 0
 516 173 600 247 671 349 c 1
 693 460 714 572 736 683 c 1
 714 738 667 813 595 813 c 0
 503 813 416 741 366 478 c 0
107 459 m 0
 181 840 337 1013 600 1013 c 0
 714 1013 776 958 808 930 c 1
 808 944 807 957 807 970 c 0
 807 1011 810 1049 816 1093 c 1
 723 1093 629 1093 536 1093 c 1
 549 1158 561 1222 574 1287 c 1
 668 1287 763 1287 857 1287 c 1
 868 1332 879 1375 891 1412 c 1
 973 1409 1056 1406 1138 1403 c 1
 1127 1368 1115 1329 1104 1287 c 1
 1118 1287 1131 1287 1145 1287 c 1
 1132 1222 1120 1158 1107 1093 c 1
 1092 1093 1077 1093 1062 1093 c 1
 1010 824 952 496 901 267 c 0
 899 259 898 251 896 243 c 0
 878 161 872 73 869 7 c 1
 802 0 736 -6 669 -13 c 1
 669 -13 644 37 644 78 c 0
 644 83 644 88 645 93 c 1
 597 40 509 -7 385 -7 c 0
 185 -7 89 94 89 291 c 0
 89 341 95 397 107 459 c 0
EndSplineSet
Validated: 1
EndChar
StartChar: Eogonek
Encoding: 280 280 218
Width: 1060
VWidth: 32
Flags: W
HStem: -501 195<442.644 678.027> 0 204<323 487> 646 203<450 751.438> 1118 205<493.966 1033.45>
VStem: 186 256<-381 -183.5>
LayerCount: 2
Fore
SplineSet
283 1319 m 1
 340 1323 410 1323 488 1323 c 0
 586 1323 l 1
 623 1323 659 1323 696 1323 c 1
 845 1323 981 1320 1055 1320 c 1
 1060 1320 1066 1320 1071 1320 c 1
 1058 1253 1044 1185 1031 1118 c 1
 855 1118 678 1118 502 1118 c 1
 485 1028 467 939 450 849 c 1
 563 849 675 849 788 849 c 1
 775 781 762 714 749 646 c 1
 636 646 524 646 411 646 c 1
 409 636 407 625 405 615 c 1
 365 408 338 283 323 204 c 1
 462 205 600 205 739 206 c 1
 795 206 869 233 869 233 c 1
 880 167 892 100 903 34 c 1
 595 -126 469 -149 443 -249 c 0
 442 -252 442 -254 442 -257 c 0
 442 -294 492 -306 552 -306 c 0
 610 -306 655 -277 689 -255 c 1
 721 -302 754 -349 786 -396 c 1
 733 -444 604 -501 504 -501 c 0
 339 -501 186 -455 186 -307 c 0
 186 -292 188 -275 191 -257 c 0
 214 -132 315 -89 487 0 c 1
 334 0 180 0 27 0 c 1
 112 440 198 879 283 1319 c 1
EndSplineSet
Validated: 1
EndChar
StartChar: eogonek
Encoding: 281 281 219
Width: 1060
VWidth: 32
Flags: W
HStem: -502 196<401.917 633.812> 818 203<490.842 711.12>
VStem: 142 256<-382 -192.81> 738 253<630.154 791.478>
LayerCount: 2
Fore
SplineSet
421 -9 m 1
 201 2 88 146 88 366 c 0
 88 413 93 463 103 516 c 0
 158 802 349 1021 632 1021 c 0
 913 1021 991 852 991 717 c 0
 991 682 984 639 975 615 c 0
 913 450 740 379 343 332 c 1
 343 268 400 196 495 196 c 0
 601 196 715 223 813 295 c 1
 847 235 881 175 915 115 c 1
 433 -154 398 -206 398 -257 c 0
 398 -294 448 -306 508 -306 c 0
 566 -306 611 -277 645 -255 c 1
 677 -302 710 -349 742 -396 c 1
 689 -444 559 -502 459 -502 c 0
 294 -502 142 -456 142 -308 c 0
 142 -222 191 -156 421 -9 c 1
363 542 m 1
 497 558 658 600 687 624 c 0
 711 644 738 678 738 711 c 0
 738 762 703 818 595 818 c 0
 497 818 396 714 363 542 c 1
EndSplineSet
Validated: 1
EndChar
StartChar: Hbar
Encoding: 294 294 232
Width: 1060
VWidth: 0
Flags: W
HStem: 0 21G<-15 261 600 887> 599 215<398.475 716> 991 207<155.551 178 475 793 1088 1130.45> 1302 15G<456 495 850.5 1111>
LayerCount: 2
Fore
SplineSet
218 1198 m 1
 226 1239 234 1279 242 1320 c 1
 328 1321 413 1321 499 1322 c 1
 491 1281 483 1239 475 1198 c 1
 594 1198 713 1198 832 1198 c 1
 839 1234 846 1271 855 1317 c 1
 940 1317 1026 1317 1111 1317 c 1
 1103 1277 1096 1238 1088 1198 c 1
 1115 1198 1141 1198 1168 1198 c 1
 1155 1129 1141 1060 1128 991 c 1
 1101 991 1075 991 1048 991 c 1
 984 661 919 330 855 0 c 1
 770 0 685 0 600 0 c 1
 639 200 677 399 716 599 c 1
 705 599 695 599 684 599 c 1
 538 599 475 596 352 570 c 1
 284 220 279 185 243 0 c 1
 157 0 71 0 -15 0 c 1
 49 330 114 661 178 991 c 1
 158 991 138 991 118 991 c 1
 131 1060 145 1129 158 1198 c 1
 178 1198 198 1198 218 1198 c 1
793 991 m 1
 673 991 554 991 434 991 c 1
 421 922 407 854 394 785 c 1
 490 806 551 814 671 814 c 1
 700 814 729 814 758 814 c 1
 772 886 784 943 793 991 c 1
EndSplineSet
Validated: 1
EndChar
StartChar: hbar
Encoding: 295 295 233
Width: 1060
VWidth: -2
Flags: W
HStem: -11 11G<65 333 686 730.5> 812 200<533.755 748.18> 1114 207<179.551 283 564 858.449> 1391 20G<531.5 572>
VStem: 315 249<1321 1402> 674 248<17.0521 338.023> 769 255<425.82 791.26>
LayerCount: 2
Fore
SplineSet
1007 566 m 1xfa
 984 450 962 334 939 218 c 1
 929 166 922 116 922 77 c 0
 922 55 924 36 929 22 c 1
 850 4 770 -14 691 -32 c 1
 681 -14 674 16 674 59 c 0xfc
 674 91 678 129 687 176 c 1
 707 281 728 386 748 491 c 1
 763 566 769 623 769 667 c 0
 769 805 707 812 637 812 c 0
 565 812 488 737 444 682 c 1
 400 455 355 227 311 0 c 1
 229 0 147 0 65 0 c 1
 138 371 210 743 283 1114 c 1
 236 1114 189 1114 142 1114 c 1
 155 1183 169 1252 182 1321 c 1
 226 1321 271 1321 315 1321 c 1
 318 1350 322 1377 324 1402 c 1
 407 1405 490 1408 573 1411 c 1
 571 1384 568 1353 564 1321 c 1
 675 1321 785 1321 896 1321 c 1
 883 1252 869 1183 856 1114 c 1
 747 1114 638 1114 529 1114 c 1
 514 1045 498 995 470 929 c 1
 512 957 596 1012 710 1012 c 0
 914 1012 1024 930 1024 725 c 0
 1024 678 1019 626 1007 566 c 1xfa
EndSplineSet
Validated: 1
EndChar
StartChar: Iogonek
Encoding: 302 302 240
Width: 1060
VWidth: 32
Flags: W
HStem: -500 196<364.644 600.515> 4 214<100 341.29 641.936 775.962> 1112 212<312.878 509 756.837 995.969>
VStem: 108 256<-380 -171.72>
LayerCount: 2
Fore
SplineSet
314 1324 m 1
 471 1328 572 1329 668 1329 c 0
 773 1329 873 1328 1036 1326 c 1
 1022 1256 1008 1185 994 1115 c 1
 871 1115 860 1120 765 1120 c 1
 707 820 648 519 590 219 c 1
 636 219 621 220 672 220 c 0
 717 220 764 219 815 216 c 1
 801 144 788 71 774 -1 c 1
 514 -66 391 -147 365 -247 c 0
 364 -250 364 -252 364 -255 c 0
 364 -292 414 -304 474 -304 c 0
 532 -304 578 -275 612 -253 c 1
 644 -300 676 -347 708 -394 c 1
 655 -442 526 -500 426 -500 c 0
 261 -500 108 -454 108 -306 c 0
 108 -291 110 -274 113 -256 c 0
 134 -137 226 -77 390 4 c 1
 315 3 200 -3 58 -3 c 1
 72 69 86 141 100 213 c 1
 186 217 224 218 281 218 c 1
 298 218 316 218 333 218 c 1
 392 518 450 819 509 1119 c 1
 443 1118 386 1118 279 1112 c 1
 291 1183 302 1253 314 1324 c 1
EndSplineSet
Validated: 1
EndChar
StartChar: iogonek
Encoding: 303 303 241
Width: 1060
VWidth: 32
Flags: W
HStem: -501 195<503.77 738.661> 813 200<209.635 437> 1181 225<524.364 777.636>
VStem: 247 256<-297.583 -171.396> 312 272<119.5 334.499>
LayerCount: 2
Fore
SplineSet
527 1406 m 1xe0
 624 1406 721 1406 818 1406 c 1
 804 1331 789 1256 775 1181 c 1
 678 1181 581 1181 484 1181 c 1
 498 1256 513 1331 527 1406 c 1xe0
476 1013 m 1
 561 1013 646 1013 731 1013 c 1
 678 740 588 274 588 274 c 2
 586 261 584 249 584 239 c 0xe8
 584 200 606 182 679 182 c 0
 772 182 839 215 910 273 c 1
 930 210 950 146 970 83 c 1
 968 81 965 79 962 77 c 0
 664 -125 516 -130 504 -248 c 0
 504 -250 503 -253 503 -255 c 0
 503 -289 553 -306 613 -306 c 0
 671 -306 717 -276 751 -254 c 1
 783 -301 815 -349 847 -396 c 1
 794 -444 665 -501 565 -501 c 0
 400 -501 247 -455 247 -307 c 0xf0
 247 -292 249 -275 252 -257 c 0
 272 -145 369 -96 512 -14 c 1
 454 -8 404 3 376 20 c 0
 325 51 312 97 312 142 c 0xe8
 312 164 315 186 319 206 c 1
 358 408 398 611 437 813 c 1
 388 813 297 807 198 785 c 1
 200 847 203 909 205 971 c 1
 304 999 396 1013 476 1013 c 1
EndSplineSet
Validated: 1
EndChar
StartChar: dotlessi
Encoding: 305 305 177
Width: 1060
VWidth: 0
Flags: W
HStem: -18 200<494 844.134> 1019 20G<453.5 522.5>
VStem: 321 272<123 385.182>
AnchorPoint: "above_accent" 605 1107 basechar 0
LayerCount: 2
Fore
SplineSet
481 1039 m 1
 564 1030 648 1022 731 1013 c 1
 678 740 598 326 598 326 c 1
 595 309 593 292 593 275 c 0
 593 226 611 182 679 182 c 0
 772 182 839 215 910 273 c 1
 930 210 950 146 970 83 c 1
 870 12 714 -18 590 -18 c 0
 398 -18 321 61 321 185 c 0
 321 208 324 232 329 258 c 1
 360 418 391 577 422 737 c 1
 422 737 388 703 288 655 c 1
 251 716 214 778 177 839 c 1
 301 879 426 937 481 1039 c 1
EndSplineSet
Validated: 1
EndChar
StartChar: IJ
Encoding: 306 306 243
Width: 1060
VWidth: 0
Flags: W
HStem: 0 212<-23 65.5284 317 330.969 562.871 742.863> 1108 216<190.784 234.734 492.89 548.656 713.081 886.241 1122 1196.1> 1119 210<185.979 236 483.837 547.11>
VStem: 409 238<215.402 432.253> 887 235<639.033 1103.1>
LayerCount: 2
Fore
SplineSet
656 0 m 0xd8
 473 0 409 130 409 292 c 0
 409 338 414 386 423 435 c 1
 501 435 580 434 658 434 c 1
 651 387 647 348 647 316 c 0
 647 245 664 212 691 212 c 0
 752 212 781 303 845 639 c 0
 859 714 887 906 887 1027 c 0
 887 1058 886 1085 881 1104 c 1
 832 1104 837 1108 809 1108 c 1
 730 1105 719 1096 698 1090 c 1
 703 1161 707 1231 712 1302 c 1
 735 1309 761 1321 850 1324 c 1
 959 1324 1121 1323 1238 1323 c 1
 1223 1251 1209 1178 1194 1106 c 1
 1158 1106 1172 1107 1122 1107 c 1
 1122 988 1110 750 1088 639 c 0
 1013 260 926 0 656 0 c 0xd8
192 1324 m 1
 279 1328 334 1329 387 1329 c 0
 445 1329 499 1328 589 1326 c 1
 575 1256 562 1185 548 1115 c 1
 529 1117 511 1118 492 1120 c 1
 434 820 375 520 317 220 c 1
 335 219 353 217 371 216 c 1
 357 144 343 71 329 -1 c 1
 283 4 250 5 215 5 c 0
 189 5 162 4 130 4 c 0
 89 4 20 -3 -65 -3 c 1
 -51 69 -37 141 -23 213 c 1
 16 216 37 218 60 218 c 1
 119 518 177 819 236 1119 c 1xb8
 209 1117 181 1114 154 1112 c 1
 167 1183 179 1253 192 1324 c 1
EndSplineSet
Validated: 1
EndChar
StartChar: ij
Encoding: 307 307 244
Width: 1060
VWidth: 0
Flags: W
HStem: -390 202<300.428 603.594> -18 200<345 546.669> 794 186<121 250.609 647 817.304> 813 200<125.562 251 651.592 819> 1181 225<339.364 593.636 889.364 1141.64>
VStem: 126 268<120.5 398.265>
LayerCount: 2
Fore
SplineSet
290 1013 m 1xdc
 375 1013 461 1013 546 1013 c 1
 498 767 450 520 402 274 c 1
 398 251 394 232 394 218 c 0
 394 193 405 182 443 182 c 0
 503 182 515 184 564 242 c 1
 584 189 603 136 623 83 c 1
 554 12 451 -18 372 -18 c 0
 318 -18 230 -4 191 20 c 0
 140 52 126 98 126 143 c 0
 126 165 129 187 133 206 c 1
 172 408 212 611 251 813 c 1
 226 813 l 0xdc
 202 813 193 811 115 794 c 1
 117 856 119 918 121 980 c 1xec
 220 1008 210 1013 290 1013 c 1xdc
900 -78 m 1
 870 -231 757 -389 471 -389 c 3
 445 -389 419 -390 393 -390 c 0
 298 -390 198 -376 26 -244 c 1
 87 -186 148 -128 209 -70 c 1
 314 -186 418 -188 482 -188 c 0
 488 -188 l 0
 506 -188 l 3
 626 -188 643 -83 652 -48 c 1
 708 239 763 526 819 813 c 1
 789 813 l 0xdc
 754 813 719 811 641 794 c 1
 643 856 645 918 647 980 c 1xec
 746 1008 778 1013 858 1013 c 1
 943 1013 1027 1013 1112 1013 c 1
 1041 649 971 286 900 -78 c 1
892 1406 m 1
 989 1406 1085 1406 1182 1406 c 1
 1168 1331 1153 1256 1139 1181 c 1
 1042 1181 946 1181 849 1181 c 1
 863 1256 878 1331 892 1406 c 1
342 1406 m 1
 439 1406 537 1406 634 1406 c 1
 620 1331 605 1256 591 1181 c 1
 494 1181 396 1181 299 1181 c 1
 313 1256 328 1331 342 1406 c 1
EndSplineSet
Validated: 1
EndChar
StartChar: lcaron
Encoding: 318 318 255
Width: 1060
VWidth: 32
Flags: W
HStem: -18 215<491.285 818.08> 1013 21G<764.909 951.5> 1410 20G<791 917.919> 1422 20G<359 434.5>
VStem: 186 265<236.501 559.992>
LayerCount: 2
Fore
SplineSet
1019 1393 m 1xe8
 989 1278 969 1167 934 1013 c 1
 748 1035 l 1
 762 1180 783 1325 799 1430 c 1
 1019 1393 l 1xe8
EndSplineSet
Refer: 12 108 N 1 0 0 1 0 0 2
Validated: 1
EndChar
StartChar: Lslash
Encoding: 321 321 258
Width: 1060
VWidth: 0
Flags: W
HStem: -3 210<486 919.823> 999 20G<833.5 887> 1305 20G<431.5 704>
LayerCount: 2
Fore
SplineSet
292 513 m 1
 243 490 195 466 146 443 c 1
 124 508 103 572 81 637 c 1
 167 679 254 720 340 762 c 1
 377 950 413 1137 450 1325 c 1
 535 1325 619 1325 704 1325 c 1
 676 1182 648 1039 620 896 c 1
 705 937 791 978 876 1019 c 1
 898 954 919 889 941 824 c 1
 818 765 695 706 572 647 c 1
 543 500 515 354 486 207 c 1
 592 207 698 207 804 207 c 1
 864 210 875 213 922 228 c 1
 933 162 945 97 956 31 c 1
 906 15 840 -3 765 -3 c 1
 574 -3 382 -3 191 -3 c 1
 225 169 258 341 292 513 c 1
EndSplineSet
Validated: 1
EndChar
StartChar: lslash
Encoding: 322 322 259
Width: 1060
VWidth: -2
Flags: W
HStem: -18 215<491.285 818.08> 1148 211<687.428 966.281> 1392 20G<918 960.647>
VStem: 35 244<1070 1200.44> 186 265<236.501 540.679>
LayerCount: 2
Fore
SplineSet
35 1070 m 1xf0
 35 1302 141 1450 435 1450 c 0
 559 1450 637 1421 737 1386 c 0
 798 1365 830 1359 856 1359 c 0
 892 1359 913 1372 923 1412 c 1
 1115 1310 l 1
 1041 1182 959 1148 855 1148 c 0
 808 1148 745 1163 685 1188 c 0
 677 1191 668 1195 660 1198 c 1
 660 1198 527 762 459 435 c 0
 453 404 451 378 451 354 c 0
 451 247 505 197 624 197 c 0
 717 197 820 232 899 284 c 1
 923 217 946 150 970 83 c 1
 870 12 722 -18 598 -18 c 0
 338 -18 186 113 186 288 c 0xe8
 186 317 189 347 195 379 c 0
 251 678 411 1249 411 1249 c 1
 351 1238 279 1205 279 1070 c 1
 35 1070 l 1xf0
EndSplineSet
Validated: 1
EndChar
StartChar: Eng
Encoding: 330 330 266
Width: 1060
VWidth: 0
Flags: W
HStem: -396 222<279.364 507.402> -3 21G<33.5 41.5> 1087 209<569.704 784.503> 1299 20G<384.5 424>
VStem: 216 220<1147 1266.64> 805 248<700.373 1063.34>
LayerCount: 2
Fore
SplineSet
717 1296 m 1
 956 1296 1053 1164 1053 982 c 0
 1053 943 1048 902 1040 860 c 0
 995 629 955 400 909 165 c 1
 907 154 904 142 902 131 c 1
 852 -125 773 -396 273 -396 c 1
 262 -396 250 -396 239 -396 c 1
 253 -322 268 -248 282 -174 c 1
 567 -174 614 -58 646 106 c 1
 694 355 743 603 791 852 c 1
 800 898 805 935 805 966 c 0
 805 1058 763 1087 674 1087 c 0
 569 1087 471 938 422 870 c 1
 366 580 309 290 253 0 c 1
 168 -1 84 -2 -1 -3 c 1
 68 351 137 705 206 1059 c 1
 213 1097 216 1132 216 1162 c 0
 216 1221 206 1259 206 1259 c 1
 277 1279 349 1299 420 1319 c 1
 428 1290 436 1265 436 1222 c 0
 436 1207 435 1190 433 1171 c 1
 523 1246 601 1296 717 1296 c 1
EndSplineSet
Validated: 1
EndChar
StartChar: eng
Encoding: 331 331 267
Width: 1060
VWidth: 6
Flags: W
HStem: -407 219<302 433.487> 0 21G<25 299.5> 819 207<536.449 797> 1032 20G<389 431>
VStem: 192 251<927 1006.25> 707 270<594.756 911>
LayerCount: 2
Fore
SplineSet
443 927 m 1
 509 977 614 1026 724 1026 c 0
 870 1026 977 974 977 848 c 0
 977 832 976 814 972 796 c 1
 938 623 905 451 871 278 c 1
 794 -119 674 -407 260 -407 c 1
 274 -334 288 -261 302 -188 c 1
 518 -188 571 34 602 191 c 1
 634 360 667 530 699 699 c 1
 704 723 707 744 707 762 c 0
 707 798 693 819 648 819 c 0
 585 819 512 781 413 707 c 1
 368 471 322 236 277 0 c 1
 193 0 109 0 25 0 c 1
 71 235 116 471 162 706 c 1
 185 824 192 876 192 924 c 0
 192 949 190 972 188 1004 c 1
 268 1020 349 1036 429 1052 c 1
 433 1031 443 987 443 943 c 0
 443 927 l 1
EndSplineSet
Validated: 1
EndChar
StartChar: OE
Encoding: 338 338 149
Width: 1060
VWidth: 0
Flags: W
HStem: -8 205<311.244 399.407 651 910.763> 644 205<776 947.449> 1127 203<496.991 581 821.562 1106>
VStem: 24 260<222.031 677.406>
LayerCount: 2
Fore
SplineSet
400 199 m 1
 460 508 521 818 581 1127 c 1
 472 1127 378 951 305 578 c 0
 291 506 284 440 284 385 c 0
 284 268 316 197 381 197 c 0
 397 197 387 198 400 199 c 1
776 206 m 1
 835 208 865 216 913 232 c 1
 922 165 931 99 940 32 c 1
 828 3 703 -1 592 -1 c 0
 545 -1 495 0 440 0 c 1
 422 -7 326 -8 311 -8 c 0
 93 -4 24 150 24 347 c 0
 24 425 35 510 52 597 c 0
 137 1033 293 1330 628 1330 c 0
 654 1330 681 1328 706 1323 c 1
 766 1326 829 1326 892 1326 c 0
 977 1326 1063 1325 1145 1325 c 1
 1132 1259 1119 1193 1106 1127 c 1
 1014 1127 1022 1128 951 1128 c 0
 916 1128 877 1128 830 1127 c 1
 812 1034 794 942 776 849 c 1
 846 849 915 849 985 849 c 1
 972 781 958 712 945 644 c 1
 875 644 806 644 736 644 c 1
 697 442 666 286 651 207 c 1
 693 207 734 206 776 206 c 1
EndSplineSet
Validated: 1
EndChar
StartChar: oe
Encoding: 339 339 95
Width: 1060
VWidth: 6
Flags: W
HStem: 0 208<232.535 364.05 628.612 770.607> 812 205<375.941 472.334 737.526 851.012>
VStem: 20 233<209.376 577.097> 854 190<655.448 805.212>
LayerCount: 2
Fore
SplineSet
963 218 m 1
 963 218 836 0 633 0 c 0
 541 0 472 40 430 95 c 1
 400 63 335 0 261 0 c 0
 205 0 137 5 74 91 c 0
 32 148 20 224 20 294 c 0
 20 360 31 421 38 459 c 0
 47 505 63 585 83 635 c 1
 128 758 241 1017 450 1017 c 0
 529 1017 562 990 596 954 c 0
 605 945 611 937 615 931 c 1
 645 968 699 1018 814 1018 c 0
 977 1018 1044 885 1044 756 c 0
 1044 617 960 459 647 362 c 1
 624 274 l 1
 632 232 638 208 677 208 c 0
 752 208 772 244 787 290 c 1
 846 266 904 242 963 218 c 1
691 609 m 1
 690 602 688 595 687 588 c 1
 828 646 854 687 854 743 c 0
 854 787 835 808 787 808 c 0
 754 808 725 783 691 609 c 1
295 208 m 0
 347 208 390 279 401 338 c 1
 425 458 449 578 473 698 c 1
 474 705 477 720 477 737 c 0
 477 771 467 812 419 812 c 0
 391 812 313 687 269 474 c 0
 266 456 l 0
 259 418 253 369 253 325 c 0
 253 262 264 208 295 208 c 0
EndSplineSet
Validated: 1
EndChar
StartChar: Scedilla
Encoding: 350 350 284
Width: 1060
VWidth: 32
Flags: W
HStem: -449 172<242.374 465.281> -170 370<334.245 469.985> -2 202<545.508 628.012> 1118 210<486.318 738.489>
VStem: 23 268<237.995 420> 163 274<893.215 1073.97> 469 224<-270.692 -174.055> 720 266<287.553 530.142>
LayerCount: 2
Fore
SplineSet
292 702 m 0xbb
 212 742 163 809 163 918 c 0
 163 945 166 974 172 1006 c 0
 214 1226 398 1328 653 1328 c 0
 662 1328 l 0
 902 1328 1083 1246 1095 1078 c 1
 997 1044 900 1010 802 976 c 1
 776 1077 697 1118 627 1118 c 0
 541 1118 455 1082 441 1014 c 0
 438 1000 437 987 437 976 c 0
 437 909 481 889 527 870 c 0
 641 822 710 813 830 752 c 1
 912 708 986 627 986 486 c 0
 986 458 983 429 977 396 c 0
 929 142 753 28 555 -1 c 1
 551 -19 541 -68 540 -71 c 1
 625 -75 693 -120 693 -209 c 0
 693 -221 692 -233 689 -247 c 0
 663 -377 536 -449 378 -449 c 0
 312 -449 223 -431 174 -395 c 1
 204 -346 233 -297 263 -248 c 1
 293 -266 335 -277 386 -277 c 0
 422 -277 459 -266 469 -228 c 1
 469 -227 469 -227 469 -226 c 1
 470 -223 470 -219 470 -216 c 0
 470 -191 450 -170 408 -170 c 0xd7
 360 -170 327 -173 297 -183 c 1
 309 -123 321 -62 333 -2 c 1
 108 30 23 157 23 317 c 0
 23 351 27 386 34 422 c 1
 122 421 211 421 299 420 c 1
 294 394 291 371 291 350 c 0
 291 252 346 200 471 200 c 0
 579 200 687 236 716 382 c 0
 719 397 720 411 720 424 c 0
 720 506 667 552 605 582 c 0
 499 633 413 641 292 702 c 0xbb
EndSplineSet
Validated: 1
EndChar
StartChar: scedilla
Encoding: 351 351 285
Width: 1060
VWidth: 32
Flags: W
HStem: -460 172<204.374 427.285> 829 200<449.05 714.29>
VStem: 45 256<200.492 330> 183 254<701.61 814.437> 431 224<-281.692 -184.42> 631 256<227.417 410.738>
LayerCount: 2
Fore
SplineSet
281 549 m 0xe4
 221 582 183 641 183 722 c 0
 183 740 185 760 189 781 c 0
 225 967 427 1029 602 1029 c 0
 741 1029 892 1014 979 893 c 1
 909 839 840 784 770 730 c 1
 727 788 662 829 566 829 c 0
 484 829 448 807 440 768 c 0
 438 759 437 752 437 745 c 0
 437 728 443 714 461 701 c 1
 674 607 887 569 887 355 c 0xd4
 887 331 884 306 879 278 c 0
 849 116 686 26 574 0 c 0
 555 -4 537 -8 517 -11 c 1
 512 -36 l 0
 508 -56 503 -80 503 -82 c 1
 587 -86 655 -131 655 -219 c 0
 655 -231 654 -244 651 -258 c 0
 625 -388 498 -460 340 -460 c 0
 274 -460 185 -442 136 -406 c 1
 166 -357 195 -308 225 -259 c 1
 255 -277 298 -288 349 -288 c 0
 385 -288 421 -277 431 -239 c 1
 431 -238 431 -238 431 -237 c 1xc8
 432 -233 432 -229 432 -226 c 0
 432 -201 413 -181 371 -181 c 0
 323 -181 289 -184 259 -194 c 1
 271 -133 283 -73 295 -12 c 1
 134 15 45 112 45 254 c 0
 45 278 48 303 53 330 c 1
 137 330 222 330 306 330 c 1
 302 312 301 296 301 281 c 0
 301 210 344 182 434 182 c 0
 493 182 612 202 627 290 c 0
 629 303 631 315 631 326 c 0
 631 364 615 389 582 415 c 1
 522 459 365 504 281 549 c 0xe4
EndSplineSet
Validated: 1
EndChar
StartChar: Tcommaaccent
Encoding: 354 354 288
Width: 1060
VWidth: 32
Flags: W
HStem: -449 172<208.374 431.281> 1118 207<218.551 497 750.156 1049.96 1050 1075.19>
VStem: 435 224<-269.703 -173.055>
LayerCount: 2
Fore
SplineSet
278 -9 m 1
 351 367 424 742 497 1118 c 1
 299 1118 257 1117 181 1117 c 1
 194 1186 208 1255 221 1324 c 1
 343 1324 798 1325 986 1325 c 0
 1059 1325 1126 1316 1149 1309 c 1
 1116 1241 1083 1174 1050 1106 c 1
 1050 1106 1000 1118 940 1118 c 1
 879 1118 818 1118 757 1118 c 1
 684 742 611 367 538 -9 c 1
 532 -9 525 -9 519 -9 c 1
 515 -30 506 -68 506 -70 c 1
 591 -74 659 -119 659 -208 c 0
 659 -220 658 -232 655 -246 c 0
 629 -376 502 -449 344 -449 c 0
 278 -449 189 -431 140 -395 c 1
 170 -346 199 -296 229 -247 c 1
 259 -265 301 -277 352 -277 c 0
 388 -277 425 -265 435 -227 c 1
 435 -226 435 -226 435 -225 c 1
 436 -221 436 -217 436 -214 c 0
 436 -190 417 -170 375 -170 c 0
 327 -170 294 -172 264 -182 c 1
 275 -124 286 -67 297 -9 c 1
 291 -9 284 -9 278 -9 c 1
EndSplineSet
Validated: 1
EndChar
StartChar: tcommaaccent
Encoding: 355 355 289
Width: 1060
VWidth: 32
Flags: W
HStem: -445 172<260.374 482.785> -4 200<561.754 688.92> 811 204<153.233 228 522 863>
VStem: 120 261<217.373 523.07> 488 223<-266.692 -170.055>
LayerCount: 2
Fore
SplineSet
398 435 m 1
 395 422 393 408 390 395 c 1
 384 364 381 338 381 315 c 0
 381 242 413 211 475 200 c 0
 492 197 526 196 539 196 c 0
 604 196 636 209 664 223 c 0
 722 252 746 320 757 339 c 1
 820 306 882 272 945 239 c 1
 930 211 855 101 730 35 c 0
 683 10 630 0 571 -4 c 1
 567 -25 558 -65 558 -67 c 1
 643 -71 711 -116 711 -205 c 0
 711 -217 710 -229 707 -243 c 0
 681 -373 554 -445 396 -445 c 0
 330 -445 241 -427 192 -391 c 1
 222 -342 251 -293 281 -244 c 1
 311 -262 353 -273 404 -273 c 0
 440 -273 476 -262 486 -224 c 1
 486 -223 487 -223 487 -222 c 1
 488 -218 488 -214 488 -211 c 0
 488 -186 469 -166 427 -166 c 0
 379 -166 345 -169 315 -179 c 1
 327 -119 338 -58 350 2 c 1
 241 18 161 60 132 164 c 0
 124 193 120 223 120 253 c 0
 120 298 128 345 138 397 c 1
 141 411 144 426 147 440 c 1
 166 530 191 648 228 811 c 1
 223 811 219 811 214 811 c 1
 186 811 157 807 130 800 c 1
 137 868 145 935 152 1003 c 1
 178 1012 223 1015 256 1015 c 1
 261 1015 266 1015 271 1015 c 1
 285 1085 304 1179 318 1249 c 1
 401 1247 485 1245 568 1243 c 1
 555 1177 536 1088 522 1020 c 1
 631 1019 897 1016 905 1016 c 1
 891 948 877 880 863 812 c 1
 726 812 613 814 480 814 c 1
 442 647 421 535 398 435 c 1
EndSplineSet
Validated: 1
EndChar
StartChar: tcaron
Encoding: 357 357 291
Width: 1060
VWidth: 32
Flags: W
HStem: -6 202<467.117 740.203> 805 204<521 948>
VStem: 177 254<229.428 472.672>
LayerCount: 2
Fore
SplineSet
949 1476 m 1
 919 1361 899 1249 864 1095 c 1
 678 1117 l 1
 692 1262 714 1407 730 1512 c 1
 949 1476 l 1
EndSplineSet
Refer: 19 116 N 1 0 0 1 0 0 2
Validated: 1
EndChar
StartChar: Tbar
Encoding: 358 358 292
Width: 1060
VWidth: 0
Flags: W
HStem: -9 21G<278 554.5> 504 217<190.375 378 680 849.625> 1118 207<218.551 497 748.502 1049.96 1050 1075.19>
LayerCount: 2
Fore
SplineSet
378 504 m 1
 302 504 227 504 151 504 c 1
 165 576 179 649 193 721 c 1
 269 721 344 721 420 721 c 1
 446 853 471 986 497 1118 c 1
 299 1118 257 1117 181 1117 c 1
 194 1186 208 1255 221 1324 c 1
 343 1324 798 1325 986 1325 c 0
 1059 1325 1126 1316 1149 1309 c 1
 1116 1241 1083 1174 1050 1106 c 1
 1050 1106 1000 1118 940 1118 c 1
 879 1118 818 1118 757 1118 c 1
 731 986 706 853 680 721 c 1
 750 721 819 721 889 721 c 1
 875 649 861 576 847 504 c 1
 777 504 708 504 638 504 c 1
 605 333 571 162 538 -9 c 1
 451 -9 365 -9 278 -9 c 1
 311 162 345 333 378 504 c 1
EndSplineSet
Validated: 1
EndChar
StartChar: tbar
Encoding: 359 359 293
Width: 1060
VWidth: 0
Flags: W
HStem: -6 202<484.125 772.105> 433 205<66.5513 228 524 726.449> 805 204<562 989>
VStem: 203 261<215.915 432.438>
LayerCount: 2
Fore
SplineSet
480 433 m 1
 478 421 475 408 473 396 c 1
 467 365 464 338 464 315 c 0
 464 241 496 209 558 200 c 0
 576 197 609 196 622 196 c 0
 687 196 720 210 748 224 c 0
 805 252 829 320 840 340 c 1
 903 307 966 273 1029 240 c 1
 1014 212 937 100 813 36 c 0
 748 2 670 -6 585 -6 c 0
 401 -6 256 16 215 164 c 0
 207 193 203 222 203 253 c 0
 203 299 211 346 221 398 c 1
 223 410 226 421 228 433 c 1
 162 433 95 433 29 433 c 1
 42 501 56 570 69 638 c 1
 137 638 204 638 272 638 c 1
 283 687 295 742 309 805 c 1
 304 805 300 805 295 805 c 1
 267 805 239 801 211 793 c 1
 219 861 226 929 234 997 c 1
 260 1005 305 1009 338 1009 c 1
 343 1009 348 1009 353 1009 c 1
 367 1079 387 1180 401 1250 c 1
 484 1248 568 1246 651 1244 c 1
 638 1178 618 1081 604 1013 c 1
 713 1013 1024 1009 1032 1009 c 1
 1018 941 1003 873 989 805 c 1
 852 805 695 807 562 807 c 1
 548 743 535 687 524 638 c 1
 604 638 684 638 764 638 c 1
 751 570 737 501 724 433 c 1
 643 433 561 433 480 433 c 1
EndSplineSet
Validated: 1
EndChar
StartChar: Uogonek
Encoding: 370 370 304
Width: 1060
VWidth: 32
Flags: W
HStem: -503 196<385.666 621.8> 1329 1G<234.5 511 877 929.5>
VStem: 72 263<225.728 664.844> 130 255<-383 -176.022 478.868 938.399> 888 248<1182.47 1323.27>
LayerCount: 2
Fore
SplineSet
888 1350 m 1xe8
 971 1341 1053 1331 1136 1322 c 1
 1119 1272 1112 1237 1103 1195 c 0
 1101 1186 1100 1176 1098 1166 c 0
 1069 1018 1047 888 1025 775 c 1
 1021 755 1017 736 1013 716 c 1
 967 479 919 253 781 121 c 0
 606 -47 417 -133 386 -250 c 0
 385 -253 385 -255 385 -258 c 0
 385 -295 435 -307 495 -307 c 0
 553 -307 599 -278 633 -256 c 1
 665 -303 698 -350 730 -397 c 1
 677 -445 547 -503 447 -503 c 0
 282 -503 130 -457 130 -309 c 0xd8
 130 -293 131 -277 135 -259 c 0
 158 -147 228 -89 337 -6 c 1
 141 17 72 129 72 315 c 0
 72 358 75 405 82 456 c 0
 92 533 114 657 141 795 c 0
 175 970 216 1168 253 1329 c 1
 339 1329 425 1329 511 1329 c 1
 474 1161 426 932 389 743 c 0
 379 693 370 645 362 602 c 0
 350 538 340 485 338 448 c 0
 337 423 335 395 335 366 c 0
 335 285 351 203 454 200 c 1
 656 209 703 431 758 718 c 0
 782 844 806 993 840 1166 c 0
 854 1238 866 1287 888 1350 c 1xe8
EndSplineSet
Validated: 1
EndChar
StartChar: uogonek
Encoding: 371 371 305
Width: 1060
VWidth: 32
Flags: W
HStem: -503 196<463.666 699.8> 2 204<286.758 535.114> 1000 21G<358 400 753.5 1030>
VStem: 16 262<212.007 426.129> 148 252<702.308 991.764> 208 255<-383 -194.495>
LayerCount: 2
Fore
SplineSet
700 108 m 1xe4
 610 31 473 5 322 2 c 1
 319 2 316 2 313 2 c 1
 174 2 16 45 16 187 c 0xf0
 16 200 17 214 20 229 c 0
 36 311 55 408 74 504 c 0
 112 701 148 897 148 973 c 0
 148 980 148 987 147 992 c 1
 231 1001 316 1011 400 1020 c 1
 400 1010 l 0xe8
 400 910 345 652 278 298 c 1
 278 292 l 0xf0
 278 230 294 206 376 206 c 1
 529 213 630 291 655 418 c 1
 694 619 734 820 773 1021 c 1
 859 1021 944 1021 1030 1021 c 1
 983 783 937 544 890 306 c 1
 889 302 889 299 889 295 c 0
 889 245 937 186 981 166 c 1
 701 -155 490 -150 464 -250 c 0
 463 -253 463 -255 463 -258 c 0
 463 -295 513 -307 573 -307 c 0
 631 -307 677 -278 711 -256 c 1
 743 -303 776 -350 808 -397 c 1
 755 -445 625 -503 525 -503 c 0
 360 -503 208 -457 208 -309 c 0
 208 -293 209 -277 213 -259 c 0
 254 -62 522 -72 700 108 c 1xe4
EndSplineSet
Validated: 1
EndChar
StartChar: longs
Encoding: 383 383 317
Width: 1060
VWidth: -2
Flags: W
HStem: 0 21G<249 539> 807 205<250.551 406> 1217 201<758.639 1012.26>
LayerCount: 2
Fore
SplineSet
1007 1206 m 1
 982 1215 924 1217 885 1217 c 0
 753 1217 728 1143 716 1083 c 0
 711 1056 703 1012 703 1012 c 1
 637 675 572 337 506 0 c 1
 420 0 335 0 249 0 c 1
 301 269 354 538 406 807 c 1
 342 807 277 807 213 807 c 1
 226 875 240 944 253 1012 c 1
 317 1012 382 1012 446 1012 c 1
 449 1028 452 1045 456 1064 c 0
 482 1194 591 1418 907 1418 c 0
 968 1418 1046 1414 1092 1404 c 1
 1064 1338 1035 1272 1007 1206 c 1
EndSplineSet
Validated: 1
EndChar
StartChar: uni0180
Encoding: 384 384 975
Width: 1060
VWidth: -2
Flags: W
HStem: -7 180<480.839 660.206> 813 200<565.39 755.399> 1116 204<179.551 315 595 776.449> 1392 20G<562.5 603>
VStem: 348 247<1320 1403> 787 257<377.933 785.018>
LayerCount: 2
Fore
SplineSet
768 478 m 0
 781 545 787 600 787 644 c 0
 787 773 737 813 668 813 c 0
 596 813 521 738 477 683 c 1
 455 572 434 460 412 349 c 1
 443 247 500 173 561 173 c 0
 669 173 731 288 768 478 c 0
1019 459 m 0
 959 152 811 -7 560 -7 c 0
 436 -7 366 40 338 93 c 1
 330 51 273 -13 273 -13 c 1
 209 -6 145 0 81 7 c 1
 104 73 128 161 146 243 c 0
 148 251 149 259 151 267 c 0
 203 502 262 842 315 1116 c 1
 257 1116 200 1116 142 1116 c 1
 155 1184 169 1252 182 1320 c 1
 237 1320 293 1320 348 1320 c 1
 352 1350 354 1378 356 1403 c 1
 439 1406 521 1409 604 1412 c 1
 602 1384 599 1353 595 1320 c 1
 668 1320 741 1320 814 1320 c 1
 801 1252 787 1184 774 1116 c 1
 703 1116 632 1116 561 1116 c 1
 545 1046 530 996 501 930 c 1
 543 958 628 1013 742 1013 c 0
 951 1013 1044 906 1044 688 c 0
 1044 622 1036 546 1019 459 c 0
EndSplineSet
Validated: 1
EndChar
StartChar: uni0190
Encoding: 400 400 428
Width: 1060
VWidth: 0
Flags: W
HStem: 0 187<324.974 705.289> 630 205<507.828 677.449> 1022 21G<962 1018> 1108 189<521.499 918.152>
VStem: 29 256<228.012 498.95> 201 256<885.854 1046.13>
LayerCount: 2
Fore
SplineSet
946 158 m 1xf8
 865 105 703 0 445 0 c 0
 263 0 176 34 109 106 c 0
 52 168 29 239 29 313 c 0xf8
 29 338 32 364 37 390 c 0
 72 568 180 694 339 730 c 1
 250 761 201 845 201 936 c 0
 201 952 203 969 206 985 c 0
 243 1180 442 1297 732 1297 c 1
 736 1297 741 1297 745 1297 c 1
 978 1297 1072 1234 1138 1193 c 1
 1090 1136 1042 1079 994 1022 c 1
 930 1064 842 1108 697 1108 c 0
 577 1108 476 1060 459 985 c 0
 457 977 457 970 457 963 c 0xf4
 457 868 589 835 692 835 c 1
 694 835 695 835 697 835 c 1
 703 835 709 835 715 835 c 1
 702 766 688 698 675 629 c 1
 649 629 623 630 597 630 c 0
 405 630 323 549 291 388 c 0
 287 368 285 349 285 331 c 0
 285 247 333 187 482 187 c 0
 673 187 796 271 856 317 c 1
 886 264 916 211 946 158 c 1xf8
EndSplineSet
Validated: 1
EndChar
StartChar: uni0191
Encoding: 401 401 339
Width: 1060
VWidth: 0
Flags: W
HStem: -303 264<-84 40.6961> 642 216<491 777.395> 1115 209<542 1061.92>
LayerCount: 2
Fore
SplineSet
345 78 m 1
 303 -108 197 -303 -135 -303 c 1
 -118 -215 -101 -127 -84 -39 c 1
 20 -39 55 -8 81 85 c 1
 161 498 241 911 321 1324 c 1
 549 1324 778 1324 1006 1324 c 1
 1108 1324 1150 1307 1181 1290 c 1
 1142 1222 1102 1155 1063 1087 c 1
 1040 1101 1021 1114 923 1115 c 1
 899 1115 876 1115 852 1115 c 1
 748 1115 725 1115 542 1114 c 1
 525 1028 508 942 491 856 c 1
 611 856 574 858 696 858 c 0
 786 858 849 840 886 822 c 1
 850 755 815 687 779 620 c 1
 745 637 696 642 651 642 c 0
 566 642 l 0
 536 642 514 642 449 640 c 1
 429 539 375 236 345 78 c 1
EndSplineSet
Validated: 1
EndChar
StartChar: florin
Encoding: 402 402 340
Width: 1060
VWidth: -2
Flags: W
HStem: -340 244<-0.256386 141.679> 807 205<265.551 370 668 940.063> 1217 201<722.889 938.839>
LayerCount: 2
Fore
SplineSet
494 126 m 1
 442 -120 273 -340 -47 -340 c 1
 -31 -259 -14 -177 2 -96 c 1
 144 -96 203 -30 240 138 c 1
 283 361 327 584 370 807 c 1
 323 807 275 807 228 807 c 1
 241 875 255 944 268 1012 c 1
 315 1012 363 1012 410 1012 c 1
 413 1028 416 1045 420 1064 c 0
 446 1194 555 1418 871 1418 c 0
 1067 1418 1137 1368 1185 1213 c 1
 1108 1181 1031 1148 954 1116 c 1
 944 1198 911 1217 850 1217 c 0
 718 1217 692 1143 680 1083 c 0
 675 1056 668 1012 668 1012 c 1
 852 1012 l 0
 957 1012 996 1000 1024 991 c 1
 996 925 969 860 941 794 c 1
 921 801 902 807 846 807 c 1
 773 807 699 807 626 807 c 1
 582 580 538 353 494 126 c 1
EndSplineSet
Validated: 1
EndChar
StartChar: uni01A4
Encoding: 420 420 972
Width: 1060
VWidth: 0
Flags: W
HStem: -1 21G<250 509> 440 215<622 749.866> 1102 212<386.686 464 711 833.826>
VStem: 120 224<927 1050.15> 855 254<769.747 1084.31>
LayerCount: 2
Fore
SplineSet
855 983 m 0
 855 1090 792 1105 711 1105 c 1
 694 1020 l 2
 658 837 622 655 622 655 c 1
 749 655 855 747 855 983 c 0
494 -1 m 1
 250 0 l 1
 464 1102 l 1
 400 1097 371 1065 344 927 c 1
 120 927 l 1
 192 1298 358 1314 716 1314 c 0
 962 1314 1109 1214 1109 999 c 0
 1109 599 914 440 687 440 c 0
 639 440 621 441 581 443 c 1
 530 180 524 155 494 -1 c 1
EndSplineSet
Validated: 1
EndChar
StartChar: uni01EA
Encoding: 490 490 725
Width: 1060
VWidth: 0
Flags: W
HStem: -506 196<347.666 583.8> 1147 203<553.057 756.703>
VStem: 51 263<228.391 675.553> 92 255<-386 -195.439> 801 257<596.174 1102.8>
LayerCount: 2
Fore
SplineSet
709 1350 m 1xe8
 843 1350 1058 1299 1058 917 c 0
 1058 841 1049 752 1030 647 c 1
 1029 643 1029 640 1028 636 c 1
 996 469 933 312 867 217 c 1
 682 -61 374 -153 348 -253 c 0
 347 -256 347 -258 347 -261 c 0
 347 -298 397 -310 457 -310 c 0
 515 -310 561 -281 595 -259 c 1
 627 -306 660 -353 692 -400 c 1
 639 -448 509 -506 409 -506 c 0
 244 -506 92 -460 92 -312 c 0xd8
 92 -296 93 -280 97 -262 c 0
 116 -167 249 -95 381 -14 c 1
 273 -4 161 39 108 127 c 0
 68 193 51 274 51 367 c 0
 51 432 59 503 74 579 c 0
 143 931 233 1090 322 1187 c 0
 406 1279 552 1347 709 1350 c 1xe8
330 277 m 0
 363 203 397 187 471 187 c 0
 550 187 611 249 657 326 c 1
 695 385 747 541 767 640 c 1
 768 646 770 651 771 657 c 1
 786 735 801 835 801 921 c 0
 801 953 799 983 794 1009 c 0
 774 1115 729 1147 669 1147 c 0
 604 1147 561 1122 507 1051 c 0
 444 968 385 835 337 592 c 0
 325 533 314 452 314 384 c 0xe8
 314 341 319 302 330 277 c 0
EndSplineSet
Validated: 1
EndChar
StartChar: uni01EB
Encoding: 491 491 726
Width: 1060
VWidth: 0
Flags: W
HStem: -504 196<303.644 539.8> 830 202<479.876 701.14>
VStem: 47 256<-384 -189.187> 72 260<235.881 581.159> 729 258<425.892 804.393>
LayerCount: 2
Fore
SplineSet
762 114 m 1xd8
 520 -108 330 -151 304 -251 c 0
 303 -254 303 -256 303 -259 c 0
 303 -296 353 -308 413 -308 c 0
 471 -308 517 -279 551 -257 c 1
 583 -304 616 -351 648 -398 c 1
 595 -446 465 -504 365 -504 c 0
 200 -504 47 -458 47 -310 c 0xe8
 47 -295 49 -278 52 -260 c 0
 75 -131 191 -92 341 0 c 1
 152 27 72 147 72 321 c 0
 72 365 77 413 87 464 c 0
 159 835 339 1032 631 1032 c 0
 828 1032 925 963 969 831 c 0
 982 792 987 745 987 695 c 0
 987 644 982 592 972 543 c 0
 939 377 875 218 762 114 c 1xd8
598 247 m 1
 655 299 690 403 713 530 c 0
 714 536 715 540 716 546 c 0
 724 591 729 633 729 671 c 0
 729 765 698 830 606 830 c 0
 455 830 383 690 343 482 c 0
 336 445 332 410 332 379 c 0xd8
 332 269 377 197 471 197 c 1
 526 198 555 211 598 247 c 1
EndSplineSet
Validated: 1
EndChar
StartChar: Aringacute
Encoding: 506 506 458
Width: 1060
VWidth: 0
Flags: W
HStem: 0 21G<-69 196.5 692 972> 281 223<409.995 673.747> 1305 20G<505.5 849.5> 1400 132<676.419 836.929> 1657 142<684.142 845.047>
VStem: 482 191<1537.96 1643.24> 847 192<1547.31 1652.9> 1164 216<1622.89 1729.18>
LayerCount: 2
Fore
SplineSet
973 1297 m 1
 1062 1430 1125 1613 1164 1782 c 1
 1226 1759 1318 1748 1380 1725 c 1
 1346 1554 1225 1316 1136 1184 c 1
 1085 1217 1024 1264 973 1297 c 1
EndSplineSet
Refer: 76 197 N 1 0 0 1 0 0 3
Validated: 1
EndChar
StartChar: aringacute
Encoding: 507 507 459
Width: 1060
VWidth: 0
Flags: W
HStem: -31 21G<777.5 824.5> -11 200<255.5 514.68> 819 209<467.306 686.696> 1185 132<661.419 821.929> 1442 142<669.142 830.047>
VStem: 69 249<196.7 585.735> 467 191<1322.96 1428.24> 700 186<79.3457 275> 832 192<1332.31 1437.9> 1239 216<1640.79 1747.17>
LayerCount: 2
Fore
SplineSet
1048 1314 m 1x3e40
 1137 1447 1200 1630 1239 1799 c 1
 1301 1776 1393 1766 1455 1743 c 1
 1421 1572 1300 1333 1211 1201 c 1
 1160 1234 1099 1281 1048 1314 c 1x3e40
EndSplineSet
Refer: 64 229 N 1 0 0 1 0 0 3
Validated: 1
EndChar
StartChar: uni0228
Encoding: 552 552 733
Width: 1060
VWidth: 0
Flags: W
HStem: -443 172<268.374 491.235> -3 222<335 356 568.223 908.943> 704 221<474 788.636> 1219 223<531 1088.64>
VStem: 495 224<-263.538 -167.055>
LayerCount: 2
Fore
SplineSet
303 1438 m 1
 363 1442 435 1442 517 1442 c 0
 620 1442 l 1
 659 1442 697 1442 736 1442 c 1
 892 1442 1035 1439 1113 1439 c 1
 1118 1439 1124 1439 1129 1439 c 1
 1115 1366 1100 1292 1086 1219 c 1
 901 1219 716 1219 531 1219 c 1
 512 1121 493 1023 474 925 c 1
 592 925 711 925 829 925 c 1
 815 851 800 778 786 704 c 1
 668 704 549 704 431 704 c 1
 429 693 426 681 424 670 c 1
 380 444 352 305 335 219 c 1
 481 220 626 220 772 221 c 1
 831 221 909 251 909 251 c 1
 920 179 932 106 943 34 c 1
 890 20 841 -3 738 -3 c 1
 685 -3 631 -3 578 -3 c 1
 573 -24 565 -62 565 -64 c 1
 650 -68 719 -113 719 -202 c 0
 719 -214 718 -227 715 -240 c 0
 688 -369 562 -443 404 -443 c 0
 338 -443 249 -425 200 -389 c 1
 230 -340 259 -290 289 -241 c 1
 319 -259 360 -271 411 -271 c 0
 447 -271 485 -259 495 -221 c 1
 495 -220 495 -220 495 -219 c 1
 496 -216 496 -212 496 -209 c 0
 496 -184 476 -164 434 -164 c 0
 386 -164 353 -166 323 -176 c 1
 334 -118 345 -61 356 -3 c 1
 245 -3 133 -3 22 -3 c 1
 116 477 209 958 303 1438 c 1
EndSplineSet
Validated: 1
EndChar
StartChar: uni0229
Encoding: 553 553 734
Width: 1060
VWidth: 0
Flags: W
HStem: -450 172<243.374 466.235> 434 196<418.871 736.981> 818 203<492.348 707.997>
VStem: 96 251<236.674 401.227> 470 224<-270.538 -174.055> 737 250<630.362 790.713>
LayerCount: 2
Fore
SplineSet
389 606 m 1
 506 626 600 630 733 630 c 1
 736 647 737 663 737 678 c 0
 737 775 682 818 605 818 c 0
 503 818 418 722 389 606 c 1
642 1021 m 0
 890 1021 987 894 987 680 c 0
 987 619 979 551 965 477 c 0
 961 457 955 434 955 434 c 1
 669 430 454 416 348 396 c 1
 348 390 347 383 347 377 c 0
 347 275 394 196 481 196 c 0
 587 196 624 205 702 294 c 1
 760 251 819 209 877 166 c 1
 805 80 715 17 555 -3 c 1
 550 -22 541 -68 540 -71 c 1
 625 -75 694 -120 694 -209 c 0
 694 -221 693 -234 690 -247 c 0
 663 -376 537 -450 379 -450 c 0
 313 -450 224 -432 175 -396 c 1
 205 -347 234 -297 264 -248 c 1
 294 -266 335 -278 386 -278 c 0
 422 -278 460 -266 470 -228 c 1
 470 -227 470 -227 470 -226 c 1
 471 -223 471 -219 471 -216 c 0
 471 -191 451 -171 409 -171 c 0
 361 -171 327 -173 297 -183 c 1
 309 -122 321 -61 333 0 c 1
 171 36 96 164 96 349 c 0
 96 401 101 456 113 516 c 0
 170 802 359 1021 642 1021 c 0
EndSplineSet
Validated: 1
EndChar
StartChar: uni0237
Encoding: 567 567 332
Width: 1060
VWidth: 0
Flags: W
HStem: -389 201<240.358 456.515> -28 20G<125 186> 834 179<443.258 651.491>
VStem: 660 254<536.101 824.726>
AnchorPoint: "above_accent" 668 1107 basechar 0
LayerCount: 2
Fore
SplineSet
752 -78 m 1
 722 -231 610 -389 324 -389 c 3
 201 -389 51 -361 -35 -156 c 1
 29 -107 93 -57 157 -8 c 1
 215 -153 277 -188 340 -188 c 0
 358 -188 l 3
 478 -188 495 -83 504 -48 c 1
 555 206 606 459 657 713 c 1
 659 724 660 736 660 746 c 0
 660 799 631 834 575 834 c 0
 525 834 455 806 365 737 c 1
 325 782 285 827 245 872 c 1
 398 992 488 1013 641 1013 c 1
 866 1013 914 859 914 775 c 0
 914 763 913 751 911 743 c 1
 858 469 805 196 752 -78 c 1
EndSplineSet
Validated: 1
EndChar
StartChar: gravecomb
Encoding: 768 768 322
Width: 1060
VWidth: -43
Flags: W
HStem: 1267 450
VStem: 380 562
AnchorPoint: "above_accent" 595 1227 mark 0
LayerCount: 2
Fore
SplineSet
942 1432 m 1
 840 1267 l 1
 706 1314 469 1442 380 1554 c 1
 525 1717 l 1
 619 1609 808 1480 942 1432 c 1
EndSplineSet
Validated: 1
EndChar
StartChar: acutecomb
Encoding: 769 769 323
Width: 1060
VWidth: -43
Flags: W
HStem: 1267 452
VStem: 401 588
AnchorPoint: "above_accent" 604 1239 mark 0
LayerCount: 2
Fore
SplineSet
401 1460 m 1
 553 1508 717 1611 853 1719 c 1
 887 1662 955 1594 989 1537 c 1
 856 1425 612 1314 460 1267 c 1
 441 1325 420 1402 401 1460 c 1
EndSplineSet
Validated: 1
EndChar
StartChar: uni0302
Encoding: 770 770 324
Width: 1060
VWidth: -10
Flags: W
HStem: 1252 448
AnchorPoint: "above_accent" 683 1219 mark 0
LayerCount: 2
Fore
SplineSet
758 1700 m 1
 1096 1408 l 1
 927 1252 l 1
 736 1453 l 1
 468 1264 l 1
 340 1420 l 1
 758 1700 l 1
EndSplineSet
Validated: 1
EndChar
StartChar: tildecomb
Encoding: 771 771 325
Width: 1060
VWidth: -12
Flags: W
HStem: 1376 178<811.948 967.708> 1406 21G<439.359 495.5> 1506 180<511.789 683.018>
AnchorPoint: "above_accent" 647 1307 mark 0
LayerCount: 2
Fore
SplineSet
592 1686 m 0x60
 728 1686 776 1634 815 1595 c 0
 838 1572 858 1554 891 1554 c 0
 941 1554 972 1585 991 1654 c 1
 1163 1600 l 1
 1123 1504 1040 1376 878 1376 c 0x80
 767 1376 711 1440 665 1478 c 0
 639 1500 628 1506 584 1506 c 0
 542 1506 506 1469 485 1406 c 1
 307 1484 l 1
 358 1577 451 1686 592 1686 c 0x60
EndSplineSet
Validated: 1
EndChar
StartChar: uni0305
Encoding: 773 773 327
Width: 1060
VWidth: -34
Flags: W
HStem: 1458 203<332.551 1087>
AnchorPoint: "above_accent" 662 1302 mark 0
LayerCount: 2
Fore
SplineSet
1126 1658 m 1
 1113 1591 1100 1524 1087 1457 c 1
 823 1457 559 1458 295 1458 c 1
 308 1526 322 1593 335 1661 c 1
 599 1660 862 1659 1126 1658 c 1
EndSplineSet
Validated: 1
EndChar
StartChar: uni0306
Encoding: 774 774 328
Width: 1060
VWidth: -12
Flags: W
HStem: 1325 183<614.135 861.439>
AnchorPoint: "above_accent" 665 1179 mark 0
LayerCount: 2
Fore
SplineSet
728 1508 m 0
 819 1508 901 1556 936 1649 c 1
 1149 1619 l 1
 1091 1442 971 1325 699 1325 c 1
 537 1325 356 1403 352 1628 c 1
 577 1658 l 1
 581 1541 653 1508 728 1508 c 0
EndSplineSet
Validated: 1
EndChar
StartChar: uni0307
Encoding: 775 775 330
Width: 1060
VWidth: -28
Flags: W
HStem: 1425 246<557.756 800.116>
VStem: 513 331
AnchorPoint: "above_accent" 615 1300 mark 0
LayerCount: 2
Fore
SplineSet
560 1671 m 1
 655 1671 749 1671 844 1671 c 1
 829 1589 813 1507 798 1425 c 1
 703 1425 608 1425 513 1425 c 1
 529 1507 544 1589 560 1671 c 1
EndSplineSet
Validated: 1
EndChar
StartChar: uni030A
Encoding: 778 778 331
Width: 1060
VWidth: -8
Flags: W
HStem: 1278 132<648.419 808.929> 1535 142<656.142 817.047>
VStem: 454 191<1415.96 1521.24> 819 192<1425.31 1530.9>
AnchorPoint: "above_accent" 682 1200 mark 0
LayerCount: 2
Fore
SplineSet
744 1535 m 0
 691 1535 654 1503 646 1473 c 0
 645 1470 645 1468 645 1465 c 0
 645 1437 673 1410 720 1410 c 0
 772 1410 810 1443 818 1473 c 0
 819 1476 819 1479 819 1482 c 0
 819 1510 792 1535 744 1535 c 0
457 1473 m 0
 480 1589 625 1677 773 1677 c 0
 908 1677 1011 1604 1011 1503 c 0
 1011 1493 1010 1483 1008 1473 c 0
 986 1358 855 1278 695 1278 c 0
 555 1278 454 1346 454 1444 c 0
 454 1453 455 1463 457 1473 c 0
EndSplineSet
Validated: 1
EndChar
StartChar: uni030B
Encoding: 779 779 333
Width: 1060
VWidth: -43
Flags: W
HStem: 1143 545
AnchorPoint: "above_accent" 554 1100 mark 0
LayerCount: 2
Fore
SplineSet
646 1286 m 1
 781 1381 927 1547 1024 1688 c 1
 1083 1646 1141 1603 1200 1561 c 1
 1107 1417 901 1237 765 1143 c 1
 725 1191 686 1238 646 1286 c 1
264 1293 m 1
 399 1388 545 1554 642 1695 c 1
 701 1653 759 1610 818 1568 c 1
 725 1424 520 1244 384 1150 c 1
 344 1198 304 1245 264 1293 c 1
EndSplineSet
Validated: 1
EndChar
StartChar: uni030C
Encoding: 780 780 334
Width: 1060
VWidth: -10
Flags: W
HStem: 1206 447
AnchorPoint: "above_accent" 670 1155 mark 0
LayerCount: 2
Fore
SplineSet
681 1206 m 1
 365 1503 l 1
 536 1641 l 1
 709 1452 l 1
 1008 1653 l 1
 1120 1478 l 1
 681 1206 l 1
EndSplineSet
Validated: 1
EndChar
StartChar: uni030F
Encoding: 783 783 335
Width: 1060
VWidth: -43
Flags: W
HStem: 1170 545
AnchorPoint: "above_accent" 631 1118 mark 0
LayerCount: 2
Fore
SplineSet
758 1313 m 1
 699 1265 641 1218 582 1170 c 1
 482 1264 348 1444 311 1588 c 1
 386 1630 461 1673 536 1715 c 1
 579 1574 659 1408 758 1313 c 1
1143 1320 m 1
 1085 1273 1026 1225 968 1178 c 1
 868 1272 732 1452 695 1596 c 1
 770 1638 846 1680 921 1722 c 1
 964 1581 1044 1415 1143 1320 c 1
EndSplineSet
Validated: 1
EndChar
StartChar: uni0311
Encoding: 785 785 484
Width: 1060
VWidth: -12
Flags: W
HStem: 1358 21G<387 554 891.5 1041> 1508 183<607.68 861.089>
AnchorPoint: "above_accent" 686 1290 mark 0
LayerCount: 2
Fore
SplineSet
738 1508 m 0
 663 1508 579 1475 529 1358 c 1
 316 1388 l 1
 408 1613 555 1691 780 1691 c 0
 1010 1691 1117 1583 1117 1419 c 0
 1117 1412 1116 1405 1116 1397 c 1
 891 1367 l 1
 892 1373 892 1379 892 1384 c 0
 892 1454 838 1508 738 1508 c 0
EndSplineSet
Validated: 1
EndChar
StartChar: uni0312
Encoding: 786 786 485
Width: 1060
VWidth: -43
Flags: W
HStem: 1236 419
VStem: 461 365
AnchorPoint: "above_accent" 549 1156 mark 0
LayerCount: 2
Fore
SplineSet
461 1283 m 1
 521 1395 569 1504 643 1655 c 1
 826 1622 l 1
 780 1480 726 1339 685 1236 c 1
 461 1283 l 1
EndSplineSet
Validated: 1
EndChar
StartChar: uni0313
Encoding: 787 787 486
Width: 1060
VWidth: 26
Flags: W
HStem: 1099 498
VStem: 572 321
AnchorPoint: "above_accent" 672 1103 mark 0
LayerCount: 2
Fore
SplineSet
673 1597 m 1
 893 1597 l 1
 852 1382 l 2
 823 1231 741 1155 601 1099 c 1
 572 1226 l 1
 637 1254 668 1277 687 1376 c 1
 630 1376 l 1
 673 1597 l 1
EndSplineSet
Validated: 1
EndChar
StartChar: uni0314
Encoding: 788 788 487
Width: 1060
VWidth: 26
Flags: W
HStem: 1099 498<684.991 764.692>
VStem: 607 162<1206.1 1375.29>
AnchorPoint: "above_accent" 672 1103 mark 0
LayerCount: 2
Fore
SplineSet
876 1597 m 1
 833 1376 l 1
 776 1376 l 1
 771 1352 769 1332 769 1316 c 0
 769 1265 791 1247 833 1226 c 1
 756 1099 l 1
 659 1145 607 1204 607 1307 c 0
 607 1330 610 1355 615 1382 c 2
 656 1597 l 1
 876 1597 l 1
EndSplineSet
Validated: 1
EndChar
StartChar: uni0326
Encoding: 806 806 488
Width: 1060
VWidth: 26
Flags: W
HStem: -528 532
VStem: 217 369
AnchorPoint: "cedilla_accent" 445 53 mark 0
LayerCount: 2
Fore
SplineSet
316 4 m 1
 586 4 l 1
 544 -211 l 2
 515 -362 472 -426 326 -528 c 1
 217 -403 l 1
 278 -361 307 -328 329 -217 c 1
 273 -217 l 1
 316 4 l 1
EndSplineSet
Validated: 1
EndChar
StartChar: uni0328
Encoding: 808 808 490
Width: 1060
VWidth: 32
Flags: W
HStem: -460 196<333.644 569.515>
VStem: 77 256<-340 -150.494>
LayerCount: 2
Fore
SplineSet
767 107 m 1
 544 -118 354 -105 334 -207 c 0
 333 -210 333 -212 333 -215 c 0
 333 -252 383 -264 443 -264 c 0
 501 -264 547 -235 581 -213 c 1
 677 -354 l 1
 624 -402 495 -460 395 -460 c 0
 230 -460 77 -414 77 -266 c 0
 77 -251 79 -234 82 -216 c 0
 120 -18 358 -40 531 108 c 1
 767 107 l 1
EndSplineSet
Validated: 1
EndChar
StartChar: tonos
Encoding: 900 900 392
Width: 1060
VWidth: -43
Flags: W
HStem: 1222 454
VStem: 510 450
AnchorPoint: "above_accent" 590 1159 mark 0
LayerCount: 2
Fore
SplineSet
510 1334 m 1
 628 1451 666 1523 735 1676 c 1
 810 1658 885 1640 960 1622 c 1
 897 1468 790 1338 672 1222 c 1
 618 1259 564 1297 510 1334 c 1
EndSplineSet
Validated: 1
EndChar
StartChar: Gamma
Encoding: 915 915 370
Width: 1060
VWidth: 0
Flags: W
HStem: 0 21G<74 364> 1118 210<538.247 1081.1>
LayerCount: 2
Fore
SplineSet
332 1328 m 1
 560 1328 787 1328 1015 1328 c 1
 1090 1328 1149 1310 1193 1294 c 1
 1156 1228 1120 1163 1083 1097 c 1
 1042 1112 1030 1115 972 1118 c 1
 830 1118 687 1118 545 1118 c 1
 473 745 400 373 328 0 c 1
 243 0 159 0 74 0 c 1
 160 443 246 885 332 1328 c 1
EndSplineSet
Validated: 1
EndChar
StartChar: uni0394
Encoding: 916 916 384
Width: 1060
VWidth: 0
Flags: W
HStem: 0 199<273 662> 1305 20G<481.5 837.5>
LayerCount: 2
Fore
SplineSet
662 199 m 1
 662 320 627 660 627 869 c 0
 627 922 629 967 635 998 c 1
 597 832 341 343 273 199 c 1
 403 199 532 199 662 199 c 1
74 0 m 1
 24 13 -27 25 -77 38 c 1
 146 467 370 896 593 1325 c 1
 667 1325 742 1325 816 1325 c 1
 859 897 902 470 945 42 c 1
 897 28 848 14 800 0 c 1
 558 0 316 0 74 0 c 1
EndSplineSet
Validated: 1
EndChar
StartChar: Theta
Encoding: 920 920 374
Width: 1060
VWidth: 0
Flags: W
HStem: -16 203<374.632 584.323> 615 203<463.438 734.562> 1147 203<594.448 784.293>
VStem: 54 272<235.708 671.361> 829 267<596.974 1100.79>
LayerCount: 2
Fore
SplineSet
735 1350 m 1
 874 1350 1096 1299 1096 917 c 0
 1096 841 1087 752 1067 647 c 1
 1066 643 1066 640 1065 636 c 1
 1032 469 967 312 898 217 c 0
 791 70 619 -16 448 -16 c 0
 322 -16 176 25 113 127 c 0
 72 193 54 274 54 367 c 0
 54 432 63 503 78 579 c 0
 148 931 243 1090 335 1187 c 0
 422 1279 573 1347 735 1350 c 1
489 187 m 0
 631 187 758 463 795 640 c 1
 796 646 798 651 799 657 c 1
 814 726 829 825 829 915 c 0
 829 1038 799 1147 694 1147 c 0
 550 1147 406 869 350 592 c 0
 337 527 326 458 326 396 c 0
 326 280 364 187 489 187 c 0
467 818 m 1
 574 818 681 818 788 818 c 1
 769 750 750 683 731 615 c 1
 624 615 517 615 410 615 c 1
 429 683 448 750 467 818 c 1
EndSplineSet
Validated: 1
EndChar
StartChar: Lambda
Encoding: 923 923 385
Width: 1060
VWidth: 0
Flags: W
HStem: -27 21G<116.5 195.5 670 719> 1305 20G<481.5 837.5>
VStem: 674 271<39.0469 483.102>
LayerCount: 2
Fore
SplineSet
398 486 m 1
 317 315 236 144 155 -27 c 1
 78 -5 0 16 -77 38 c 1
 146 467 370 896 593 1325 c 1
 667 1325 742 1325 816 1325 c 1
 859 897 902 470 945 42 c 1
 855 21 764 0 674 -21 c 1
 666 154 659 329 651 504 c 1
 651 513 l 0
 651 621 626 758 626 883 c 0
 626 923 628 962 635 998 c 1
 596 830 463 625 398 486 c 1
EndSplineSet
Validated: 1
EndChar
StartChar: Xi
Encoding: 926 926 386
Width: 1060
VWidth: 0
Flags: W
HStem: -3 204<55.1655 859.946> 646 203<399.562 742.438> 1118 205<274 1024.45>
LayerCount: 2
Back
SplineSet
102 1319 m 1
 158 1323 228 1323 306 1323 c 0
 337 1323 370 1323 404 1323 c 2
 514 1323 l 2
 663 1323 799 1320 873 1320 c 2
 889 1320 l 1
 889 1118 l 1
 360 1118 l 1
 360 849 l 1
 698 849 l 1
 698 646 l 1
 360 646 l 1
 360 615 l 2
 360 408 358 280 358 201 c 1
 774 203 l 2
 830 203 899 230 899 230 c 1
 971 31 l 1
 923 18 882 -3 784 -3 c 2
 102 -3 l 1
 102 1319 l 1
EndSplineSet
Fore
SplineSet
402 849 m 1
 528 849 653 849 779 849 c 1
 766 781 753 714 740 646 c 1
 614 646 489 646 363 646 c 1
 376 714 389 781 402 849 c 1
274 1319 m 1
 331 1323 401 1323 479 1323 c 0
 577 1323 l 1
 614 1323 651 1323 688 1323 c 1
 837 1323 973 1320 1047 1320 c 1
 1052 1320 1057 1320 1062 1320 c 1
 1049 1253 1035 1185 1022 1118 c 1
 759 1118 495 1118 232 1118 c 1
 246 1185 260 1252 274 1319 c 1
57 201 m 1
 281 202 506 202 730 203 c 1
 786 203 860 230 860 230 c 1
 871 164 883 97 894 31 c 1
 843 18 797 -3 699 -3 c 1
 472 -3 244 -3 17 -3 c 1
 30 65 44 133 57 201 c 1
EndSplineSet
Validated: 1
EndChar
StartChar: Pi
Encoding: 928 928 387
Width: 1060
VWidth: 0
Flags: W
HStem: 0 21G<55 346 604.5 644> 1100 196<519.25 789 1036.39 1148.43>
VStem: 602 253<9 365.803>
LayerCount: 2
Fore
SplineSet
310 0 m 1
 225 0 140 0 55 0 c 1
 125 362 196 725 266 1087 c 1
 236 1083 208 1078 177 1072 c 1
 175 1137 174 1201 172 1266 c 1
 268 1287 388 1296 508 1296 c 1
 733 1296 959 1296 1184 1296 c 1
 1171 1231 1159 1165 1146 1100 c 1
 1112 1100 1077 1100 1043 1100 c 1
 996 859 949 619 902 378 c 1
 877 251 864 126 855 9 c 1
 771 5 686 0 602 -4 c 1
 607 117 625 255 650 384 c 1
 696 623 743 861 789 1100 c 1
 741 1100 694 1100 646 1100 c 1
 602 1100 564 1100 526 1099 c 1
 454 733 382 366 310 0 c 1
EndSplineSet
Validated: 1
EndChar
StartChar: Sigma
Encoding: 931 931 388
Width: 1060
VWidth: 0
Flags: W
HStem: -3 206<392 905.946> 1118 205<563 1070.45>
LayerCount: 2
Fore
SplineSet
587 658 m 1
 459 817 332 975 204 1134 c 1
 255 1197 307 1259 358 1322 c 1
 381 1324 399 1324 418 1324 c 0
 447 1324 478 1323 525 1323 c 0
 623 1323 l 1
 660 1323 697 1323 734 1323 c 1
 882 1323 1018 1320 1093 1320 c 1
 1098 1320 1103 1320 1108 1320 c 1
 1095 1253 1081 1185 1068 1118 c 1
 900 1118 731 1118 563 1118 c 1
 668 987 772 857 877 726 c 1
 864 673 852 619 839 566 c 1
 690 444 541 323 392 201 c 1
 519 202 648 203 776 203 c 0
 832 203 906 230 906 230 c 1
 917 164 929 97 940 31 c 1
 889 18 843 -3 745 -3 c 1
 530 -2 316 -1 101 0 c 1
 74 61 47 122 20 183 c 1
 209 341 398 500 587 658 c 1
EndSplineSet
Validated: 1
EndChar
StartChar: Phi
Encoding: 934 934 389
Width: 1060
VWidth: 0
Flags: W
HStem: 0 21G<522.5 580> 1414 20G<564.5 852>
VStem: 54 236<448.632 786.266> 876 235<605.678 982.679>
LayerCount: 2
Fore
SplineSet
371 420 m 1
 409 615 446 809 484 1004 c 1
 478 1000 473 996 467 991 c 0
 394 932 330 840 296 669 c 0
 292 649 290 625 290 601 c 0
 290 545 303 487 331 453 c 0
 341 440 356 429 371 420 c 1
656 412 m 1
 695 430 730 455 756 483 c 1
 800 524 850 634 864 703 c 1
 865 707 865 711 866 715 c 1
 872 746 876 782 876 818 c 0
 876 868 868 918 848 957 c 0
 829 994 804 1019 775 1035 c 1
 743 864 715 715 665 460 c 1
 662 444 659 428 656 412 c 1
332 214 m 1
 254 231 184 261 142 308 c 0
 85 372 54 455 54 552 c 0
 54 585 58 620 65 656 c 0
 118 927 220 1050 309 1125 c 0
 361 1169 438 1206 528 1228 c 1
 535 1263 541 1298 548 1333 c 1
 555 1367 561 1400 568 1434 c 1
 663 1434 757 1434 852 1434 c 1
 842 1381 831 1329 821 1276 c 1
 819 1264 816 1253 814 1242 c 1
 954 1218 1111 1135 1111 870 c 0
 1111 823 1106 769 1095 709 c 1
 1094 706 1094 703 1093 700 c 1
 1068 571 998 450 934 377 c 0
 858 292 744 233 617 209 c 1
 602 135 590 81 570 0 c 1
 475 0 380 1 285 1 c 1
 302 69 313 115 324 175 c 0
 326 187 329 200 332 214 c 1
EndSplineSet
Validated: 1
EndChar
StartChar: Psi
Encoding: 936 936 390
Width: 1060
VWidth: 6
Flags: W
HStem: 0 21G<350 614> 440 216<390.084 441 723 845.686> 1328 20G<417 460 818.5 853 1193.5 1233.5>
VStem: 124 252<671.299 1020.77> 205 255<1015.74 1320.4> 977 260<1032.69 1322.84>
LayerCount: 2
Fore
SplineSet
134 839 m 0xf4
 146 904 158 965 169 1021 c 0
 201 1185 205 1213 205 1288 c 0
 205 1300 204 1310 203 1319 c 1
 289 1329 374 1338 460 1348 c 1
 460 1333 l 0xec
 460 1255 457 1229 422 1050 c 0
 412 998 409 985 397 923 c 0
 385 861 376 808 376 766 c 0
 376 696 402 656 486 656 c 1
 535 896 561 1018 603 1232 c 1
 609 1266 616 1300 622 1334 c 1
 701 1334 779 1335 858 1335 c 1
 848 1282 837 1230 827 1177 c 1
 789 980 770 887 723 656 c 1
 858 656 866 679 934 1028 c 1
 952 1128 969 1237 977 1322 c 1
 1064 1328 1150 1334 1237 1340 c 1
 1230 1251 1214 1141 1199 1069 c 0
 1196 1055 1194 1043 1192 1032 c 0
 1120 649 1071 443 692 443 c 1
 660 290 629 138 599 0 c 1
 516 0 433 0 350 0 c 1
 367 68 401 239 413 299 c 0
 422 344 432 392 441 440 c 1
 213 440 124 578 124 741 c 0
 124 773 128 806 134 839 c 0xf4
EndSplineSet
Validated: 1
EndChar
StartChar: uni03A9
Encoding: 937 937 391
Width: 1060
VWidth: 0
Flags: W
HStem: 1 216<-7.83451 169 793 1004.16> 1159 217<586 831.863>
VStem: 55 269<355.383 804.159> 889 258<607.934 1098.35>
LayerCount: 2
Fore
SplineSet
330 1 m 1
 205 1 79 1 -46 1 c 1
 -33 73 -19 145 -6 217 c 1
 52 217 111 217 169 217 c 1
 110 319 55 429 55 567 c 0
 55 601 58 637 66 676 c 0
 164 1165 428 1376 744 1376 c 0
 948 1376 1147 1242 1147 944 c 0
 1147 528 1005 370 793 217 c 1
 821 217 848 218 876 218 c 1
 935 218 1005 246 1005 246 c 1
 1006 175 1008 104 1009 33 c 1
 957 19 918 0 842 0 c 0
 836 0 l 1
 742 0 648 0 554 0 c 1
 552 70 550 141 548 211 c 1
 755 342 889 531 889 954 c 0
 889 1110 805 1159 705 1159 c 0
 572 1159 394 983 335 683 c 0
 327 643 324 602 324 562 c 0
 324 394 385 242 429 215 c 1
 396 144 363 72 330 1 c 1
EndSplineSet
Validated: 1
EndChar
StartChar: alpha
Encoding: 945 945 341
Width: 1060
VWidth: 4
Flags: W
HStem: -32 21G<786 870> -7 206<339.61 466.373> 815 203<437.727 565.716> 1017 20G<900 961.5>
VStem: 61 254<216.122 625.63>
AnchorPoint: "above_accent" 661 1107 basechar 0
LayerCount: 2
Fore
SplineSet
871 493 m 1xd8
 880 416 876 360 889 263 c 0
 897 205 924 179 985 153 c 1
 939 91 893 30 847 -32 c 1
 725 0 687 87 680 147 c 0
 677 170 675 193 672 215 c 1
 578 67 491 -7 360 -7 c 0
 138 -7 61 151 61 346 c 0
 61 404 68 465 80 527 c 0
 151 894 365 1018 540 1018 c 0xe8
 705 1018 772 923 790 767 c 1
 840 866 873 944 927 1037 c 1
 996 1014 1064 990 1133 967 c 1
 1043 841 956 661 871 493 c 1xd8
333 524 m 0
 320 458 315 406 315 364 c 0
 315 203 391 199 400 199 c 1
 403 199 405 199 408 199 c 1
 461 199 525 326 598 495 c 1
 594 711 583 815 510 815 c 0
 461 815 373 730 333 524 c 0
EndSplineSet
Validated: 1
EndChar
StartChar: beta
Encoding: 946 946 342
Width: 1060
VWidth: 0
Flags: W
HStem: 0 199<454.476 693.285> 634 207<491.551 648.341> 1122 206<497.828 683.944>
VStem: -40 233<-283.837 -122.094> 704 253<902.175 1103.21> 762 251<282.88 556.422>
LayerCount: 2
Back
SplineSet
67 1003 m 4xf4
 67 1159 183 1328 390 1328 c 4
 626 1328 798 1243 798 1009 c 5xf4
 798 886 753 815 670 779 c 5
 814 754 972 661 972 381 c 4
 972 76 844 -2 624 -2 c 4
 437 -2 373 95 373 298 c 4
 373 306 374 314 374 322 c 5
 578 320 l 5
 578 257 583 199 646 199 c 4
 700 199 728 247 728 395 c 4xfa
 728 504 664 634 376 634 c 5
 376 840 l 5
 541 840 554 905 554 1003 c 4
 554 1088 472 1122 413 1122 c 5
 346 1122 316 1073 316 1007 c 4
 316 851 321 637 321 450 c 4
 321 410 322 370 322 331 c 4
 322 251 319 176 299 117 c 4
 272 35 169 -9 113 -37 c 5
 21 211 l 5
 41 221 59 235 67 261 c 4
 75 287 76 323 76 398 c 4
 76 413 76 429 76 448 c 4
 76 635 67 829 67 1003 c 4xf4
EndSplineSet
Fore
SplineSet
285 112 m 1xf4
 279 83 275 59 271 39 c 0
 247 -85 220 -203 193 -300 c 1
 115 -294 38 -289 -40 -283 c 1
 -11 -183 14 -74 36 37 c 0
 73 224 180 829 214 1003 c 0
 244 1159 389 1328 587 1328 c 0
 770 1328 957 1284 957 1085 c 0xf8
 957 1062 954 1037 949 1010 c 0
 915 832 816 802 778 779 c 1
 914 754 1013 670 1013 495 c 0
 1013 461 1009 423 1001 382 c 0
 936 50 783 0 539 0 c 0
 531 0 l 0
 403 0 361 39 285 112 c 1xf4
580 199 m 0
 702 199 737 291 756 387 c 0
 760 407 762 425 762 442 c 0xf4
 762 583 634 634 454 634 c 1
 467 703 481 772 494 841 c 1
 634 841 682 883 702 1003 c 0
 703 1010 704 1017 704 1024 c 0
 704 1073 669 1122 585 1122 c 0
 525 1122 481 1083 464 993 c 0
 445 893 399 640 352 398 c 1
 416 223 516 199 580 199 c 0
EndSplineSet
Validated: 1
EndChar
StartChar: gamma
Encoding: 947 947 343
Width: 1060
VWidth: 14
Flags: W
HStem: 1021 20G<150 173.5>
LayerCount: 2
Fore
SplineSet
321 -376 m 1
 341 -272 386 -26 386 60 c 0
 386 68 l 0
 377 315 300 583 237 740 c 0
 213 799 200 804 189 811 c 0
 176 820 154 820 129 820 c 0
 124 820 119 819 114 819 c 1
 128 893 143 967 157 1041 c 1
 190 1041 229 1040 256 1036 c 0
 317 1026 389 1010 431 917 c 0
 499 765 550 552 581 351 c 1
 697 568 927 1061 927 1061 c 1
 998 1036 1070 1011 1141 986 c 1
 1141 986 816 387 648 15 c 1
 638 -67 618 -175 595 -291 c 0
 589 -320 584 -350 578 -379 c 1
 492 -378 407 -377 321 -376 c 1
EndSplineSet
Validated: 1
EndChar
StartChar: delta
Encoding: 948 948 344
Width: 1060
VWidth: 6
Flags: W
HStem: 1 197<386.413 599.497> 1182 197<473.996 871.828>
VStem: 85 255<237.108 579.219> 217 252<1040.5 1168.06> 720 257<373.65 660.381>
LayerCount: 2
Back
SplineSet
625 247 m 1
 672 299 685 403 685 530 c 0
 685 536 685 540 685 546 c 0
 683 703 648 830 520 830 c 0
 369 830 324 690 324 482 c 0
 324 316 387 197 508 197 c 1
 563 198 589 211 625 247 c 1
507 -6 m 1
 197 -6 72 184 72 464 c 0
 72 835 213 1032 505 1032 c 0
 702 1032 812 963 882 831 c 0
 923 752 941 639 941 543 c 0
 941 258 845 -6 509 -6 c 2
 507 -6 l 1
EndSplineSet
Fore
SplineSet
585 748 m 1xe8
 414 716 366 556 349 469 c 0
 344 442 340 411 340 380 c 0
 340 290 371 198 489 198 c 0
 658 198 705 429 718 506 c 0
 719 513 720 521 720 530 c 0
 720 592 684 688 585 748 c 1xe8
967 504 m 0
 916 244 773 1 451 1 c 1
 450 1 450 1 449 1 c 1
 217 2 85 135 85 348 c 0xe8
 85 385 89 423 97 464 c 0
 134 655 244 824 366 854 c 1
 325 876 313 894 290 915 c 0
 256 947 217 1008 217 1073 c 0
 217 1083 218 1093 220 1103 c 0
 267 1341 465 1379 675 1379 c 0
 799 1379 933 1351 1048 1322 c 1
 1020 1252 993 1181 965 1111 c 1
 839 1148 725 1182 629 1182 c 0
 544 1182 469 1177 469 1124 c 0xd8
 469 1098 505 1078 532 1063 c 0
 746 946 977 858 977 602 c 0
 977 572 974 539 967 504 c 0
EndSplineSet
Validated: 1
EndChar
StartChar: epsilon
Encoding: 949 949 345
Width: 1060
VWidth: 0
Flags: W
HStem: -4 197<380.385 772.942> 469 196<482.549 735.426> 825 199<453.153 931.221>
VStem: 84 268<226.728 395>
AnchorPoint: "above_accent" 710 1107 basechar 0
LayerCount: 2
Fore
SplineSet
989 138 m 1
 908 85 720 -4 497 -4 c 0
 315 -4 226 14 162 73 c 0
 109 123 84 201 84 263 c 0
 84 276 85 289 87 301 c 0
 110 431 193 548 352 584 c 1
 224 598 176 666 176 746 c 0
 176 760 177 774 180 789 c 0
 216 973 458 1024 680 1024 c 1
 684 1024 689 1024 693 1024 c 1
 926 1024 1028 963 1044 951 c 1
 1010 892 976 834 942 775 c 1
 921 790 788 825 643 825 c 0
 528 825 448 813 443 761 c 0
 443 759 442 756 442 754 c 0
 442 687 645 665 741 665 c 1
 743 665 746 665 748 665 c 1
 750 665 751 665 753 665 c 1
 759 665 765 665 771 665 c 1
 758 599 746 534 733 468 c 1
 707 468 681 469 655 469 c 0
 454 469 375 418 353 306 c 0
 352 301 352 296 352 291 c 0
 352 245 398 193 561 193 c 0
 729 193 846 249 906 295 c 1
 934 243 961 190 989 138 c 1
EndSplineSet
Validated: 1
EndChar
StartChar: zeta
Encoding: 950 950 346
Width: 1060
VWidth: 0
Flags: W
HStem: -347 198<522 675.417> 0 215<429.294 699.015> 1155 197<368.042 790.222> 1356 20G<1092 1167.5> 1394 20G<377 420>
VStem: 143 262<238.095 589.261> 700 229<-111.306 66>
LayerCount: 2
Fore
SplineSet
404 1414 m 1
 436 1372 468 1352 548 1352 c 0
 714 1352 1024 1358 1160 1376 c 1
 1175 1309 1189 1243 1204 1176 c 1
 1026 978 487 846 419 504 c 0
 409 455 405 412 405 374 c 0
 405 272 440 215 507 215 c 0
 511 215 679 216 683 216 c 0
 857 216 929 127 929 5 c 0
 929 -18 927 -41 922 -66 c 0
 876 -297 612 -337 520 -347 c 1
 521 -281 521 -215 522 -149 c 1
 609 -136 690 -115 698 -77 c 0
 700 -69 700 -62 700 -55 c 0
 700 -2 651 0 573 0 c 0
 553 0 l 0
 415 0 l 0
 251 0 143 117 143 337 c 0
 143 387 149 443 161 504 c 0
 231 861 519 991 797 1164 c 1
 666 1157 658 1155 530 1155 c 0
 416 1155 302 1175 243 1274 c 1
 297 1321 350 1367 404 1414 c 1
EndSplineSet
Validated: 1
EndChar
StartChar: eta
Encoding: 951 951 347
Width: 1060
VWidth: 6
Flags: W
HStem: 0 21G<35 309.5> 819 207<557.674 842> 1032 20G<399 441>
VStem: 202 251<927 1006.25> 594 253<-314.947 61.7188> 768 273<612.81 924>
AnchorPoint: "above_accent" 719 1107 basechar 0
LayerCount: 2
Fore
SplineSet
936 296 m 1xf4
 913 177 890 58 867 -61 c 1
 857 -112 847 -204 847 -266 c 0
 847 -285 848 -301 850 -312 c 1
 767 -333 683 -353 600 -374 c 1
 598 -333 594 -296 594 -248 c 0xf8
 594 -202 598 -147 613 -68 c 1
 631 25 649 117 667 210 c 1
 699 379 732 548 764 717 c 1
 767 732 768 745 768 756 c 0
 768 801 745 819 692 819 c 0
 629 819 522 781 423 707 c 1
 378 471 332 236 287 0 c 1
 203 0 119 0 35 0 c 1
 81 235 126 471 172 706 c 1
 195 824 202 876 202 924 c 0
 202 949 200 972 198 1004 c 1
 278 1020 359 1036 439 1052 c 1
 443 1031 453 987 453 943 c 0
 453 927 l 1
 519 977 658 1026 768 1026 c 0
 916 1026 1041 988 1041 860 c 0
 1041 846 1039 830 1036 814 c 1
 1003 641 969 469 936 296 c 1xf4
EndSplineSet
Validated: 1
EndChar
StartChar: theta
Encoding: 952 952 348
Width: 1060
VWidth: 0
Flags: W
HStem: -16 203<355.841 578.506> 567 222<386.781 749> 1147 203<553.057 756.703>
VStem: 51 264<228.391 548.623> 801 257<791.969 1102.8>
LayerCount: 2
Fore
SplineSet
330 277 m 0
 363 203 397 187 471 187 c 0
 550 187 611 249 657 326 c 1
 687 372 724 476 749 566 c 1
 732 566 715 567 697 567 c 0
 612 567 506 562 330 549 c 1
 322 496 315 435 315 381 c 0
 315 339 319 302 330 277 c 0
709 1350 m 1
 843 1350 1058 1299 1058 917 c 0
 1058 841 1049 752 1030 647 c 1
 1029 643 1029 640 1028 636 c 1
 996 469 933 312 867 217 c 0
 764 70 597 -16 432 -16 c 0
 310 -16 169 25 108 127 c 0
 68 193 51 274 51 367 c 0
 51 432 59 503 74 579 c 0
 143 931 233 1090 322 1187 c 0
 406 1279 552 1347 709 1350 c 1
792 789 m 1
 798 833 801 878 801 919 c 0
 801 952 799 983 794 1009 c 0
 774 1115 729 1147 669 1147 c 0
 604 1147 561 1122 507 1051 c 0
 462 992 418 906 380 774 c 1
 525 786 649 789 753 789 c 0
 792 789 l 1
EndSplineSet
Validated: 1
EndChar
StartChar: iota
Encoding: 953 953 349
Width: 1060
VWidth: 0
Flags: W
HStem: -18 202<557.5 763.17> 813 200<219.635 447>
VStem: 322 278<119.5 345.546>
AnchorPoint: "above_accent" 642 1107 basechar 0
LayerCount: 2
Fore
SplineSet
486 1013 m 1
 571 1013 656 1013 741 1013 c 1
 688 740 603 296 603 296 c 2
 601 285 600 275 600 265 c 0
 600 217 625 184 673 184 c 0
 718 184 816 252 850 336 c 1
 904 303 957 271 1011 238 c 1
 954 98 828 -18 600 -18 c 0
 515 -18 425 -4 386 20 c 0
 335 51 322 97 322 142 c 0
 322 164 325 186 329 206 c 1
 368 408 408 611 447 813 c 1
 398 813 307 807 208 785 c 1
 210 847 213 909 215 971 c 1
 314 999 406 1013 486 1013 c 1
EndSplineSet
Validated: 1
EndChar
StartChar: kappa
Encoding: 954 954 350
Width: 1060
VWidth: 0
Flags: W
HStem: 0 5G<15 281 704 759.5> 1002 20G<181 472>
LayerCount: 2
Fore
SplineSet
613 534 m 1
 736 429 943 235 976 110 c 1
 889 68 803 26 716 -16 c 1
 692 95 559 249 433 380 c 1
 433 380 365 318 321 246 c 1
 305 164 289 82 273 0 c 1
 187 0 101 0 15 0 c 1
 81 341 148 681 214 1022 c 1
 300 1022 386 1022 472 1022 c 1
 449 907 427 791 404 676 c 1
 535 821 951 1038 1007 1058 c 1
 1041 991 1078 905 1112 838 c 1
 883 720 687 608 613 534 c 1
EndSplineSet
Validated: 1
EndChar
StartChar: lambda
Encoding: 955 955 351
Width: 1060
VWidth: 14
Flags: W
HStem: -7 245<781.5 957.067> 1179 211<476.498 656>
VStem: 577 248<900.672 1177.17> 620 218<240.911 606.799>
LayerCount: 2
Fore
SplineSet
127 -39 m 1xd0
 65 8 3 56 -59 103 c 1
 39 237 412 635 577 983 c 1
 577 1152 560 1179 530 1179 c 0
 490 1179 475 1141 468 1103 c 1
 398 1104 328 1104 258 1105 c 1
 320 1337 426 1390 588 1390 c 0
 724 1390 825 1297 825 1123 c 0xe0
 825 825 829 504 838 348 c 1
 845 283 853 238 889 238 c 1
 915 238 952 259 952 259 c 1
 963 188 974 117 985 46 c 1
 959 22 929 -7 827 -7 c 0
 736 -7 632 54 620 250 c 0
 615 330 612 607 612 607 c 1
 528 460 325 228 127 -39 c 1xd0
EndSplineSet
Validated: 1
EndChar
StartChar: nu
Encoding: 957 957 353
Width: 1060
VWidth: 6
Flags: W
HStem: -8 21G<279 441.5>
VStem: 828 262<603.726 981.42>
LayerCount: 2
Fore
SplineSet
349 1054 m 1
 464 771 504 508 522 251 c 1
 717 372 775 488 817 704 c 0
 825 746 828 782 828 814 c 0
 828 889 811 938 803 972 c 1
 887 999 972 1027 1056 1054 c 1
 1079 993 1090 927 1090 859 c 0
 1090 815 1086 771 1077 726 c 0
 971 190 608 -8 275 -8 c 1
 283 33 287 80 287 131 c 0
 287 399 188 770 112 924 c 1
 191 967 270 1011 349 1054 c 1
EndSplineSet
Validated: 1
EndChar
StartChar: xi
Encoding: 958 958 354
Width: 1060
VWidth: 0
Flags: W
HStem: -347 198<528 680.835> 0 215<377.843 700.378> 661 197<698.998 859.438> 1155 197<373.412 597.934> 1356 20G<980 1056> 1408 20G<376.5 419>
VStem: 79 269<143 427.524> 389 269<883.756 1011.32> 705 229<-114.829 82>
LayerCount: 2
Fore
SplineSet
403 1428 m 1
 435 1386 474 1352 556 1352 c 0
 720 1352 912 1358 1048 1376 c 1
 1064 1310 1080 1243 1096 1177 c 1
 1000 1103 674 1046 660 964 c 0
 659 957 658 950 658 944 c 0
 658 869 757 858 896 858 c 1
 883 792 870 727 857 661 c 1
 580 595 385 503 349 339 c 0
 348 335 348 331 348 326 c 0
 348 285 379 215 513 215 c 0
 515 215 685 216 687 216 c 0
 831 216 934 155 934 9 c 0
 934 -14 931 -39 926 -66 c 0
 885 -280 650 -335 526 -347 c 1
 527 -281 527 -215 528 -149 c 1
 615 -136 694 -117 702 -77 c 0
 704 -68 705 -60 705 -53 c 0
 705 -15 677 0 603 0 c 0
 583 0 l 0
 419 0 l 0
 242 0 79 46 79 240 c 0
 79 266 82 294 88 325 c 0
 137 577 382 716 505 752 c 1
 470 762 389 790 389 906 c 0
 389 924 391 944 395 967 c 0
 411 1057 502 1125 601 1161 c 1
 601 1161 542 1155 512 1155 c 0
 396 1155 303 1182 243 1264 c 1
 296 1319 350 1373 403 1428 c 1
EndSplineSet
Validated: 1
EndChar
StartChar: pi
Encoding: 960 960 356
Width: 1060
VWidth: 6
Flags: W
HStem: 0 237<720.5 936.697> 822 198<510.676 651.153 911 1012.51>
VStem: 583 251<152.5 526.873> 654 261<488.842 821.088>
LayerCount: 2
Fore
SplineSet
937 1020 m 0xd0
 978 1020 996 1038 1030 1088 c 1
 1075 1063 1121 1039 1166 1014 c 1
 1120 940 1074 822 942 822 c 1
 932 822 921 822 911 822 c 1
 914 808 915 792 915 774 c 0xd0
 915 733 908 678 890 587 c 1
 872 497 855 406 837 316 c 1
 835 304 834 293 834 284 c 0
 834 253 845 237 862 237 c 0
 887 237 904 240 926 259 c 1
 948 201 970 143 992 85 c 1
 954 43 904 0 777 0 c 0
 664 0 583 99 583 206 c 0xe0
 583 315 592 365 634 583 c 0
 649 661 654 708 654 740 c 0
 654 779 647 797 639 822 c 1
 599 822 558 821 518 821 c 1
 479 619 439 417 400 215 c 1
 386 142 358 44 333 -13 c 1
 251 -2 169 10 87 21 c 1
 118 89 131 146 145 219 c 1
 183 417 222 616 260 814 c 1
 212 805 188 797 150 770 c 1
 144 832 139 894 133 956 c 1
 189 988 293 1019 393 1019 c 2
 393 1019 725 1020 937 1020 c 0xd0
EndSplineSet
Validated: 1
EndChar
StartChar: rho
Encoding: 961 961 357
Width: 1060
VWidth: -2
Flags: W
HStem: -6 198<411.281 602.822> 818 214<492.648 706.823>
VStem: -11 285<-377.938 -310.451 -216.356 38.7184> -11 257<-349 40.4548> 743 282<425.026 785.547>
LayerCount: 2
Fore
SplineSet
728 517 m 0xc8
 731 532 l 0
 739 572 743 611 743 646 c 0
 743 745 708 818 608 818 c 0
 510 818 408 734 369 533 c 0
 361 492 357 454 357 420 c 0
 357 277 420 192 500 192 c 0
 636 192 696 351 728 517 c 0xc8
136 562 m 2
 194 854 407 1032 669 1032 c 0
 866 1032 963 963 1007 831 c 0
 1020 792 1025 745 1025 695 c 0
 1025 644 1020 592 1010 543 c 0
 953 258 826 -6 504 -6 c 1
 503 -6 503 -6 502 -6 c 1
 365 -6 322 17 271 96 c 1
 273 79 274 62 274 45 c 0xe8
 274 -15 263 -70 258 -99 c 0
 250 -143 246 -183 246 -218 c 0
 246 -286 258 -337 267 -377 c 1
 178 -397 89 -418 0 -438 c 1
 -7 -411 -11 -364 -11 -308 c 0xd8
 -11 -236 -4 -149 11 -70 c 1
 53 141 94 351 136 562 c 2
EndSplineSet
Validated: 1
EndChar
StartChar: sigma1
Encoding: 962 962 358
Width: 1060
VWidth: 4
Flags: W
HStem: -347 198<522 674.854> 10 212<438.768 695.383> 807 211<551.202 821.804>
VStem: 133 266<261.346 618.581> 699 230<-114.829 82.5>
LayerCount: 2
Fore
SplineSet
411 528 m 0
 403 485 399 447 399 414 c 0
 399 281 459 224 520 222 c 0
 523 222 689 213 692 213 c 0
 833 209 929 153 929 12 c 0
 929 -11 927 -38 921 -66 c 0
 877 -280 645 -335 520 -347 c 1
 521 -281 521 -215 522 -149 c 1
 609 -136 688 -117 697 -77 c 0
 699 -69 699 -62 699 -55 c 0
 699 -17 671 -2 597 0 c 0
 590 0 584 1 577 1 c 0
 573 1 420 10 416 10 c 0
 353 12 280 34 236 73 c 1
 163 140 133 230 133 342 c 0
 133 398 141 460 154 527 c 0
 220 867 428 1018 743 1018 c 0
 838 1018 931 999 986 957 c 0
 1038 917 1073 858 1085 806 c 1
 1005 772 925 738 845 704 c 1
 842 742 824 807 684 807 c 0
 537 807 438 671 411 528 c 0
EndSplineSet
Validated: 1
EndChar
StartChar: sigma
Encoding: 963 963 359
Width: 1060
VWidth: 6
Flags: W
HStem: -6 203<384.176 600.071> 830 202<494.385 713.946>
VStem: 82 260<238.301 580.721> 741 255<421.624 813.081>
LayerCount: 2
Fore
SplineSet
983 814 m 1
 992 778 996 736 996 692 c 0
 996 642 991 590 982 543 c 0
 927 258 779 -6 443 -6 c 1
 442 -6 442 -6 441 -6 c 1
 187 -6 82 121 82 321 c 0
 82 365 87 413 97 464 c 0
 169 832 345 1029 633 1032 c 0
 641 1032 l 0
 768 1032 1109 1021 1158 1012 c 1
 1142 943 1125 873 1109 804 c 1
 1080 809 1035 812 983 814 c 1
608 247 m 1
 665 299 700 403 723 530 c 0
 724 536 725 540 726 546 c 0
 736 601 741 643 741 682 c 0
 741 734 732 777 714 828 c 1
 714 828 639 830 616 830 c 0
 465 830 393 690 353 482 c 0
 346 445 342 410 342 379 c 0
 342 269 387 197 481 197 c 1
 536 198 565 211 608 247 c 1
EndSplineSet
Validated: 1
EndChar
StartChar: tau
Encoding: 964 964 360
Width: 1060
VWidth: 0
Flags: W
HStem: -3 220<627.664 766.67> 825 195<217.599 361 361.061 465 716.201 1083.43>
VStem: 352 267<221.583 512.921>
LayerCount: 2
Fore
SplineSet
693 1020 m 1
 734 1020 774 1020 815 1020 c 1
 954 1020 l 1
 1003 1020 1052 1020 1101 1020 c 1
 1107 1020 1113 1020 1119 1020 c 1
 1106 954 1094 889 1081 823 c 1
 980 824 878 824 777 825 c 1
 760 825 742 825 725 825 c 1
 676 621 661 540 638 440 c 1
 635 427 633 413 630 400 c 1
 622 361 619 329 619 305 c 0
 619 229 651 217 682 217 c 0
 739 217 760 243 803 319 c 1
 863 290 924 262 984 233 c 1
 953 177 838 -3 641 -3 c 0
 436 -3 352 65 352 232 c 0
 352 279 359 334 371 397 c 1
 374 411 377 426 380 440 c 1
 404 544 421 633 465 826 c 1
 445 825 361 824 361 824 c 2
 291 823 271 811 215 779 c 1
 189 830 162 882 136 933 c 1
 195 977 298 1019 394 1019 c 1
 494 1019 593 1020 693 1020 c 1
EndSplineSet
Validated: 1
EndChar
StartChar: upsilon
Encoding: 965 965 361
Width: 1060
VWidth: 6
Flags: W
HStem: -4 209<272 569.328> 1012 20G<413.5 458 978 1033.5>
VStem: 80 271<219.474 555.944> 191 267<719.969 1004.4> 774 277<546.442 970.73>
AnchorPoint: "above_accent" 635 1107 basechar 0
LayerCount: 2
Fore
SplineSet
88 364 m 0xe8
 100 424 111 487 123 547 c 0
 159 730 191 899 191 979 c 0
 191 988 191 996 190 1003 c 1
 279 1013 369 1022 458 1032 c 1
 458 1023 l 0xd8
 458 946 424 770 386 573 c 0
 375 517 374 512 363 455 c 0
 356 418 351 380 351 345 c 0
 351 267 374 205 442 205 c 0
 500 205 564 228 635 309 c 0
 710 395 721 431 767 669 c 0
 772 695 774 723 774 752 c 0
 774 825 761 903 754 963 c 1
 844 992 933 1020 1023 1049 c 1
 1044 1002 1051 930 1051 862 c 0
 1051 791 1045 724 1037 690 c 0
 1036 686 1036 682 1035 678 c 0
 1033 666 1030 653 1028 641 c 0
 994 450 935 303 727 123 c 0
 651 57 519 -4 356 -4 c 0
 188 -4 80 123 80 287 c 0
 80 312 83 338 88 364 c 0xe8
EndSplineSet
Validated: 1
EndChar
StartChar: phi
Encoding: 966 966 362
Width: 1060
VWidth: 0
Flags: W
HStem: 835 205<716.301 845.931>
VStem: 49 235<217.943 662.916> 854 228<513.47 828.188>
LayerCount: 2
Fore
SplineSet
553 -11 m 1
 515 -215 485 -377 482 -398 c 1
 401 -397 319 -397 238 -396 c 1
 240 -375 272 -211 311 -8 c 1
 222 9 153 58 107 133 c 0
 66 198 49 275 49 364 c 0
 49 426 58 495 72 569 c 0
 116 797 206 979 315 1060 c 1
 370 1020 425 980 480 940 c 1
 383 856 335 765 298 573 c 0
 289 525 284 470 284 418 c 0
 284 314 304 219 352 199 c 1
 380 346 409 493 437 640 c 1
 498 955 668 1040 812 1040 c 0
 930 1040 1082 1019 1082 783 c 0
 1082 740 1077 690 1066 632 c 1
 1065 628 1065 625 1064 621 c 1
 1032 457 970 272 904 179 c 0
 816 56 689 9 553 -11 c 1
591 196 m 1
 731 229 791 405 836 624 c 1
 837 630 839 637 840 643 c 1
 849 690 854 726 854 753 c 0
 854 823 824 835 774 835 c 1
 773 835 l 1
 735 835 711 823 676 644 c 0
 648 502 624 369 591 196 c 1
EndSplineSet
Validated: 1
EndChar
StartChar: chi
Encoding: 967 967 363
Width: 1060
VWidth: 14
Flags: W
HStem: -398 228<636.752 824.367> 822 219<157 261.447>
LayerCount: 2
Fore
SplineSet
391 372 m 1
 391 372 333 653 278 754 c 0
 246 812 193 822 115 822 c 1
 129 895 143 968 157 1041 c 1
 225 1041 l 0
 328 1041 390 1033 451 934 c 0
 530 805 553 576 553 576 c 1
 685 777 878 1057 878 1057 c 1
 936 1024 995 992 1053 959 c 1
 1053 959 847 650 621 317 c 1
 649 145 722 -170 776 -170 c 0
 788 -170 793 -166 802 -150 c 1
 843 -183 885 -217 926 -250 c 1
 913 -288 842 -398 740 -398 c 0
 535 -398 483 -38 450 78 c 1
 343 -82 236 -241 129 -401 c 1
 64 -363 0 -325 -65 -287 c 1
 87 -67 239 152 391 372 c 1
EndSplineSet
Validated: 1
EndChar
StartChar: psi
Encoding: 968 968 364
Width: 1060
VWidth: 6
Flags: W
HStem: 1012 8G<335.5 374 513 753 1056.5 1102>
VStem: 35 232<209.046 548.199> 145 229<706.373 1006.27> 872 238<588.851 982.933>
LayerCount: 2
Back
SplineSet
618.5 196 m 5
 752.5 229 778.455 405.156 780.5 624 c 5
 780.5 643 l 6
 780.5 812 746.5 835 677 835 c 6
 676 835 l 6
 638.5 835 616.5 823 616.5 644 c 4
 616.5 502 617.5 369 618.5 196 c 5
619.5 -11 m 5
 621.5 -215 623.5 -377 624.5 -398 c 5
 380.5 -396 l 5
 378.5 -375 378.5 -211 378.5 -8 c 5
 286.5 9 207.5 58 146.5 133 c 4
 56.5 243 26.5 389 26.5 569 c 4
 26.5 797 80.5 978.8 173.5 1059.8 c 5
 362.5 939.8 l 5
 281.5 855.8 252.5 765 252.5 573 c 4
 252.5 427.789 300.5 229 378.5 199 c 5
 378.5 640 l 6
 378.5 955 531 1040 675 1040 c 4
 814 1040 1008.5 1010 1008.5 632 c 6
 1008.5 621 l 6
 1008.5 457 982.5 272 934.5 179 c 4
 870.5 56 751.5 9 619.5 -11 c 5
EndSplineSet
Fore
SplineSet
44 366 m 0xd0
 56 426 68 489 80 549 c 0
 116 730 145 899 145 979 c 0
 145 989 145 998 144 1005 c 1
 221 1014 297 1023 374 1032 c 1
 374 1022 l 0xb0
 374 944 342 769 304 573 c 0
 293 517 291 503 280 446 c 0
 271 401 267 362 267 329 c 0
 267 243 296 198 351 198 c 1
 407 482 453 693 498 927 c 1
 504 958 510 989 516 1020 c 1
 595 1020 674 1020 753 1020 c 1
 744 972 734 923 725 875 c 1
 679 639 645 475 593 212 c 1
 736 251 812 480 863 738 c 0
 870 772 872 805 872 837 c 0
 872 891 864 941 853 985 c 1
 934 1005 1016 1026 1097 1046 c 1
 1107 1006 1110 951 1110 898 c 0
 1110 840 1107 783 1099 749 c 0
 1098 745 1098 741 1097 737 c 0
 1095 725 1092 712 1090 700 c 0
 1056 509 1003 277 795 97 c 0
 740 49 683 29 554 8 c 1
 545 -36 537 -80 528 -124 c 1
 506 -239 494 -295 469 -396 c 1
 390 -396 310 -395 231 -395 c 1
 247 -333 256 -290 267 -235 c 0
 276 -188 285 -132 303 -46 c 0
 306 -32 308 -18 311 -4 c 1
 306 -4 l 0
 121 -4 35 117 35 273 c 0
 35 303 38 334 44 366 c 0xd0
EndSplineSet
Validated: 1
EndChar
StartChar: omega
Encoding: 969 969 365
Width: 1060
VWidth: 6
Flags: W
HStem: -12 212<166 363.323 611.221 720.042> 1019 30G<213 319.5 998.5 1054>
VStem: 26 238<200.287 562.871> 828 249<435.937 959.628>
AnchorPoint: "above_accent" 652 1107 basechar 0
LayerCount: 2
Fore
SplineSet
457 684 m 1
 536 690 614 697 693 703 c 1
 674 618 657 524 638 431 c 1
 637 423 636 414 634 405 c 0
 615 312 609 260 609 232 c 0
 609 206 616 200 630 200 c 0
 707 200 761 270 790 420 c 0
 812 536 828 643 828 737 c 0
 828 816 817 887 790 947 c 1
 873 978 957 1008 1040 1039 c 1
 1068 971 1077 889 1077 806 c 0
 1077 669 1051 529 1034 441 c 0
 991 218 879 -12 634 -12 c 0
 520 -12 476 20 467 104 c 1
 424 32 384 -10 250 -10 c 0
 82 -10 26 117 26 274 c 0
 26 329 33 386 44 444 c 0
 76 612 140 866 286 1049 c 1
 353 1016 421 982 488 949 c 1
 382 822 321 675 281 468 c 0
 270 410 264 361 264 320 c 0
 264 241 284 196 320 196 c 0
 362 196 381 287 403 395 c 0
 405 404 406 414 408 424 c 0
 429 530 440 584 457 684 c 1
EndSplineSet
Validated: 1
EndChar
StartChar: uni03CF
Encoding: 975 975 421
Width: 1060
VWidth: 0
Flags: W
HStem: -364 177<511.205 672.145> -5 21G<8 280.5> 1315 20G<224.5 526 976 1025>
LayerCount: 2
Fore
SplineSet
762 0 m 1
 738 111 570 445 465 574 c 1
 465 574 397 512 353 440 c 1
 324 292 295 143 266 -5 c 1
 180 -5 94 -5 8 -5 c 1
 95 442 181 888 268 1335 c 1
 354 1335 440 1335 526 1335 c 1
 496 1180 466 1026 436 871 c 1
 567 1016 954 1339 998 1376 c 1
 1052 1317 1106 1258 1160 1199 c 1
 952 1064 712 816 638 742 c 1
 735 623 968 192 992 54 c 1
 939 -213 851 -364 479 -364 c 1
 491 -305 502 -246 514 -187 c 1
 676 -187 744 -93 762 0 c 1
EndSplineSet
Validated: 1
EndChar
StartChar: uni03D0
Encoding: 976 976 413
Width: 1060
VWidth: 0
Flags: W
HStem: 0 202<424.561 678.876> 632 206<416 621.087> 1120 208<504.816 671.358>
VStem: 105 253<273.408 617.995> 688 252<906.7 1101.24> 745 251<274.835 559.246>
LayerCount: 2
Back
SplineSet
588 199 m 4xf8
 710 199 728 291 728 387 c 4xf4
 728 570 580 634 378 634 c 5
 378 841 l 5
 517 841 554 883 554 1003 c 4
 554 1058 509 1122 414 1122 c 5
 354 1122 318 1083 318 993 c 4
 318 893 321 640 322 398 c 5
 419 223 524.334 199 588 199 c 4xf8
309 112 m 5
 309 83 309 59 309 39 c 4
 309 -85 306 -203 298 -300 c 5
 62 -283 l 5
 72 -183 75 -74 75 37 c 4
 75 224 66 829 66 1003 c 4
 66 1159 177 1328 376 1328 c 4
 579 1328 799 1274 799 1010 c 4xf8
 799 832 708 802 673 779 c 5
 841 749.5 973 636.5 973 382.5 c 4
 973 50 829 0 585 0 c 4
 583 0 580 0 578 0 c 4
 449 0 399 39 309 112 c 5
EndSplineSet
Fore
SplineSet
147 736 m 0xf4
 230 1156 383 1328 607 1328 c 0
 770 1328 940 1272 940 1084 c 0xf8
 940 1062 937 1037 932 1011 c 0
 912 909 859 816 756 779 c 1
 896 756 996 667 996 491 c 0
 996 458 993 421 985 381 c 0
 931 106 810 0 478 0 c 0
 191 0 105 157 105 386 c 0
 105 490 122 610 147 736 c 0xf4
416 838 m 1
 575 838 653 855 686 1005 c 0
 688 1013 688 1021 688 1028 c 0
 688 1091 633 1120 567 1120 c 0
 509 1120 449 1008 416 838 c 1
376 619 m 1
 364 556 358 501 358 454 c 0
 358 273 439 202 532 202 c 0
 680 202 715 261 740 395 c 0
 743 412 745 427 745 442 c 0xf4
 745 572 629 632 507 632 c 0
 474 632 426 629 376 619 c 1
EndSplineSet
Validated: 1
EndChar
